{
.formatVersion = 3;
classes = (
{
code = "zero four five six seven eight nine zero.onum four.onum five.onum six.onum seven.onum eight.onum nine.onum";
name = aalt;
},
{
code = "zero.onum four.onum five.onum six.onum seven.onum eight.onum nine.onum zero four five six seven eight nine";
name = aalt2;
},
{
code = "zero.onum one.onum two.onum three.onum four.onum five.onum six.onum seven.onum eight.onum nine.onum";
name = lnum_onum;
},
{
code = "zero one two three four five six seven eight nine";
name = lnum_onum_ordn;
}
);
familyName = Gloock;
customParameters = (
{
name = glyphOrder;
value = (
.notdef,
uni0000,
uni000D,
space,
uni000A,
exclam,
quotedbl,
numbersign,
dollar,
percent,
ampersand,
quotesingle,
parenleft,
parenright,
asterisk,
plus,
comma,
hyphen,
period,
slash,
zero,
one,
two,
three,
four,
five,
six,
seven,
eight,
nine,
colon,
semicolon,
less,
equal,
greater,
question,
at,
A,
B,
C,
D,
E,
F,
G,
H,
I,
J,
K,
L,
M,
N,
O,
P,
Q,
R,
S,
T,
U,
V,
W,
X,
Y,
Z,
bracketleft,
backslash,
bracketright,
asciicircum,
underscore,
grave,
a,
b,
c,
d,
e,
f,
g,
h,
i,
j,
k,
l,
m,
n,
o,
p,
q,
r,
s,
t,
u,
v,
w,
x,
y,
z,
braceleft,
bar,
braceright,
asciitilde,
uni00A0,
exclamdown,
cent,
sterling,
currency,
yen,
brokenbar,
section,
dieresis,
copyright,
ordfeminine,
guillemotleft,
logicalnot,
registered,
macron,
degree,
plusminus,
twosuperior,
threesuperior,
acute,
paragraph,
periodcentered,
cedilla,
onesuperior,
ordmasculine,
guillemotright,
onequarter,
onehalf,
threequarters,
questiondown,
Agrave,
Aacute,
Acircumflex,
Atilde,
Adieresis,
Aring,
AE,
Ccedilla,
Egrave,
Eacute,
Ecircumflex,
Edieresis,
Igrave,
Iacute,
Icircumflex,
Idieresis,
Eth,
Ntilde,
Ograve,
Oacute,
Ocircumflex,
Otilde,
Odieresis,
multiply,
Oslash,
Ugrave,
Uacute,
Ucircumflex,
Udieresis,
Yacute,
Thorn,
germandbls,
agrave,
aacute,
acircumflex,
atilde,
adieresis,
aring,
ae,
ccedilla,
egrave,
eacute,
ecircumflex,
edieresis,
igrave,
iacute,
icircumflex,
idieresis,
eth,
ntilde,
ograve,
oacute,
ocircumflex,
otilde,

glyphs = (
{
glyphname = .notdef;
layers = (
{
hints = (
{
horizontal = 1;
place = (0,28);
type = Stem;
},
{
horizontal = 1;
place = (258,62);
type = Stem;
},
{
horizontal = 1;
place = (722,28);
type = Stem;
},
{
place = (100,28);
type = Stem;
},
{
place = (437,28);
type = Stem;
}
);
layerId = "4476E8FB-E1E7-4AA1-B35B-6BE7AD43F443";
shapes = (
{
closed = 1;
nodes = (
(465,750,l),
(100,750,l),
(100,0,l),
(465,0,l)
);
},
{
closed = 1;
nodes = (
(437,28,l),
(128,28,l),
(128,722,l),
(437,722,l)
);
},
{
closed = 1;
nodes = (
(237,238,o),
(259,258,o),
(284,258,cs),
(309,258,o),
(329,238,o),
(329,213,cs),
(329,188,o),
(309,167,o),
(284,167,cs),
(259,167,o),
(237,188,o),
(237,213,cs)
);
},
{
closed = 1;
nodes = (
(351,583,o),
(395,557,o),
(395,519,cs),
(395,495,o),
(376,473,o),
(331,438,cs),
(313,424,ls),
(291,407,o),
(273,378,o),
(273,320,c),
(259,320,l),
(259,396,o),
(272,425,o),
(283,448,cs),
(296,474,o),
(303,509,o),
(303,532,cs),
(303,562,o),
(302,575,o),
(279,575,cs),
(231,575,o),
(205,523,o),
(194,441,c),
(180,441,l),
(197,575,l),
(203,575,ls),
(222,575,o),
(260,583,o),
(295,583,cs)
);
}
);
width = 565;
}
);
leftKerningGroup = J;
},
{
glyphname = exclam;
layers = (
{
hints = (
{
horizontal = 1;
place = (-14,170);
type = Stem;
},
{
horizontal = 1;
place = (764,-20);
target = down;
type = TopGhost;
},
{
place = (30,170);
type = Stem;
},
{
place = (111,10);
type = Stem;
}
);
layerId = "4476E8FB-E1E7-4AA1-B35B-6BE7AD43F443";
shapes = (
{
closed = 1;
nodes = (
(30,25,o),
(69,-14,o),
(115,-14,cs),
(161,-14,o),
(200,25,o),
(200,71,cs),
(200,118,o),
(161,156,o),
(115,156,cs),
(69,156,o),
(30,118,o),
(30,71,cs)
);
},
{
closed = 1;
nodes = (
(202,730,o),
(168,764,o),
(116,764,cs),
(66,764,o),
(32,730,o),
(32,679,cs),
(32,597,o),
(111,520,o),
(111,271,c),
(121,271,l),
(121,520,o),
(202,597,o),
(202,679,cs)
);
}
);
width = 232;
}
);
leftKerningGroup = J;
unicode = 33;
},
{
glyphname = quotedbl;
layers = (
{
hints = (
{
horizontal = 1;
place = (764,-20);
target = down;
type = TopGhost;
},
{
place = (90,10);
type = Stem;
},
{
place = (251,10);
type = Stem;
}
);
layerId = "4476E8FB-E1E7-4AA1-B35B-6BE7AD43F443";
shapes = (
{
closed = 1;
nodes = (
(57,764,o),
(30,739,o),
(30,706,cs),
(30,656,o),
(90,624,o),
(90,516,c),
(100,516,l),
(100,624,o),
(160,656,o),
(160,706,cs),
(160,739,o),
(132,764,o),
(95,764,cs)
);
},
{
closed = 1;
nodes = (
(218,764,o),
(191,739,o),
(191,706,cs),
(191,656,o),
(251,624,o),
(251,516,c),
(261,516,l),
(261,624,o),
(321,656,o),
(321,706,cs),
(321,739,o),
(293,764,o),
(256,764,cs)
);
}
);
width = 352;
}
);
leftKerningGroup = J;
unicode = 34;
},
{
glyphname = numbersign;
layers = (
{
hints = (
{
horizontal = 1;
place = (-14,21);
target = up;
type = BottomGhost;
},
{
horizontal = 1;
place = (171,127);
type = Stem;
},
{
horizontal = 1;
place = (452,127);
type = Stem;
},
{
horizontal = 1;
place = (765,-20);
target = down;
type = TopGhost;
},
{
place = (31,512);
type = Stem;
}
);
layerId = "4476E8FB-E1E7-4AA1-B35B-6BE7AD43F443";
shapes = (
{
closed = 1;
nodes = (
(383,452,l),
(347,298,l),
(191,298,l),
(226,452,l)
);
},
{
closed = 1;
nodes = (
(161,171,l),
(318,171,l),
(275,-14,l),
(288,-15,l),
(331,171,l),
(496,171,l),
(496,298,l),
(360,298,l),
(396,452,l),
(542,452,l),
(543,579,l),
(425,579,l),
(468,764,l),
(455,765,l),
(412,579,l),
(256,579,l),
(299,764,l),
(286,765,l),
(243,579,l),
(77,579,l),
(77,452,l),
(213,452,l),
(177,298,l),
(31,298,l),
(31,171,l),
(148,171,l),
(105,-14,l),
(118,-15,l)
);
}
);
width = 574;
}
);
leftKerningGroup = J;
unicode = 35;
},
{
glyphname = dollar;
layers = (
{
hints = (
{
horizontal = 1;
place = (-14,18);
type = Stem;
},
{
horizontal = 1;
place = (-12,16);
type = Stem;
},
{
horizontal = 1;
place = (-11,21);
target = up;
type = BottomGhost;
},
{
horizontal = 1;
place = (0,21);
target = up;
type = BottomGhost;
},
{
horizontal = 1;
place = (749,15);
type = Stem;
},
{
horizontal = 1;
place = (750,-20);
target = down;
type = TopGhost;
},
{
place = (44,122);
type = Stem;
},
{
place = (264,10);
type = Stem;
},
{
place = (373,110);
type = Stem;
}
);
layerId = "4476E8FB-E1E7-4AA1-B35B-6BE7AD43F443";
shapes = (
{
closed = 1;
nodes = (
(274,290,l),
(342,230,o),
(373,184,o),
(373,131,cs),
(373,67,o),
(335,21,o),
(274,8,c)
);
},
{
closed = 1;
nodes = (
(264,501,l),
(197,556,o),
(166,597,o),
(166,661,cs),
(166,712,o),
(205,747,o),
(264,749,c)
);
},
{
closed = 1;
nodes = (
(274,-11,l),
(401,4,o),
(483,92,o),
(483,217,cs),
(483,305,o),
(434,368,o),
(314,461,c),
(275,493,l),
(274,493,l),
(274,749,l),
(359,747,o),
(403,680,o),
(424,526,c),
(434,526,l),
(424,750,l),
(350,750,o),
(329,763,o),
(274,764,c),
(274,810,l),
(264,810,l),
(264,764,l),
(132,763,o),
(44,693,o),
(44,588,cs),
(44,500,o),
(81,447,o),
(171,375,cs),
(210,344,ls),
(230,328,o),
(248,313,o),
(264,299,c),
(264,6,l),
(255,5,o),
(246,4,o),
(237,4,cs),
(123,4,o),
(66,84,o),
(44,270,c),
(33,270,l),
(66,0,l),
(162,0,o),
(175,-14,o),
(237,-14,c),
(246,-13,o),
(255,-13,o),
(264,-12,c),
(264,-60,l),
(274,-60,l)
);
}
);
width = 492;
}
);
leftKerningGroup = J;
unicode = 36;
},
{
glyphname = percent;
layers = (
{
hints = (
{
horizontal = 1;
place = (-14,12);
type = Stem;
},
{
horizontal = 1;
place = (0,21);
target = up;
type = BottomGhost;
},
{
horizontal = 1;
place = (323,11);
type = Stem;
},
{
horizontal = 1;
place = (416,12);
type = Stem;
},
{
horizontal = 1;
place = (750,-20);
target = down;
type = TopGhost;
},
{
horizontal = 1;
place = (752,12);
type = Stem;
},
{
place = (41,106);
type = Stem;
},
{
place = (297,106);
type = Stem;
},
{
place = (398,106);
type = Stem;
},
{
place = (654,106);
type = Stem;
}
);
layerId = "4476E8FB-E1E7-4AA1-B35B-6BE7AD43F443";
shapes = (
{
closed = 1;
nodes = (
(41,485,o),
(113,416,o),
(223,416,cs),
(332,416,o),
(403,485,o),
(403,590,cs),
(403,695,o),
(332,764,o),
(223,764,cs),
(113,764,o),
(41,695,o),
(41,590,cs)
);
},
{
closed = 1;
nodes = (
(147,687,o),
(179,752,o),
(223,752,cs),
(266,752,o),
(297,687,o),
(297,590,cs),
(297,494,o),
(266,428,o),
(222,428,cs),
(178,428,o),
(147,494,o),
(147,590,cs)
);
},
{
closed = 1;
nodes = (
(398,55,o),
(470,-14,o),
(579,-14,cs),
(689,-14,o),
(760,55,o),
(760,160,cs),
(760,265,o),
(689,334,o),
(579,334,cs),
(470,334,o),
(398,265,o),
(398,160,cs)
);
},
{
closed = 1;
nodes = (
(504,257,o),
(536,323,o),
(579,323,cs),
(623,323,o),
(654,257,o),
(654,161,cs),
(654,64,o),
(623,-2,o),
(579,-2,cs),
(535,-2,o),
(504,64,o),
(504,161,cs)
);
},
{
closed = 1;
nodes = (
(131,0,l),
(146,0,l),
(670,750,l),
(655,750,l)
);
}
);
width = 802;
}
);
leftKerningGroup = J;
unicode = 37;
},
{
glyphname = ampersand;
layers = (
{
hints = (
{
horizontal = 1;
place = (-14,46);
type = Stem;
},
{
horizontal = 1;
place = (1,12);
type = Stem;
},
{
horizontal = 1;
place = (383,12);
type = Stem;
},
{
horizontal = 1;
place = (752,12);
type = Stem;
},
{
place = (28,144);
type = Stem;
},
{
place = (104,128);
type = Stem;
},
{
place = (420,101);
type = Stem;
}
);
layerId = "4476E8FB-E1E7-4AA1-B35B-6BE7AD43F443";
shapes = (
{
closed = 1;
nodes = (
(443,65,l),
(418,44,o),
(381,32,o),
(342,32,cs),
(240,32,o),
(172,112,o),
(172,232,cs),
(172,291,o),
(188,337,o),
(215,355,c)
);
},
{
closed = 1;
nodes = (
(232,706,o),
(267,752,o),
(319,752,cs),
(380,752,o),
(420,692,o),
(420,601,cs),
(420,526,o),
(392,461,o),
(345,427,c),
(295,488,o),
(232,553,o),
(232,636,cs)
);
},
{
closed = 1;
nodes = (
(713,14,ls),
(694,16,o),
(669,30,o),
(650,49,cs),
(634,65,o),
(605,99,o),
(566,149,cs),
(546,175,l),
(561,203,o),
(582,236,o),
(598,277,c),
(621,341,o),
(656,377,o),
(697,382,cs),
(715,384,l),
(715,395,l),
(509,395,l),
(509,384,l),
(529,382,ls),
(566,378,o),
(593,352,o),
(593,321,cs),
(593,292,o),
(569,235,o),
(537,184,c),
(352,417,l),
(457,466,o),
(521,542,o),
(521,617,cs),
(521,702,o),
(437,764,o),
(319,764,cs),
(190,764,o),
(104,691,o),
(104,581,cs),
(104,520,o),
(124,474,o),
(187,390,cs),
(207,363,l),
(92,311,o),
(28,237,o),
(28,157,cs),
(28,56,o),
(127,-14,o),
(267,-14,cs),
(344,-14,o),
(397,7,o),
(451,58,c),
(472,34,o),
(492,13,o),
(505,1,c),
(729,1,l),
(729,12,l)
);
}
);
width = 764;
}
);
leftKerningGroup = J;
unicode = 38;
},
{
glyphname = quotesingle;
layers = (
{
hints = (
{
horizontal = 1;
place = (764,-20);
target = down;
type = TopGhost;
},
{
place = (91,10);
type = Stem;
}
);
layerId = "4476E8FB-E1E7-4AA1-B35B-6BE7AD43F443";
shapes = (
{
closed = 1;
nodes = (
(58,764,o),
(31,739,o),
(31,706,cs),
(31,656,o),
(91,624,o),
(91,516,c),
(101,516,l),
(101,624,o),
(161,656,o),
(161,706,cs),
(161,739,o),
(133,764,o),
(95,764,cs)
);
}
);
width = 191;
}
);
leftKerningGroup = J;
unicode = 39;
},
{
glyphname = parenleft;
layers = (
{
hints = (
{
horizontal = 1;
place = (-155,1009);
type = Stem;
},
{
place = (30,165);
type = Stem;
}
);
layerId = "4476E8FB-E1E7-4AA1-B35B-6BE7AD43F443";
shapes = (
{
closed = 1;
nodes = (
(328,-148,l),
(251,-34,o),
(195,122,o),
(195,350,cs),
(195,577,o),
(251,733,o),
(328,847,c),
(322,854,l),
(191,771,o),
(30,605,o),
(30,350,cs),
(30,95,o),
(191,-72,o),
(322,-155,c)
);
}
);
width = 349;
}
);
leftKerningGroup = J;
unicode = 40;
},
{
glyphname = parenright;
layers = (
{
hints = (
{
horizontal = 1;
place = (-155,1009);
type = Stem;
},
{
place = (153,165);
type = Stem;
}
);
layerId = "4476E8FB-E1E7-4AA1-B35B-6BE7AD43F443";
shapes = (
{
closed = 1;
nodes = (
(26,-155,l),
(157,-72,o),
(318,95,o),
(318,350,cs),
(318,605,o),
(157,771,o),
(26,854,c),
(20,847,l),
(97,733,o),
(153,577,o),
(153,350,cs),
(153,122,o),
(97,-34,o),
(20,-148,c)
);
}
);
width = 349;
}
);
leftKerningGroup = J;
unicode = 41;
},
{
glyphname = asterisk;
layers = (
{
hints = (
{
horizontal = 1;
place = (522,185);
type = Stem;
},
{
horizontal = 1;
place = (764,-20);
target = down;
type = TopGhost;
},
{
place = (32,170);
type = Stem;
}
);
layerId = "4476E8FB-E1E7-4AA1-B35B-6BE7AD43F443";
shapes = (
{
closed = 1;
nodes = (
(289,702,o),
(279,708,o),
(268,708,cs),
(261,708,o),
(255,706,o),
(249,702,cs),
(227,689,o),
(221,653,o),
(171,622,c),
(173,681,o),
(202,703,o),
(202,730,cs),
(202,746,o),
(192,764,o),
(167,764,cs),
(142,764,o),
(132,746,o),
(132,730,cs),
(132,703,o),
(161,681,o),
(163,622,c),
(113,653,o),
(107,689,o),
(85,702,cs),
(79,705,o),
(72,707,o),
(66,707,cs),
(55,707,o),
(45,702,o),
(37,689,cs),
(25,668,o),
(35,650,o),
(49,642,cs),
(72,629,o),
(106,642,o),
(159,614,c),
(106,586,o),
(72,600,o),
(49,587,c),
(35,578,o),
(25,561,o),
(37,539,cs),
(44,526,o),
(55,521,o),
(66,521,cs),
(72,521,o),
(79,523,o),
(84,526,cs),
(107,539,o),
(113,575,o),
(163,607,c),
(161,548,o),
(132,525,o),
(132,498,cs),
(132,482,o),
(142,464,o),
(167,464,cs),
(192,464,o),
(202,482,o),
(202,499,cs),
(202,525,o),
(173,548,o),
(171,607,c),
(221,575,o),
(227,539,o),
(250,526,cs),
(255,523,o),
(262,521,o),
(268,521,cs),
(279,521,o),
(290,526,o),
(297,539,cs),
(310,561,o),
(299,578,o),
(285,587,c),
(262,600,o),
(227,586,o),
(174,614,c),
(227,642,o),
(262,628,o),
(285,642,cs),
(299,650,o),
(309,668,o),
(297,689,cs)
);
}
);
width = 334;
}
);
leftKerningGroup = J;
unicode = 42;
},
{
glyphname = plus;
layers = (
{
hints = (
{
horizontal = 1;
place = (334,10);
type = Stem;
},
{
place = (206,10);
type = Stem;
}
);
layerId = "4476E8FB-E1E7-4AA1-B35B-6BE7AD43F443";
shapes = (
{
closed = 1;
nodes = (
(216,344,l),
(216,504,l),
(206,504,l),
(206,344,l),
(46,344,l),
(46,334,l),
(206,334,l),
(206,174,l),
(216,174,l),
(216,334,l),
(376,334,l),
(376,344,l)
);
}
);
width = 421;
}
);
leftKerningGroup = J;
unicode = 43;
},
{
glyphname = comma;
layers = (
{
hints = (
{
horizontal = 1;
place = (-155,311);
type = Stem;
},
{
place = (128,62);
type = Stem;
}
);
layerId = "4476E8FB-E1E7-4AA1-B35B-6BE7AD43F443";
shapes = (
{
closed = 1;
nodes = (
(30,0,o),
(128,28,o),
(128,-30,cs),
(128,-74,o),
(91,-100,o),
(48,-151,c),
(57,-155,l),
(126,-79,o),
(190,-30,o),
(190,65,cs),
(190,120,o),
(158,156,o),
(109,156,cs),
(62,156,o),
(30,126,o),
(30,80,cs)
);
}
);
width = 220;
}
);
leftKerningGroup = comma;
unicode = 44;
},
{
glyphname = hyphen;
layers = (
{
hints = (
{
horizontal = 1;
place = (275,50);
type = Stem;
},
{
place = (29,250);
type = Stem;
}
);
layerId = "4476E8FB-E1E7-4AA1-B35B-6BE7AD43F443";
shapes = (
{
closed = 1;
nodes = (
(29,275,l),
(279,275,l),
(279,325,l),
(29,325,l)
);
}
);
width = 308;
}
);
leftKerningGroup = J;
unicode = 45;
},
{
glyphname = period;
layers = (
{
hints = (
{
horizontal = 1;
place = (-14,170);
type = Stem;
},
{
place = (40,170);
type = Stem;
}
);
layerId = "4476E8FB-E1E7-4AA1-B35B-6BE7AD43F443";
shapes = (
{
closed = 1;
nodes = (
(40,25,o),
(79,-14,o),
(125,-14,cs),
(171,-14,o),
(210,25,o),
(210,71,cs),
(210,118,o),
(171,156,o),
(125,156,cs),
(79,156,o),
(40,118,o),
(40,71,cs)
);
}
);
width = 250;
}
);
leftKerningGroup = comma;
unicode = 46;
},
{
glyphname = slash;
layers = (
{
hints = (
{
horizontal = 1;
place = (750,-20);
target = down;
type = TopGhost;
},
{
place = (11,232);
type = Stem;
}
);
layerId = "4476E8FB-E1E7-4AA1-B35B-6BE7AD43F443";
shapes = (
{
closed = 1;
nodes = (
(11,-200,l),
(24,-200,l),
(243,750,l),
(230,750,l)
);
}
);
width = 253;
}
);
leftKerningGroup = J;
unicode = 47;
},
{
glyphname = zero;
layers = (
{
hints = (
{
horizontal = 1;
place = (-14,15);
type = Stem;
},
{
horizontal = 1;
place = (751,13);
type = Stem;
},
{
place = (35,163);
type = Stem;
},
{
place = (459,163);
type = Stem;
}
);
layerId = "4476E8FB-E1E7-4AA1-B35B-6BE7AD43F443";
shapes = (
{
closed = 1;
nodes = (
(35,142,o),
(148,-14,o),
(329,-14,cs),
(509,-14,o),
(622,142,o),
(622,375,cs),
(622,608,o),
(509,764,o),
(329,764,cs),
(148,764,o),
(35,608,o),
(35,375,cs)
);
},
{
closed = 1;
nodes = (
(198,601,o),
(250,751,o),
(329,751,cs),
(407,751,o),
(459,601,o),
(459,376,cs),
(459,151,o),
(407,1,o),
(329,1,cs),
(250,1,o),
(198,150,o),
(198,376,cs)
);
}
);
width = 657;
}
);
leftKerningGroup = J;
unicode = 48;
},
{
glyphname = one;
layers = (
{
hints = (
{
horizontal = 1;
place = (0,10);
type = Stem;
},
{
horizontal = 1;
place = (602,13);
type = Stem;
},
{
place = (84,154);
type = Stem;
}
);
layerId = "4476E8FB-E1E7-4AA1-B35B-6BE7AD43F443";
shapes = (
{
closed = 1;
nodes = (
(318,10,l),
(270,10,o),
(238,42,o),
(238,90,cs),
(238,770,l),
(228,770,l),
(199,688,o),
(113,624,o),
(13,616,cs),
(-12,614,l),
(-12,602,l),
(86,597,o),
(84,572,o),
(84,468,cs),
(84,90,ls),
(84,42,o),
(52,10,o),
(4,10,c),
(3,10,l),
(3,0,l),
(319,0,l),
(319,10,l)
);
}
);
width = 326;
}
);
leftKerningGroup = J;
unicode = 49;
},
{
glyphname = two;
layers = (
{
hints = (
{
horizontal = 1;
place = (0,132);
type = Stem;
},
{
horizontal = 1;
place = (749,-20);
target = down;
type = TopGhost;
},
{
horizontal = 1;
place = (751,13);
type = Stem;
},
{
place = (308,155);
type = Stem;
}
);
layerId = "4476E8FB-E1E7-4AA1-B35B-6BE7AD43F443";
shapes = (
{
closed = 1;
nodes = (
(434,0,l),
(471,224,l),
(461,224,l),
(450,142,o),
(436,132,o),
(339,132,cs),
(94,132,l),
(289,314,o),
(463,450,o),
(463,594,cs),
(463,687,o),
(380,764,o),
(242,764,cs),
(182,764,o),
(120,749,o),
(66,749,c),
(34,541,l),
(44,541,l),
(63,657,o),
(147,751,o),
(219,751,cs),
(273,751,o),
(308,697,o),
(308,621,cs),
(308,477,o),
(163,264,o),
(-7,10,c),
(-7,0,l)
);
}
);
width = 504;
}
);
leftKerningGroup = J;
unicode = 50;
},
{
glyphname = three;
layers = (
{
hints = (
{
horizontal = 1;
place = (-14,15);
type = Stem;
},
{
horizontal = 1;
place = (0,21);
target = up;
type = BottomGhost;
},
{
horizontal = 1;
place = (427,51);
type = Stem;
},
{
horizontal = 1;
place = (750,-20);
target = down;
type = TopGhost;
},
{
horizontal = 1;
place = (750,14);
type = Stem;
},
{
place = (283,149);
type = Stem;
},
{
place = (347,144);
type = Stem;
}
);
layerId = "4476E8FB-E1E7-4AA1-B35B-6BE7AD43F443";
shapes = (
{
closed = 1;
nodes = (
(491,394,o),
(398,488,o),
(271,478,c),
(366,513,o),
(432,578,o),
(432,640,cs),
(432,714,o),
(354,764,o),
(241,764,cs),
(176,764,o),
(138,750,o),
(72,750,c),
(40,541,l),
(50,541,l),
(68,670,o),
(140,750,o),
(224,750,cs),
(263,750,o),
(283,723,o),
(283,659,cs),
(283,564,o),
(239,489,o),
(139,414,c),
(139,404,l),
(169,420,o),
(197,427,o),
(222,427,cs),
(297,427,o),
(347,358,o),
(347,236,cs),
(347,95,o),
(279,1,o),
(199,1,cs),
(119,1,o),
(48,89,o),
(31,224,c),
(21,224,l),
(53,0,l),
(116,0,o),
(152,-14,o),
(215,-14,cs),
(376,-14,o),
(491,89,o),
(491,243,cs)
);
}
);
width = 534;
}
);
leftKerningGroup = J;
unicode = 51;
},
{
glyphname = four;
layers = (
{
hints = (
{
horizontal = 1;
place = (1,10);
type = Stem;
},
{
horizontal = 1;
place = (167,125);
type = Stem;
},
{
place = (296,151);
type = Stem;
}
);
layerId = "4476E8FB-E1E7-4AA1-B35B-6BE7AD43F443";
shapes = (
{
closed = 1;
nodes = (
(100,292,l),
(296,562,l),
(296,292,l)
);
},
{
closed = 1;
nodes = (
(5,167,l),
(296,167,l),
(296,88,l),
(295,42,o),
(263,11,o),
(216,11,c),
(214,1,l),
(296,1,l),
(296,0,l),
(447,0,l),
(447,1,l),
(530,1,l),
(528,11,l),
(527,11,l),
(479,11,o),
(447,43,o),
(447,91,cs),
(447,167,l),
(562,167,l),
(562,292,l),
(447,292,l),
(447,770,l),
(437,770,l),
(5,176,l)
);
}
);
width = 601;
}
);
leftKerningGroup = J;
unicode = 52;
},
{
glyphname = five;
layers = (
{
hints = (
{
horizontal = 1;
place = (-14,15);
type = Stem;
},
{
horizontal = 1;
place = (0,21);
target = up;
type = BottomGhost;
},
{
horizontal = 1;
place = (373,82);
type = Stem;
},
{
horizontal = 1;
place = (465,16);
type = Stem;
},
{
horizontal = 1;
place = (580,119);
type = Stem;
},
{
place = (358,147);
type = Stem;
}
);
layerId = "4476E8FB-E1E7-4AA1-B35B-6BE7AD43F443";
shapes = (
{
closed = 1;
nodes = (
(60,0,l),
(118,0,o),
(162,-14,o),
(225,-14,cs),
(393,-14,o),
(505,87,o),
(505,240,cs),
(505,385,o),
(404,481,o),
(250,481,cs),
(170,481,o),
(105,455,o),
(73,455,c),
(91,600,l),
(123,586,o),
(156,580,o),
(189,580,cs),
(294,580,o),
(401,645,o),
(476,760,c),
(476,771,l),
(427,723,o),
(365,699,o),
(300,699,cs),
(233,699,o),
(163,724,o),
(99,772,c),
(50,373,l),
(58,373,l),
(93,428,o),
(154,465,o),
(210,465,cs),
(298,465,o),
(358,373,o),
(358,237,cs),
(358,98,o),
(296,1,o),
(207,1,cs),
(123,1,o),
(55,90,o),
(38,224,c),
(28,224,l)
);
}
);
width = 547;
}
);
leftKerningGroup = J;
unicode = 53;
},
{
glyphname = six;
layers = (
{
hints = (
{
horizontal = 1;
place = (-14,14);
type = Stem;
},
{
horizontal = 1;
place = (437,44);
type = Stem;
},
{
horizontal = 1;
place = (750,-20);
target = down;
type = TopGhost;
},
{
horizontal = 1;
place = (750,14);
type = Stem;
},
{
place = (39,162);
type = Stem;
},
{
place = (442,144);
type = Stem;
}
);
layerId = "4476E8FB-E1E7-4AA1-B35B-6BE7AD43F443";
shapes = (
{
closed = 1;
nodes = (
(442,100,o),
(389,0,o),
(324,0,cs),
(249,0,o),
(201,132,o),
(201,334,c),
(201,334,o),
(201,361,o),
(202,387,c),
(228,417,o),
(270,437,o),
(307,437,cs),
(385,437,o),
(442,346,o),
(442,221,cs)
);
},
{
closed = 1;
nodes = (
(586,388,o),
(503,481,o),
(378,481,cs),
(307,481,o),
(238,452,o),
(202,407,c),
(207,614,o),
(279,750,o),
(374,750,cs),
(456,750,o),
(530,665,o),
(544,541,c),
(554,541,l),
(528,750,l),
(466,750,o),
(395,764,o),
(341,764,cs),
(161,764,o),
(39,604,o),
(39,367,cs),
(39,136,o),
(155,-14,o),
(336,-14,cs),
(486,-14,o),
(586,90,o),
(586,246,cs)
);
}
);
width = 622;
}
);
leftKerningGroup = J;
unicode = 54;
},
{
glyphname = seven;
layers = (
{
hints = (
{
horizontal = 1;
place = (0,21);
target = up;
type = BottomGhost;
},
{
horizontal = 1;
place = (618,132);
type = Stem;
},
{
place = (138,149);
type = Stem;
}
);
layerId = "4476E8FB-E1E7-4AA1-B35B-6BE7AD43F443";
shapes = (
{
closed = 1;
nodes = (
(51,750,l),
(23,541,l),
(33,541,l),
(43,625,o),
(66,616,o),
(213,617,cs),
(413,619,l),
(245,466,o),
(138,219,o),
(138,0,c),
(287,0,l),
(287,291,o),
(379,587,o),
(517,740,c),
(517,750,l)
);
}
);
width = 505;
}
);
leftKerningGroup = J;
unicode = 55;
},
{
glyphname = eight;
layers = (
{
hints = (
{
horizontal = 1;
place = (-14,16);
type = Stem;
},
{
horizontal = 1;
place = (477,13);
type = Stem;
},
{
horizontal = 1;
place = (754,10);
type = Stem;
},
{
place = (35,158);
type = Stem;
},
{
place = (74,161);
type = Stem;
},
{
place = (385,161);
type = Stem;
},
{
place = (427,158);
type = Stem;
}
);
layerId = "4476E8FB-E1E7-4AA1-B35B-6BE7AD43F443";
shapes = (
{
closed = 1;
nodes = (
(193,385,o),
(240,477,o),
(310,477,cs),
(380,477,o),
(427,385,o),
(427,246,cs),
(427,100,o),
(380,2,o),
(310,2,cs),
(240,2,o),
(193,100,o),
(193,246,cs)
);
},
{
closed = 1;
nodes = (
(235,702,o),
(265,754,o),
(310,754,cs),
(355,754,o),
(385,702,o),
(385,624,cs),
(385,544,o),
(355,490,o),
(310,490,cs),
(265,490,o),
(235,544,o),
(235,625,cs)
);
},
{
closed = 1;
nodes = (
(35,86,o),
(145,-14,o),
(310,-14,cs),
(475,-14,o),
(585,86,o),
(585,235,cs),
(585,371,o),
(495,466,o),
(357,483,c),
(472,494,o),
(546,548,o),
(546,623,cs),
(546,708,o),
(452,764,o),
(310,764,cs),
(168,764,o),
(74,708,o),
(74,624,cs),
(74,548,o),
(148,494,o),
(263,483,c),
(125,466,o),
(35,371,o),
(35,236,cs)
);
}
);
width = 620;
}
);
leftKerningGroup = J;
unicode = 56;
},
{
glyphname = nine;
layers = (
{
hints = (
{
horizontal = 1;
place = (-14,14);
type = Stem;
},
{
horizontal = 1;
place = (0,21);
target = up;
type = BottomGhost;
},
{
horizontal = 1;
place = (269,44);
type = Stem;
},
{
horizontal = 1;
place = (750,14);
type = Stem;
},
{
place = (34,145);
type = Stem;
},
{
place = (421,162);
type = Stem;
}
);
layerId = "4476E8FB-E1E7-4AA1-B35B-6BE7AD43F443";
shapes = (
{
closed = 1;
nodes = (
(179,659,o),
(226,750,o),
(293,750,cs),
(372,750,o),
(421,621,o),
(421,416,c),
(421,416,o),
(421,389,o),
(420,363,c),
(394,333,o),
(352,313,o),
(314,313,cs),
(233,313,o),
(179,401,o),
(179,534,cs)
);
},
{
closed = 1;
nodes = (
(34,362,o),
(118,269,o),
(244,269,cs),
(315,269,o),
(384,298,o),
(420,343,c),
(415,136,o),
(343,0,o),
(248,0,cs),
(166,0,o),
(95,85,o),
(81,209,c),
(68,209,l),
(94,0,l),
(156,0,o),
(227,-14,o),
(281,-14,cs),
(464,-14,o),
(583,145,o),
(583,389,cs),
(583,623,o),
(474,764,o),
(294,764,cs),
(138,764,o),
(34,660,o),
(34,503,cs)
);
}
);
width = 622;
}
);
leftKerningGroup = J;
unicode = 57;
},
{
glyphname = colon;
layers = (
{
hints = (
{
horizontal = 1;
place = (-14,170);
type = Stem;
},
{
horizontal = 1;
place = (342,170);
type = Stem;
},
{
place = (30,170);
type = Stem;
}
);
layerId = "4476E8FB-E1E7-4AA1-B35B-6BE7AD43F443";
shapes = (
{
closed = 1;
nodes = (
(30,25,o),
(69,-14,o),
(115,-14,cs),
(161,-14,o),
(200,25,o),
(200,71,cs),
(200,118,o),
(161,156,o),
(115,156,cs),
(69,156,o),
(30,118,o),
(30,71,cs)
);
},
{
closed = 1;
nodes = (
(30,381,o),
(69,342,o),
(115,342,cs),
(161,342,o),
(200,381,o),
(200,427,cs),
(200,474,o),
(161,512,o),
(115,512,cs),
(69,512,o),
(30,474,o),
(30,427,cs)
);
}
);
width = 230;
}
);
leftKerningGroup = J;
unicode = 58;
},
{
glyphname = semicolon;
layers = (
{
hints = (
{
horizontal = 1;
place = (342,170);
type = Stem;
},
{
place = (30,170);
type = Stem;
},
{
place = (133,62);
type = Stem;
}
);
layerId = "4476E8FB-E1E7-4AA1-B35B-6BE7AD43F443";
shapes = (
{
closed = 1;
nodes = (
(30,381,o),
(69,342,o),
(115,342,cs),
(161,342,o),
(200,381,o),
(200,427,cs),
(200,474,o),
(161,512,o),
(115,512,cs),
(69,512,o),
(30,474,o),
(30,427,cs)
);
},
{
closed = 1;
nodes = (
(35,0,o),
(133,28,o),
(133,-30,cs),
(133,-74,o),
(96,-100,o),
(53,-151,c),
(62,-155,l),
(131,-79,o),
(195,-30,o),
(195,65,cs),
(195,120,o),
(162,156,o),
(113,156,cs),
(66,156,o),
(35,126,o),
(35,80,cs)
);
}
);
width = 230;
}
);
leftKerningGroup = J;
unicode = 59;
},
{
glyphname = less;
layers = (
{
hints = (
{
horizontal = 1;
place = (174,331);
type = Stem;
},
{
place = (46,268);
type = Stem;
}
);
layerId = "4476E8FB-E1E7-4AA1-B35B-6BE7AD43F443";
shapes = (
{
closed = 1;
nodes = (
(46,342,l),
(46,336,l),
(314,174,l),
(314,188,l),
(66,339,l),
(314,491,l),
(314,505,l)
);
}
);
width = 364;
}
);
leftKerningGroup = J;
unicode = 60;
},
{
glyphname = equal;
layers = (
{
hints = (
{
horizontal = 1;
place = (281,10);
type = Stem;
},
{
horizontal = 1;
place = (387,10);
type = Stem;
},
{
place = (45,330);
type = Stem;
}
);
layerId = "4476E8FB-E1E7-4AA1-B35B-6BE7AD43F443";
shapes = (
{
closed = 1;
nodes = (
(375,281,l),
(375,291,l),
(45,291,l),
(45,281,l)
);
},
{
closed = 1;
nodes = (
(375,387,l),
(375,397,l),
(45,397,l),
(45,387,l)
);
}
);
width = 420;
}
);
leftKerningGroup = J;
unicode = 61;
},
{
glyphname = greater;
layers = (
{
hints = (
{
horizontal = 1;
place = (174,331);
type = Stem;
},
{
place = (51,268);
type = Stem;
}
);
layerId = "4476E8FB-E1E7-4AA1-B35B-6BE7AD43F443";
shapes = (
{
closed = 1;
nodes = (
(319,342,l),
(51,505,l),
(51,491,l),
(299,339,l),
(51,188,l),
(51,174,l),
(319,336,l)
);
}
);
width = 364;
}
);
leftKerningGroup = J;
unicode = 62;
},
{
glyphname = question;
layers = (
{
hints = (
{
horizontal = 1;
place = (-14,170);
type = Stem;
},
{
horizontal = 1;
place = (750,14);
type = Stem;
},
{
place = (98,170);
type = Stem;
},
{
place = (177,10);
type = Stem;
},
{
place = (258,158);
type = Stem;
}
);
layerId = "4476E8FB-E1E7-4AA1-B35B-6BE7AD43F443";
shapes = (
{
closed = 1;
nodes = (
(98,25,o),
(137,-14,o),
(183,-14,cs),
(229,-14,o),
(268,25,o),
(268,71,cs),
(268,118,o),
(229,156,o),
(183,156,cs),
(137,156,o),
(98,118,o),
(98,71,cs)
);
},
{
closed = 1;
nodes = (
(187,271,l),
(187,381,o),
(222,433,o),
(273,476,cs),
(309,506,o),
(416,563,o),
(416,643,cs),
(416,716,o),
(343,764,o),
(212,764,cs),
(156,764,o),
(121,750,o),
(63,750,c),
(30,498,l),
(40,498,l),
(63,653,o),
(112,750,o),
(191,750,cs),
(242,750,o),
(258,726,o),
(258,670,cs),
(258,627,o),
(246,561,o),
(222,512,cs),
(201,469,o),
(177,414,o),
(177,271,c)
);
}
);
width = 446;
}
);
leftKerningGroup = J;
unicode = 63;
},
{
glyphname = at;
layers = (
{
hints = (
{
horizontal = 1;
place = (-147,31);
type = Stem;
},
{
horizontal = 1;
place = (64,58);
type = Stem;
},
{
horizontal = 1;
place = (65,16);
type = Stem;
},
{
horizontal = 1;
place = (488,16);
type = Stem;
},
{
horizontal = 1;
place = (694,15);
type = Stem;
},
{
place = (33,119);
type = Stem;
},
{
place = (247,135);
type = Stem;
},
{
place = (546,123);
type = Stem;
},
{
place = (840,105);
type = Stem;
}
);
layerId = "4476E8FB-E1E7-4AA1-B35B-6BE7AD43F443";
shapes = (
{
closed = 1;
nodes = (
(567,302,ls),
(545,196,o),
(493,122,o),
(442,122,cs),
(401,122,o),
(376,168,o),
(382,262,cs),
(390,400,o),
(454,491,o),
(539,488,cs),
(579,487,o),
(602,467,o),
(596,439,cs)
);
},
{
closed = 1;
nodes = (
(540,119,o),
(609,65,o),
(717,65,cs),
(726,65,ls),
(853,65,o),
(941,172,o),
(945,333,cs),
(950,557,o),
(789,707,o),
(540,709,cs),
(253,712,o),
(38,516,o),
(33,246,cs),
(29,10,o),
(185,-145,o),
(430,-147,c),
(435,-147,ls),
(556,-147,o),
(683,-109,o),
(752,-51,c),
(745,-43,l),
(683,-86,o),
(577,-116,o),
(484,-116,cs),
(479,-116,l),
(276,-114,o),
(148,33,o),
(152,258,cs),
(157,510,o),
(323,697,o),
(539,694,cs),
(728,692,o),
(845,544,o),
(840,313,cs),
(838,248,o),
(818,78,o),
(724,81,c),
(673,81,o),
(658,124,o),
(677,214,cs),
(738,499,l),
(728,499,l),
(721,480,o),
(710,471,o),
(688,471,cs),
(672,471,o),
(649,476,o),
(616,485,cs),
(585,493,o),
(555,503,o),
(513,504,cs),
(365,507,o),
(255,398,o),
(247,241,cs),
(241,130,o),
(292,64,o),
(369,64,cs),
(437,64,o),
(504,116,o),
(546,201,c)
);
}
);
width = 979;
}
);
leftKerningGroup = J;
unicode = 64;
},
{
glyphname = A;
layers = (
{
hints = (
{
horizontal = 1;
place = (0,10);
type = Stem;
},
{
horizontal = 1;
place = (263,13);
type = Stem;
},
{
horizontal = 1;
place = (765,-20);
target = down;
type = TopGhost;
},
{
place = (-24,111);
type = Stem;
}
);
layerId = "4476E8FB-E1E7-4AA1-B35B-6BE7AD43F443";
shapes = (
{
closed = 1;
nodes = (
(155,276,l),
(272,564,l),
(386,276,l)
);
},
{
closed = 1;
nodes = (
(77,119,ls),
(55,66,o),
(13,13,o),
(-24,10,c),
(-24,0,l),
(171,0,l),
(171,10,l),
(105,13,o),
(70,66,o),
(94,124,cs),
(150,263,l),
(391,263,l),
(451,114,ls),
(477,49,o),
(455,10,o),
(395,10,cs),
(391,10,l),
(391,0,l),
(711,0,l),
(711,10,l),
(708,10,ls),
(673,10,o),
(639,48,o),
(610,119,cs),
(350,765,l),
(341,765,l)
);
}
);
width = 684;
}
);
leftKerningGroup = A2;
rightKerningGroup = A;
unicode = 65;
},
{
glyphname = B;
layers = (
{
hints = (
{
horizontal = 1;
place = (0,13);
type = Stem;
},
{
horizontal = 1;
place = (422,15);
type = Stem;
},
{
horizontal = 1;
place = (737,13);
type = Stem;
},
{
horizontal = 1;
place = (740,10);
type = Stem;
},
{
place = (81,154);
type = Stem;
},
{
place = (411,152);
type = Stem;
},
{
place = (472,160);
type = Stem;
}
);
layerId = "4476E8FB-E1E7-4AA1-B35B-6BE7AD43F443";
shapes = (
{
closed = 1;
nodes = (
(259,13,o),
(235,35,o),
(235,84,cs),
(235,422,l),
(297,422,ls),
(402,422,o),
(472,341,o),
(472,220,cs),
(472,94,o),
(409,13,o),
(311,13,cs)
);
},
{
closed = 1;
nodes = (
(235,737,l),
(297,737,ls),
(365,737,o),
(411,677,o),
(411,586,cs),
(411,496,o),
(365,437,o),
(297,437,cs),
(235,437,l)
);
},
{
closed = 1;
nodes = (
(311,0,ls),
(503,0,o),
(632,93,o),
(632,232,cs),
(632,344,o),
(533,423,o),
(384,430,c),
(491,444,o),
(563,505,o),
(563,582,cs),
(563,683,o),
(457,750,o),
(297,750,cs),
(0,750,l),
(0,740,l),
(1,740,l),
(47,740,o),
(78,711,o),
(81,666,c),
(81,84,ls),
(81,40,o),
(48,10,o),
(1,10,c),
(0,10,l),
(0,0,l)
);
}
);
width = 657;
}
);
leftKerningGroup = B;
unicode = 66;
},
{
glyphname = C;
layers = (
{
hints = (
{
horizontal = 1;
place = (-14,16);
type = Stem;
},
{
horizontal = 1;
place = (751,13);
type = Stem;
},
{
place = (37,170);
type = Stem;
}
);
layerId = "4476E8FB-E1E7-4AA1-B35B-6BE7AD43F443";
shapes = (
{
closed = 1;
nodes = (
(684,748,l),
(585,748,o),
(570,764,o),
(483,764,cs),
(212,764,o),
(37,612,o),
(37,376,cs),
(37,142,o),
(211,-14,o),
(472,-14,cs),
(560,-14,o),
(603,4,o),
(700,4,c),
(729,220,l),
(719,220,l),
(699,84,o),
(610,2,o),
(483,2,cs),
(315,2,o),
(207,146,o),
(207,369,cs),
(207,594,o),
(316,751,o),
(472,751,cs),
(586,751,o),
(681,668,o),
(704,548,c),
(714,548,l)
);
}
);
width = 742;
}
);
leftKerningGroup = C;
unicode = 67;
},
{
glyphname = D;
layers = (
{
hints = (
{
horizontal = 1;
place = (0,10);
type = Stem;
},
{
horizontal = 1;
place = (0,13);
type = Stem;
},
{
horizontal = 1;
place = (736,14);
type = Stem;
},
{
horizontal = 1;
place = (740,10);
type = Stem;
},
{
place = (81,154);
type = Stem;
},
{
place = (620,170);
type = Stem;
}
);
layerId = "4476E8FB-E1E7-4AA1-B35B-6BE7AD43F443";
shapes = (
{
closed = 1;
nodes = (
(305,13,ls),
(253,13,o),
(235,42,o),
(235,84,cs),
(235,736,l),
(323,736,ls),
(502,736,o),
(620,612,o),
(620,376,cs),
(620,139,o),
(502,13,o),
(323,13,cs)
);
},
{
closed = 1;
nodes = (
(323,0,ls),
(605,0,o),
(790,130,o),
(790,374,cs),
(790,620,o),
(605,750,o),
(323,750,cs),
(1,750,l),
(1,740,l),
(47,740,o),
(81,710,o),
(81,665,cs),
(81,84,ls),
(81,39,o),
(49,10,o),
(0,10,c),
(0,0,l)
);
}
);
width = 827;
}
);
leftKerningGroup = B;
rightKerningGroup = D;
unicode = 68;
},
{
glyphname = E;
layers = (
{
hints = (
{
horizontal = 1;
place = (0,10);
type = Stem;
},
{
horizontal = 1;
place = (0,13);
type = Stem;
},
{
horizontal = 1;
place = (435,13);
type = Stem;
},
{
horizontal = 1;
place = (737,13);
type = Stem;
},
{
horizontal = 1;
place = (740,10);
type = Stem;
},
{
place = (90,154);
type = Stem;
},
{
place = (444,10);
type = Stem;
}
);
layerId = "4476E8FB-E1E7-4AA1-B35B-6BE7AD43F443";
shapes = (
{
closed = 1;
nodes = (
(314,13,ls),
(267,13,o),
(244,37,o),
(244,84,cs),
(244,435,l),
(323,435,ls),
(395,435,o),
(443,385,o),
(444,313,c),
(454,313,l),
(454,559,l),
(444,559,l),
(444,493,o),
(400,448,o),
(334,448,cs),
(244,448,l),
(244,737,l),
(328,737,ls),
(466,737,o),
(545,674,o),
(565,549,c),
(575,549,l),
(545,750,l),
(9,750,l),
(10,740,l),
(58,740,o),
(90,708,o),
(90,660,cs),
(90,84,ls),
(90,36,o),
(58,10,o),
(10,10,c),
(9,10,l),
(8,0,l),
(563,0,l),
(593,220,l),
(583,220,l),
(562,78,o),
(484,13,o),
(356,13,cs)
);
}
);
width = 606;
}
);
leftKerningGroup = B;
rightKerningGroup = E;
unicode = 69;
},
{
glyphname = F;
layers = (
{
hints = (
{
horizontal = 1;
place = (0,10);
type = Stem;
},
{
horizontal = 1;
place = (423,13);
type = Stem;
},
{
horizontal = 1;
place = (737,13);
type = Stem;
},
{
horizontal = 1;
place = (740,10);
type = Stem;
},
{
place = (85,154);
type = Stem;
},
{
place = (427,10);
type = Stem;
}
);
layerId = "4476E8FB-E1E7-4AA1-B35B-6BE7AD43F443";
shapes = (
{
closed = 1;
nodes = (
(319,10,l),
(274,10,o),
(239,38,o),
(239,82,cs),
(239,423,l),
(307,423,ls),
(379,423,o),
(427,371,o),
(427,299,c),
(437,299,l),
(437,549,l),
(427,549,l),
(427,483,o),
(383,436,o),
(317,436,cs),
(239,436,l),
(239,737,l),
(322,737,ls),
(460,737,o),
(540,673,o),
(560,548,c),
(569,548,l),
(539,750,l),
(4,750,l),
(5,740,l),
(53,740,o),
(85,708,o),
(85,660,cs),
(85,90,ls),
(85,42,o),
(53,10,o),
(5,10,cs),
(2,10,l),
(0,0,l),
(320,0,l)
);
}
);
width = 569;
}
);
leftKerningGroup = B;
unicode = 70;
},
{
glyphname = G;
layers = (
{
hints = (
{
horizontal = 1;
place = (-14,16);
type = Stem;
},
{
horizontal = 1;
place = (386,10);
type = Stem;
},
{
horizontal = 1;
place = (751,13);
type = Stem;
},
{
place = (37,171);
type = Stem;
},
{
place = (586,155);
type = Stem;
}
);
layerId = "4476E8FB-E1E7-4AA1-B35B-6BE7AD43F443";
shapes = (
{
closed = 1;
nodes = (
(585,751,o),
(675,674,o),
(698,548,c),
(708,548,l),
(678,748,l),
(579,748,o),
(569,764,o),
(462,764,cs),
(207,764,o),
(37,609,o),
(37,377,cs),
(37,137,o),
(205,-14,o),
(471,-14,cs),
(588,-14,o),
(704,14,o),
(741,51,c),
(741,306,ls),
(741,354,o),
(773,386,o),
(821,386,cs),
(825,386,l),
(825,396,l),
(503,396,l),
(503,386,l),
(506,386,ls),
(554,386,o),
(586,354,o),
(586,306,cs),
(586,51,l),
(560,23,o),
(504,2,o),
(450,2,cs),
(303,2,o),
(208,151,o),
(208,378,cs),
(208,602,o),
(310,751,o),
(462,751,cs)
);
}
);
width = 825;
}
);
leftKerningGroup = C;
unicode = 71;
},
{
glyphname = H;
layers = (
{
hints = (
{
horizontal = 1;
place = (0,10);
type = Stem;
},
{
horizontal = 1;
place = (414,14);
type = Stem;
},
{
horizontal = 1;
place = (740,10);
type = Stem;
},
{
place = (84,154);
type = Stem;
},
{
place = (568,154);
type = Stem;
}
);
layerId = "4476E8FB-E1E7-4AA1-B35B-6BE7AD43F443";
shapes = (
{
closed = 1;
nodes = (
(238,428,l),
(238,660,ls),
(238,708,o),
(270,740,o),
(318,740,cs),
(320,740,l),
(320,750,l),
(0,750,l),
(0,740,l),
(4,740,ls),
(52,740,o),
(84,708,o),
(84,660,cs),
(84,90,ls),
(84,42,o),
(52,10,o),
(4,10,cs),
(0,10,l),
(0,0,l),
(320,0,l),
(320,10,l),
(318,10,ls),
(270,10,o),
(238,42,o),
(238,90,cs),
(238,414,l),
(568,414,l),
(568,90,ls),
(568,42,o),
(536,10,o),
(488,10,cs),
(485,10,l),
(485,0,l),
(805,0,l),
(805,10,l),
(802,10,ls),
(754,10,o),
(722,42,o),
(722,90,cs),
(722,660,ls),
(722,708,o),
(754,740,o),
(802,740,cs),
(805,740,l),
(805,750,l),
(485,750,l),
(485,740,l),
(488,740,ls),
(536,740,o),
(568,708,o),
(568,660,cs),
(568,428,l)
);
}
);
width = 805;
}
);
leftKerningGroup = H2;
rightKerningGroup = H;
unicode = 72;
},
{
glyphname = I;
layers = (
{
hints = (
{
horizontal = 1;
place = (0,10);
type = Stem;
},
{
horizontal = 1;
place = (740,10);
type = Stem;
},
{
place = (81,155);
type = Stem;
}
);
layerId = "4476E8FB-E1E7-4AA1-B35B-6BE7AD43F443";
shapes = (
{
closed = 1;
nodes = (
(316,10,l),
(268,10,o),
(236,42,o),
(236,90,cs),
(236,660,ls),
(236,708,o),
(268,740,o),
(316,740,c),
(317,740,l),
(317,750,l),
(0,750,l),
(0,740,l),
(1,740,l),
(49,740,o),
(81,708,o),
(81,660,cs),
(81,90,ls),
(81,42,o),
(49,10,o),
(1,10,c),
(0,10,l),
(0,0,l),
(317,0,l),
(317,10,l)
);
}
);
width = 317;
}
);
leftKerningGroup = H2;
rightKerningGroup = H;
unicode = 73;
},
{
glyphname = J;
layers = (
{
hints = (
{
horizontal = 1;
place = (-187,9);
type = Stem;
},
{
horizontal = 1;
place = (740,10);
type = Stem;
},
{
place = (82,151);
type = Stem;
}
);
layerId = "4476E8FB-E1E7-4AA1-B35B-6BE7AD43F443";
shapes = (
{
closed = 1;
nodes = (
(233,660,ls),
(233,708,o),
(265,740,o),
(313,740,c),
(314,740,l),
(314,750,l),
(0,750,l),
(0,740,l),
(2,740,ls),
(50,740,o),
(82,708,o),
(82,660,cs),
(82,62,ls),
(82,-77,o),
(45,-173,o),
(-10,-178,c),
(-9,-187,l),
(136,-174,o),
(233,-74,o),
(233,62,cs)
);
}
);
width = 314;
}
);
leftKerningGroup = J;
unicode = 74;
},
{
glyphname = K;
layers = (
{
hints = (
{
horizontal = 1;
place = (0,10);
type = Stem;
},
{
horizontal = 1;
place = (740,10);
type = Stem;
},
{
place = (84,139);
type = Stem;
},
{
place = (520,165);
type = Stem;
}
);
layerId = "4476E8FB-E1E7-4AA1-B35B-6BE7AD43F443";
shapes = (
{
closed = 1;
nodes = (
(474,740,l),
(535,740,o),
(533,693,o),
(479,644,cs),
(223,412,l),
(223,660,ls),
(223,708,o),
(255,740,o),
(303,740,cs),
(307,740,l),
(307,750,l),
(0,750,l),
(0,740,l),
(4,740,ls),
(52,740,o),
(84,708,o),
(84,660,cs),
(84,90,ls),
(84,42,o),
(52,10,o),
(4,10,cs),
(0,10,l),
(0,0,l),
(307,0,l),
(307,10,l),
(303,10,ls),
(255,10,o),
(223,42,o),
(223,90,cs),
(223,407,l),
(505,69,ls),
(534,34,o),
(520,10,o),
(464,10,c),
(464,0,l),
(760,0,l),
(760,10,l),
(734,10,o),
(704,31,o),
(680,60,cs),
(325,486,l),
(537,681,ls),
(573,714,o),
(649,738,o),
(685,740,c),
(685,750,l),
(473,750,l),
(473,740,l)
);
}
);
width = 733;
}
);
leftKerningGroup = B;
unicode = 75;
},
{
glyphname = L;
layers = (
{
hints = (
{
horizontal = 1;
place = (0,10);
type = Stem;
},
{
horizontal = 1;
place = (0,13);
type = Stem;
},
{
horizontal = 1;
place = (740,10);
type = Stem;
},
{
place = (81,154);
type = Stem;
}
);
layerId = "4476E8FB-E1E7-4AA1-B35B-6BE7AD43F443";
shapes = (
{
closed = 1;
nodes = (
(305,13,ls),
(253,13,o),
(235,38,o),
(235,80,cs),
(235,660,ls),
(235,708,o),
(267,740,o),
(315,740,cs),
(319,740,l),
(319,750,l),
(0,750,l),
(0,740,l),
(1,740,l),
(49,740,o),
(81,708,o),
(81,660,cs),
(81,84,ls),
(81,36,o),
(49,10,o),
(1,10,c),
(0,10,l),
(0,0,l),
(533,0,l),
(563,223,l),
(553,223,l),
(532,91,o),
(444,13,o),
(326,13,cs)
);
}
);
width = 569;
}
);
leftKerningGroup = B;
unicode = 76;
},
{
glyphname = M;
layers = (
{
hints = (
{
horizontal = 1;
place = (0,9);
type = Stem;
},
{
horizontal = 1;
place = (-14,21);
target = up;
type = BottomGhost;
},
{
horizontal = 1;
place = (740,10);
type = Stem;
},
{
place = (-27,1002);
type = Stem;
}
);
layerId = "4476E8FB-E1E7-4AA1-B35B-6BE7AD43F443";
shapes = (
{
closed = 1;
nodes = (
(911,750,l),
(724,750,l),
(480,185,l),
(236,750,l),
(-4,750,l),
(-4,740,l),
(56,740,o),
(92,708,o),
(117,656,c),
(67,103,ls),
(62,51,o),
(23,13,o),
(-27,10,c),
(-27,0,l),
(173,0,l),
(173,10,l),
(123,13,o),
(79,49,o),
(84,102,cs),
(131,628,l),
(411,-14,l),
(689,627,l),
(738,75,ls),
(742,34,o),
(700,9,o),
(665,9,c),
(665,0,l),
(975,0,l),
(975,9,l),
(937,9,o),
(892,35,o),
(888,77,cs),
(837,669,l),
(834,713,o),
(868,740,o),
(911,740,c)
);
}
);
width = 950;
}
);
leftKerningGroup = J;
unicode = 77;
},
{
glyphname = N;
layers = (
{
hints = (
{
horizontal = 1;
place = (0,10);
type = Stem;
},
{
horizontal = 1;
place = (-14,21);
target = up;
type = BottomGhost;
},
{
horizontal = 1;
place = (740,10);
type = Stem;
},
{
place = (91,17);
type = Stem;
},
{
place = (646,17);
type = Stem;
}
);
layerId = "4476E8FB-E1E7-4AA1-B35B-6BE7AD43F443";
shapes = (
{
closed = 1;
nodes = (
(663,-14,l),
(663,635,ls),
(663,692,o),
(701,740,o),
(758,740,c),
(758,750,l),
(551,750,l),
(551,740,l),
(608,740,o),
(646,692,o),
(646,635,cs),
(646,243,l),
(253,750,l),
(-4,750,l),
(-4,740,l),
(28,737,o),
(62,723,o),
(91,701,c),
(91,116,ls),
(91,58,o),
(53,10,o),
(-5,10,c),
(-5,0,l),
(203,0,l),
(203,10,l),
(146,10,o),
(108,58,o),
(108,115,cs),
(108,687,l),
(117,679,o),
(130,666,o),
(139,654,cs)
);
}
);
width = 749;
}
);
leftKerningGroup = N2;
rightKerningGroup = N;
unicode = 78;
},
{
glyphname = O;
layers = (
{
hints = (
{
horizontal = 1;
place = (-14,16);
type = Stem;
},
{
horizontal = 1;
place = (751,13);
type = Stem;
},
{
place = (37,170);
type = Stem;
},
{
place = (671,170);
type = Stem;
}
);
layerId = "4476E8FB-E1E7-4AA1-B35B-6BE7AD43F443";
shapes = (
{
closed = 1;
nodes = (
(37,142,o),
(198,-14,o),
(439,-14,cs),
(680,-14,o),
(841,142,o),
(841,375,cs),
(841,608,o),
(680,764,o),
(439,764,cs),
(198,764,o),
(37,608,o),
(37,375,cs)
);
},
{
closed = 1;
nodes = (
(207,601,o),
(300,751,o),
(439,751,cs),
(578,751,o),
(671,601,o),
(671,376,cs),
(671,151,o),
(578,2,o),
(439,2,cs),
(300,2,o),
(207,151,o),
(207,376,cs)
);
}
);
width = 878;
}
);
leftKerningGroup = C;
rightKerningGroup = D;
unicode = 79;
},
{
glyphname = P;
layers = (
{
hints = (
{
horizontal = 1;
place = (0,10);
type = Stem;
},
{
horizontal = 1;
place = (344,13);
type = Stem;
},
{
horizontal = 1;
place = (737,13);
type = Stem;
},
{
horizontal = 1;
place = (740,10);
type = Stem;
},
{
place = (80,154);
type = Stem;
},
{
place = (434,157);
type = Stem;
}
);
layerId = "4476E8FB-E1E7-4AA1-B35B-6BE7AD43F443";
shapes = (
{
closed = 1;
nodes = (
(292,737,ls),
(376,737,o),
(434,660,o),
(434,547,cs),
(434,434,o),
(377,357,o),
(293,357,cs),
(234,357,l),
(234,737,l)
);
},
{
closed = 1;
nodes = (
(314,10,ls),
(266,10,o),
(234,42,o),
(234,90,cs),
(234,344,l),
(326,344,ls),
(485,344,o),
(591,425,o),
(591,547,cs),
(591,667,o),
(488,748,o),
(334,750,c),
(0,750,l),
(0,740,l),
(48,740,o),
(80,708,o),
(80,660,cs),
(80,90,ls),
(80,42,o),
(48,10,o),
(0,10,c),
(0,0,l),
(316,0,l),
(316,10,l)
);
}
);
width = 608;
}
);
leftKerningGroup = B;
unicode = 80;
},
{
glyphname = Q;
layers = (
{
hints = (
{
horizontal = 1;
place = (-159,55);
type = Stem;
},
{
horizontal = 1;
place = (751,13);
type = Stem;
},
{
place = (37,169);
type = Stem;
},
{
place = (667,168);
type = Stem;
}
);
layerId = "4476E8FB-E1E7-4AA1-B35B-6BE7AD43F443";
shapes = (
{
closed = 1;
nodes = (
(206,602,o),
(298,751,o),
(436,751,cs),
(574,751,o),
(667,602,o),
(667,378,cs),
(667,156,o),
(574,8,o),
(436,8,cs),
(298,8,o),
(206,156,o),
(206,378,cs)
);
},
{
closed = 1;
nodes = (
(37,188,o),
(145,50,o),
(316,6,c),
(438,-101,o),
(596,-159,o),
(730,-159,cs),
(816,-159,o),
(893,-135,o),
(943,-85,c),
(944,-74,l),
(907,-94,o),
(864,-104,o),
(817,-104,cs),
(727,-104,o),
(626,-67,o),
(537,2,c),
(719,39,o),
(835,180,o),
(835,378,cs),
(835,610,o),
(676,764,o),
(436,764,cs),
(197,764,o),
(37,610,o),
(37,378,cs)
);
}
);
width = 872;
}
);
leftKerningGroup = C;
rightKerningGroup = D;
unicode = 81;
},
{
glyphname = R;
layers = (
{
hints = (
{
horizontal = 1;
place = (0,10);
type = Stem;
},
{
horizontal = 1;
place = (364,13);
type = Stem;
},
{
horizontal = 1;
place = (737,13);
type = Stem;
},
{
horizontal = 1;
place = (740,10);
type = Stem;
},
{
place = (80,154);
type = Stem;
},
{
place = (427,145);
type = Stem;
}
);
layerId = "4476E8FB-E1E7-4AA1-B35B-6BE7AD43F443";
shapes = (
{
closed = 1;
nodes = (
(292,737,ls),
(373,737,o),
(427,665,o),
(427,557,cs),
(427,449,o),
(370,377,o),
(285,377,cs),
(234,377,l),
(234,737,l)
);
},
{
closed = 1;
nodes = (
(314,10,ls),
(266,10,o),
(234,42,o),
(234,90,cs),
(234,364,l),
(244,364,ls),
(280,364,o),
(293,351,o),
(331,280,cs),
(429,100,ls),
(445,69,o),
(468,30,o),
(487,0,c),
(694,0,l),
(694,10,l),
(662,10,o),
(635,29,o),
(617,60,cs),
(491,276,ls),
(462,325,o),
(428,362,o),
(405,368,c),
(504,380,o),
(572,456,o),
(572,556,cs),
(572,673,o),
(477,750,o),
(334,750,cs),
(0,750,l),
(0,740,l),
(48,740,o),
(80,708,o),
(80,660,cs),
(80,90,ls),
(80,42,o),
(48,10,o),
(0,10,c),
(0,0,l),
(316,0,l),
(316,10,l)
);
}
);
width = 669;
}
);
leftKerningGroup = B;
unicode = 82;
},
{
glyphname = S;
layers = (
{
hints = (
{
horizontal = 1;
place = (-14,18);
type = Stem;
},
{
horizontal = 1;
place = (0,21);
target = up;
type = BottomGhost;
},
{
horizontal = 1;
place = (749,15);
type = Stem;
},
{
horizontal = 1;
place = (750,-20);
target = down;
type = TopGhost;
},
{
place = (35,128);
type = Stem;
},
{
place = (381,116);
type = Stem;
}
);
layerId = "4476E8FB-E1E7-4AA1-B35B-6BE7AD43F443";
shapes = (
{
closed = 1;
nodes = (
(350,749,o),
(416,671,o),
(435,548,c),
(445,548,l),
(435,750,l),
(354,750,o),
(333,764,o),
(270,764,cs),
(126,764,o),
(35,691,o),
(35,575,cs),
(35,503,o),
(70,450,o),
(168,375,cs),
(209,344,ls),
(340,244,o),
(381,193,o),
(381,130,cs),
(381,56,o),
(323,4,o),
(241,4,cs),
(130,4,o),
(55,97,o),
(35,260,c),
(23,260,l),
(58,0,l),
(159,0,o),
(173,-14,o),
(235,-14,c),
(391,-12,o),
(497,79,o),
(497,213,cs),
(497,299,o),
(453,361,o),
(320,461,cs),
(277,493,ls),
(193,556,o),
(163,598,o),
(163,650,cs),
(163,710,o),
(203,749,o),
(264,749,cs)
);
}
);
width = 510;
}
);
leftKerningGroup = J;
unicode = 83;
},
{
glyphname = T;
layers = (
{
hints = (
{
horizontal = 1;
place = (0,10);
type = Stem;
},
{
horizontal = 1;
place = (736,14);
type = Stem;
},
{
place = (270,155);
type = Stem;
}
);
layerId = "4476E8FB-E1E7-4AA1-B35B-6BE7AD43F443";
shapes = (
{
closed = 1;
nodes = (
(36,750,l),
(8,548,l),
(18,548,l),
(41,698,o),
(141,736,o),
(241,736,cs),
(270,736,l),
(270,90,ls),
(270,42,o),
(238,10,o),
(190,10,c),
(189,10,l),
(188,0,l),
(506,0,l),
(505,10,l),
(457,10,o),
(425,42,o),
(425,90,cs),
(425,736,l),
(451,736,ls),
(553,736,o),
(655,697,o),
(678,548,c),
(688,548,l),
(659,750,l)
);
}
);
width = 694;
}
);
leftKerningGroup = J;
unicode = 84;
},
{
glyphname = U;
layers = (
{
hints = (
{
horizontal = 1;
place = (-14,48);
type = Stem;
},
{
horizontal = 1;
place = (740,10);
type = Stem;
},
{
place = (79,155);
type = Stem;
},
{
place = (638,17);
type = Stem;
}
);
layerId = "4476E8FB-E1E7-4AA1-B35B-6BE7AD43F443";
shapes = (
{
closed = 1;
nodes = (
(79,263,ls),
(79,94,o),
(192,-14,o),
(368,-14,cs),
(543,-14,o),
(656,94,o),
(655,263,c),
(655,645,ls),
(655,702,o),
(693,737,o),
(750,740,c),
(750,750,l),
(543,750,l),
(543,740,l),
(600,737,o),
(638,702,o),
(638,645,cs),
(638,263,ls),
(638,123,o),
(560,34,o),
(436,34,cs),
(311,34,o),
(234,123,o),
(234,263,cs),
(234,660,ls),
(234,708,o),
(266,740,o),
(314,740,cs),
(317,740,l),
(317,750,l),
(-5,750,l),
(-5,740,l),
(-1,740,ls),
(47,740,o),
(79,708,o),
(79,660,cs)
);
}
);
width = 745;
}
);
leftKerningGroup = U2;
rightKerningGroup = U;
unicode = 85;
},
{
glyphname = V;
layers = (
{
hints = (
{
horizontal = 1;
place = (-15,21);
target = up;
type = BottomGhost;
},
{
horizontal = 1;
place = (740,10);
type = Stem;
},
{
place = (602,106);
type = Stem;
}
);
layerId = "4476E8FB-E1E7-4AA1-B35B-6BE7AD43F443";
shapes = (
{
closed = 1;
nodes = (
(607,631,ls),
(629,684,o),
(670,737,o),
(708,740,c),
(708,750,l),
(513,750,l),
(513,740,l),
(585,737,o),
(618,695,o),
(594,636,cs),
(411,186,l),
(233,636,ls),
(207,701,o),
(228,740,o),
(289,740,cs),
(293,740,l),
(293,750,l),
(-27,750,l),
(-27,740,l),
(-24,740,ls),
(11,740,o),
(45,702,o),
(73,631,cs),
(333,-15,l),
(343,-15,l)
);
}
);
width = 683;
}
);
leftKerningGroup = V2;
rightKerningGroup = V;
unicode = 86;
},
{
glyphname = W;
layers = (
{
hints = (
{
horizontal = 1;
place = (-15,21);
target = up;
type = BottomGhost;
},
{
horizontal = 1;
place = (740,10);
type = Stem;
},
{
place = (927,101);
type = Stem;
}
);
layerId = "4476E8FB-E1E7-4AA1-B35B-6BE7AD43F443";
shapes = (
{
closed = 1;
nodes = (
(939,648,ls),
(960,701,o),
(992,740,o),
(1028,740,c),
(1028,750,l),
(845,750,l),
(845,740,l),
(912,737,o),
(943,695,o),
(920,636,cs),
(749,186,l),
(596,637,ls),
(574,702,o),
(592,740,o),
(649,740,cs),
(653,740,l),
(653,750,l),
(332,750,l),
(332,740,l),
(334,740,ls),
(387,740,o),
(421,702,o),
(446,631,cs),
(512,446,l),
(407,186,l),
(230,637,ls),
(205,701,o),
(226,740,o),
(286,740,cs),
(290,740,l),
(290,750,l),
(-27,750,l),
(-27,740,l),
(-24,740,ls),
(10,740,o),
(44,702,o),
(72,631,cs),
(330,-15,l),
(339,-15,l),
(518,427,l),
(676,-15,l),
(684,-15,l)
);
}
);
width = 1003;
}
);
leftKerningGroup = V2;
rightKerningGroup = V;
unicode = 87;
},
{
glyphname = X;
layers = (
{
hints = (
{
horizontal = 1;
place = (0,10);
type = Stem;
},
{
horizontal = 1;
place = (740,10);
type = Stem;
},
{
place = (-27,140);
type = Stem;
},
{
place = (-27,759);
type = Stem;
},
{
place = (567,141);
type = Stem;
}
);
layerId = "4476E8FB-E1E7-4AA1-B35B-6BE7AD43F443";
shapes = (
{
closed = 1;
nodes = (
(267,681,o),
(265,734,o),
(344,740,c),
(344,750,l),
(0,750,l),
(0,740,l),
(40,737,o),
(64,726,o),
(159,577,cs),
(186,535,o),
(239,448,o),
(292,360,c),
(106,103,ls),
(67,48,o),
(12,13,o),
(-27,10,c),
(-27,0,l),
(181,0,l),
(181,10,l),
(180,10,l),
(108,14,o),
(95,64,o),
(137,122,cs),
(299,348,l),
(353,260,o),
(405,172,o),
(430,129,cs),
(465,69,o),
(458,10,o),
(388,10,c),
(388,0,l),
(732,0,l),
(732,10,l),
(682,13,o),
(644,62,o),
(551,210,cs),
(534,238,o),
(476,333,o),
(417,429,c),
(575,647,ls),
(615,702,o),
(669,737,o),
(708,740,c),
(708,750,l),
(500,750,l),
(500,740,l),
(501,740,l),
(572,735,o),
(587,688,o),
(539,621,cs),
(410,441,l),
(368,510,o),
(328,578,o),
(302,621,cs)
);
},
{
closed = 1;
nodes = (
(52,239,l),
(298,239,l),
(298,485,l),
(52,485,l)
);
}
);
width = 707;
}
);
leftKerningGroup = J;
unicode = 88;
},
{
glyphname = Y;
layers = (
{
hints = (
{
horizontal = 1;
place = (0,10);
type = Stem;
},
{
horizontal = 1;
place = (740,10);
type = Stem;
},
{
place = (258,145);
type = Stem;
},
{
place = (545,119);
type = Stem;
}
);
layerId = "4476E8FB-E1E7-4AA1-B35B-6BE7AD43F443";
shapes = (
{
closed = 1;
nodes = (
(474,740,l),
(553,740,o),
(565,690,o),
(514,621,cs),
(393,458,l),
(263,634,ls),
(221,691,o),
(239,740,o),
(312,740,c),
(312,750,l),
(-27,750,l),
(-27,740,l),
(-26,740,l),
(8,740,o),
(31,724,o),
(48,702,cs),
(258,430,l),
(258,90,ls),
(258,42,o),
(226,10,o),
(178,10,cs),
(176,10,l),
(175,0,l),
(484,0,l),
(483,10,l),
(481,10,ls),
(436,10,o),
(403,43,o),
(403,90,cs),
(403,448,l),
(543,637,ls),
(588,697,o),
(619,737,o),
(664,740,c),
(664,750,l),
(474,750,l)
);
}
);
width = 639;
}
);
leftKerningGroup = J;
unicode = 89;
},
{
glyphname = Z;
layers = (
{
hints = (
{
horizontal = 1;
place = (0,13);
type = Stem;
},
{
horizontal = 1;
place = (737,13);
type = Stem;
},
{
place = (1,569);
type = Stem;
}
);
layerId = "4476E8FB-E1E7-4AA1-B35B-6BE7AD43F443";
shapes = (
{
closed = 1;
nodes = (
(540,0,l),
(570,222,l),
(560,222,l),
(539,75,o),
(461,13,o),
(333,13,cs),
(166,13,l),
(530,740,l),
(530,750,l),
(93,750,l),
(63,548,l),
(73,548,l),
(90,672,o),
(175,737,o),
(315,737,cs),
(366,737,l),
(1,10,l),
(1,0,l)
);
}
);
width = 570;
}
);
leftKerningGroup = J;
unicode = 90;
},
{
glyphname = bracketleft;
layers = (
{
hints = (
{
horizontal = 1;
place = (-155,10);
type = Stem;
},
{
horizontal = 1;
place = (844,10);
type = Stem;
},
{
place = (40,160);
type = Stem;
}
);
layerId = "4476E8FB-E1E7-4AA1-B35B-6BE7AD43F443";
shapes = (
{
closed = 1;
nodes = (
(40,-155,l),
(350,-155,l),
(350,-145,l),
(200,-145,l),
(200,844,l),
(350,844,l),
(350,854,l),
(40,854,l)
);
}
);
width = 361;
}
);
leftKerningGroup = J;
unicode = 91;
},
{
glyphname = backslash;
layers = (
{
hints = (
{
horizontal = 1;
place = (751,-20);
target = down;
type = TopGhost;
},
{
place = (11,232);
type = Stem;
}
);
layerId = "4476E8FB-E1E7-4AA1-B35B-6BE7AD43F443";
shapes = (
{
closed = 1;
nodes = (
(243,-200,l),
(24,751,l),
(11,750,l),
(230,-201,l)
);
}
);
width = 253;
}
);
leftKerningGroup = J;
unicode = 92;
},
{
glyphname = bracketright;
layers = (
{
hints = (
{
horizontal = 1;
place = (-155,10);
type = Stem;
},
{
horizontal = 1;
place = (844,10);
type = Stem;
},
{
place = (160,160);
type = Stem;
}
);
layerId = "4476E8FB-E1E7-4AA1-B35B-6BE7AD43F443";
shapes = (
{
closed = 1;
nodes = (
(320,-155,l),
(320,854,l),
(10,854,l),
(10,844,l),
(160,844,l),
(160,-145,l),
(10,-145,l),
(10,-155,l)
);
}
);
width = 361;
}
);
leftKerningGroup = J;
unicode = 93;
},
{
glyphname = asciicircum;
layers = (
{
hints = (
{
horizontal = 1;
place = (750,-20);
target = down;
type = TopGhost;
},
{
place = (24,263);
type = Stem;
}
);
layerId = "4476E8FB-E1E7-4AA1-B35B-6BE7AD43F443";
shapes = (
{
closed = 1;
nodes = (
(151,750,l),
(24,488,l),
(37,488,l),
(155,729,l),
(274,488,l),
(287,488,l),
(159,750,l)
);
}
);
width = 309;
}
);
leftKerningGroup = J;
unicode = 94;
},
{
glyphname = underscore;
layers = (
{
hints = (
{
horizontal = 1;
place = (-55,10);
type = Stem;
},
{
place = (30,350);
type = Stem;
}
);
layerId = "4476E8FB-E1E7-4AA1-B35B-6BE7AD43F443";
shapes = (
{
closed = 1;
nodes = (
(30,-55,l),
(380,-55,l),
(380,-45,l),
(30,-45,l)
);
}
);
width = 409;
}
);
leftKerningGroup = J;
unicode = 95;
},
{
glyphname = grave;
layers = (
{
hints = (
{
horizontal = 1;
place = (581,203);
type = Stem;
},
{
place = (31,207);
type = Stem;
}
);
layerId = "4476E8FB-E1E7-4AA1-B35B-6BE7AD43F443";
shapes = (
{
closed = 1;
nodes = (
(31,721,l),
(231,581,l),
(238,591,l),
(101,784,l),
(96,784,l),
(31,726,l)
);
}
);
width = 269;
}
);
leftKerningGroup = J;
unicode = 96;
},
{
glyphname = a;
layers = (
{
hints = (
{
horizontal = 1;
place = (-14,62);
type = Stem;
},
{
horizontal = 1;
place = (510,13);
type = Stem;
},
{
place = (31,134);
type = Stem;
},
{
place = (331,144);
type = Stem;
}
);
layerId = "4476E8FB-E1E7-4AA1-B35B-6BE7AD43F443";
shapes = (
{
closed = 1;
nodes = (
(330,95,l),
(296,62,o),
(270,48,o),
(241,48,cs),
(197,48,o),
(165,89,o),
(165,146,cs),
(165,204,o),
(186,243,o),
(291,283,cs),
(331,298,l)
);
},
{
closed = 1;
nodes = (
(182,523,o),
(90,468,o),
(55,386,c),
(163,324,l),
(175,439,o),
(213,509,o),
(263,510,c),
(305,510,o),
(331,462,o),
(331,386,cs),
(331,311,l),
(238,277,ls),
(62,213,o),
(31,166,o),
(31,106,cs),
(31,34,o),
(85,-14,o),
(166,-14,cs),
(223,-14,o),
(266,11,o),
(332,81,c),
(341,24,o),
(381,-14,o),
(432,-14,cs),
(479,-14,o),
(533,18,o),
(567,65,c),
(559,72,l),
(544,55,o),
(530,47,o),
(514,47,cs),
(489,47,o),
(474,68,o),
(475,105,c),
(475,346,ls),
(475,453,o),
(398,523,o),
(283,523,cs)
);
}
);
width = 551;
}
);
leftKerningGroup = a2;
rightKerningGroup = a;
unicode = 97;
},
{
glyphname = b;
layers = (
{
hints = (
{
horizontal = 1;
place = (-14,17);
type = Stem;
},
{
horizontal = 1;
place = (483,40);
type = Stem;
},
{
horizontal = 1;
place = (740,10);
type = Stem;
},
{
place = (46,144);
type = Stem;
},
{
place = (392,158);
type = Stem;
}
);
layerId = "4476E8FB-E1E7-4AA1-B35B-6BE7AD43F443";
shapes = (
{
closed = 1;
nodes = (
(190,389,l),
(208,440,o),
(259,483,o),
(305,483,cs),
(364,483,o),
(392,412,o),
(392,263,cs),
(392,93,o),
(355,3,o),
(285,3,cs),
(231,3,o),
(195,56,o),
(190,138,c)
);
},
{
closed = 1;
nodes = (
(154,85,l),
(181,20,o),
(235,-14,o),
(314,-14,cs),
(454,-14,o),
(550,93,o),
(550,256,cs),
(550,410,o),
(461,523,o),
(346,523,cs),
(280,523,o),
(221,484,o),
(190,424,c),
(190,788,l),
(180,788,l),
(167,766,o),
(142,750,o),
(67,750,cs),
(-35,750,l),
(-35,740,l),
(13,740,o),
(46,708,o),
(46,660,cs),
(46,-14,l),
(56,-14,l)
);
}
);
width = 583;
}
);
leftKerningGroup = J;
rightKerningGroup = b;
unicode = 98;
},
{
glyphname = c;
layers = (
{
hints = (
{
horizontal = 1;
place = (-14,94);
type = Stem;
},
{
horizontal = 1;
place = (507,15);
type = Stem;
},
{
place = (33,136);
type = Stem;
}
);
layerId = "4476E8FB-E1E7-4AA1-B35B-6BE7AD43F443";
shapes = (
{
closed = 1;
nodes = (
(33,95,o),
(129,-14,o),
(266,-14,cs),
(377,-14,o),
(477,57,o),
(512,166,c),
(502,169,l),
(465,115,o),
(402,80,o),
(339,80,cs),
(236,80,o),
(169,172,o),
(169,313,cs),
(169,426,o),
(212,507,o),
(273,507,cs),
(335,507,o),
(372,423,o),
(372,286,c),
(492,353,l),
(478,456,o),
(397,522,o),
(286,522,cs),
(140,522,o),
(33,410,o),
(33,250,cs)
);
}
);
width = 536;
}
);
leftKerningGroup = c2;
rightKerningGroup = c;
unicode = 99;
},
{
glyphname = d;
layers = (
{
hints = (
{
horizontal = 1;
place = (-15,40);
type = Stem;
},
{
horizontal = 1;
place = (0,10);
type = Stem;
},
{
horizontal = 1;
place = (505,17);
type = Stem;
},
{
horizontal = 1;
place = (740,10);
type = Stem;
},
{
place = (35,160);
type = Stem;
},
{
place = (397,144);
type = Stem;
}
);
layerId = "4476E8FB-E1E7-4AA1-B35B-6BE7AD43F443";
shapes = (
{
closed = 1;
nodes = (
(397,129,l),
(377,73,o),
(326,25,o),
(280,25,cs),
(223,25,o),
(195,98,o),
(195,244,cs),
(195,413,o),
(234,505,o),
(304,505,cs),
(356,505,o),
(391,453,o),
(397,373,c)
);
},
{
closed = 1;
nodes = (
(531,788,l),
(517,766,o),
(492,750,o),
(418,750,cs),
(316,750,l),
(316,740,l),
(364,740,o),
(397,708,o),
(397,660,cs),
(397,467,l),
(369,507,o),
(337,522,o),
(283,522,cs),
(135,522,o),
(35,414,o),
(35,247,cs),
(35,96,o),
(118,-15,o),
(225,-15,cs),
(297,-15,o),
(369,35,o),
(400,104,c),
(401,-38,l),
(411,-38,l),
(429,-12,o),
(462,0,o),
(520,0,cs),
(622,0,l),
(622,10,l),
(573,10,o),
(541,42,o),
(541,90,cs),
(541,788,l)
);
}
);
width = 605;
}
);
leftKerningGroup = c2;
rightKerningGroup = d;
unicode = 100;
},
{
glyphname = e;
layers = (
{
hints = (
{
horizontal = 1;
place = (-12,89);
type = Stem;
},
{
horizontal = 1;
place = (315,15);
type = Stem;
},
{
horizontal = 1;
place = (507,15);
type = Stem;
},
{
place = (33,136);
type = Stem;
},
{
place = (373,131);
type = Stem;
}
);
layerId = "4476E8FB-E1E7-4AA1-B35B-6BE7AD43F443";
shapes = (
{
closed = 1;
nodes = (
(170,330,l),
(175,437,o),
(218,507,o),
(276,507,c),
(335,508,o),
(373,437,o),
(373,330,c)
);
},
{
closed = 1;
nodes = (
(33,97,o),
(130,-12,o),
(269,-12,cs),
(379,-12,o),
(479,56,o),
(513,161,c),
(504,164,l),
(468,111,o),
(405,77,o),
(342,77,cs),
(237,77,o),
(168,170,o),
(169,310,c),
(169,315,l),
(505,315,l),
(504,330,l),
(500,444,o),
(412,522,o),
(287,522,cs),
(139,522,o),
(33,414,o),
(33,255,cs)
);
}
);
width = 537;
}
);
leftKerningGroup = c2;
rightKerningGroup = c;
unicode = 101;
},
{
glyphname = f;
layers = (
{
hints = (
{
horizontal = 1;
place = (0,10);
type = Stem;
},
{
horizontal = 1;
place = (490,18);
type = Stem;
},
{
horizontal = 1;
place = (767,13);
type = Stem;
},
{
place = (81,144);
type = Stem;
}
);
layerId = "4476E8FB-E1E7-4AA1-B35B-6BE7AD43F443";
shapes = (
{
closed = 1;
nodes = (
(325,10,l),
(265,10,o),
(225,42,o),
(225,90,cs),
(225,490,l),
(350,490,l),
(360,508,l),
(225,508,l),
(225,584,ls),
(225,697,o),
(250,767,o),
(291,767,cs),
(332,767,o),
(361,702,o),
(362,607,c),
(482,675,l),
(458,736,o),
(378,780,o),
(290,780,cs),
(162,780,o),
(81,684,o),
(81,531,cs),
(81,508,l),
(6,508,l),
(-4,490,l),
(81,490,l),
(81,90,ls),
(81,42,o),
(48,10,o),
(0,10,c),
(0,0,l),
(326,0,l),
(326,10,l)
);
}
);
width = 312;
}
);
leftKerningGroup = f;
unicode = 102;
},
{
glyphname = g;
layers = (
{
hints = (
{
horizontal = 1;
place = (-224,13);
type = Stem;
},
{
horizontal = 1;
place = (-30,122);
type = Stem;
},
{
horizontal = 1;
place = (-16,21);
target = up;
type = BottomGhost;
},
{
horizontal = 1;
place = (155,12);
type = Stem;
},
{
horizontal = 1;
place = (490,18);
type = Stem;
},
{
horizontal = 1;
place = (509,13);
type = Stem;
},
{
place = (19,98);
type = Stem;
},
{
place = (44,144);
type = Stem;
},
{
place = (50,79);
type = Stem;
},
{
place = (324,143);
type = Stem;
},
{
place = (438,97);
type = Stem;
}
);
layerId = "4476E8FB-E1E7-4AA1-B35B-6BE7AD43F443";
shapes = (
{
closed = 1;
nodes = (
(188,444,o),
(214,509,o),
(256,509,cs),
(297,509,o),
(324,444,o),
(324,339,cs),
(324,234,o),
(297,167,o),
(255,167,cs),
(214,167,o),
(188,233,o),
(188,339,cs)
);
},
{
closed = 1;
nodes = (
(290,-31,l),
(392,-34,o),
(438,-58,o),
(438,-105,cs),
(438,-165,o),
(362,-211,o),
(267,-211,cs),
(172,-211,o),
(117,-166,o),
(117,-97,cs),
(117,-59,o),
(130,-28,o),
(158,-19,c),
(185,-25,o),
(217,-28,o),
(255,-29,c)
);
},
{
closed = 1;
nodes = (
(44,263,o),
(83,205,o),
(149,176,c),
(87,153,o),
(50,113,o),
(50,69,cs),
(50,28,o),
(82,0,o),
(144,-16,c),
(67,-36,o),
(19,-75,o),
(19,-121,cs),
(19,-183,o),
(113,-224,o),
(256,-224,cs),
(430,-224,o),
(535,-164,o),
(535,-62,cs),
(535,30,o),
(448,86,o),
(295,91,c),
(260,93,l),
(160,96,o),
(129,105,o),
(129,131,cs),
(129,147,o),
(140,160,o),
(161,171,c),
(189,161,o),
(221,155,o),
(256,155,cs),
(383,155,o),
(467,228,o),
(467,339,cs),
(467,406,o),
(437,459,o),
(384,490,c),
(520,490,l),
(530,508,l),
(346,508,l),
(319,517,o),
(289,522,o),
(256,522,cs),
(128,522,o),
(44,449,o),
(44,339,cs)
);
}
);
width = 540;
}
);
leftKerningGroup = J;
unicode = 103;
},
{
glyphname = h;
layers = (
{
hints = (
{
horizontal = 1;
place = (0,10);
type = Stem;
},
{
horizontal = 1;
place = (482,40);
type = Stem;
},
{
horizontal = 1;
place = (740,10);
type = Stem;
},
{
place = (81,144);
type = Stem;
},
{
place = (420,143);
type = Stem;
}
);
layerId = "4476E8FB-E1E7-4AA1-B35B-6BE7AD43F443";
shapes = (
{
closed = 1;
nodes = (
(337,522,o),
(261,478,o),
(225,408,c),
(225,788,l),
(215,788,l),
(201,765,o),
(172,750,o),
(102,750,cs),
(0,750,l),
(0,740,l),
(48,740,o),
(81,708,o),
(81,660,cs),
(81,112,l),
(80,59,o),
(72,10,o),
(0,10,c),
(0,0,l),
(306,0,l),
(306,10,l),
(234,10,o),
(226,59,o),
(225,112,c),
(225,382,l),
(248,424,o),
(296,482,o),
(349,482,cs),
(404,482,o),
(420,416,o),
(420,372,cs),
(420,90,ls),
(420,41,o),
(387,10,o),
(339,10,c),
(339,0,l),
(644,0,l),
(644,10,l),
(596,10,o),
(563,41,o),
(563,90,cs),
(563,362,ls),
(563,452,o),
(509,522,o),
(415,522,cs)
);
}
);
width = 631;
}
);
leftKerningGroup = h2;
rightKerningGroup = h;
unicode = 104;
},
{
glyphname = i;
layers = (
{
hints = (
{
horizontal = 1;
place = (0,10);
type = Stem;
},
{
horizontal = 1;
place = (498,10);
type = Stem;
},
{
horizontal = 1;
place = (546,-20);
target = down;
type = TopGhost;
},
{
horizontal = 1;
place = (614,166);
type = Stem;
},
{
place = (72,165);
type = Stem;
},
{
place = (88,144);
type = Stem;
}
);
layerId = "4476E8FB-E1E7-4AA1-B35B-6BE7AD43F443";
shapes = (
{
closed = 1;
nodes = (
(72,649,o),
(107,614,o),
(155,614,cs),
(202,614,o),
(237,651,o),
(237,697,cs),
(237,744,o),
(202,780,o),
(155,780,cs),
(107,780,o),
(72,745,o),
(72,697,cs)
);
},
{
closed = 1;
nodes = (
(312,10,l),
(264,10,o),
(232,42,o),
(232,90,cs),
(232,546,l),
(222,546,l),
(208,523,o),
(179,508,o),
(109,508,cs),
(7,508,l),
(7,498,l),
(75,498,o),
(87,466,o),
(88,418,c),
(88,90,ls),
(88,42,o),
(56,10,o),
(8,10,c),
(7,10,l),
(7,0,l),
(313,0,l),
(313,10,l)
);
}
);
width = 297;
}
);
leftKerningGroup = i2;
rightKerningGroup = i;
unicode = 105;
},
{
glyphname = j;
layers = (
{
guides = (
{
position = "{0, -224}";
}
);
hints = (
{
horizontal = 1;
place = (-224,11);
type = Stem;
},
{
horizontal = 1;
place = (498,10);
type = Stem;
},
{
horizontal = 1;
place = (614,166);
type = Stem;
},
{
place = (57,165);
type = Stem;
},
{
place = (73,144);
type = Stem;
}
);
layerId = "4476E8FB-E1E7-4AA1-B35B-6BE7AD43F443";
shapes = (
{
closed = 1;
nodes = (
(57,650,o),
(92,614,o),
(139,614,cs),
(186,614,o),
(222,650,o),
(222,697,cs),
(222,745,o),
(186,780,o),
(139,780,cs),
(92,780,o),
(57,745,o),
(57,697,cs)
);
},
{
closed = 1;
nodes = (
(217,536,l),
(212,536,l),
(198,513,o),
(164,508,o),
(94,508,cs),
(-8,508,l),
(-8,498,l),
(60,498,o),
(72,466,o),
(73,418,c),
(73,-88,ls),
(73,-163,o),
(41,-213,o),
(-8,-213,c),
(-8,-224,l),
(127,-224,o),
(217,-124,o),
(217,25,cs)
);
}
);
width = 282;
}
);
leftKerningGroup = i2;
unicode = 106;
},
{
glyphname = k;
layers = (
{
hints = (
{
horizontal = 1;
place = (0,10);
type = Stem;
},
{
horizontal = 1;
place = (497,11);
type = Stem;
},
{
horizontal = 1;
place = (740,10);
type = Stem;
},
{
place = (81,144);
type = Stem;
},
{
place = (445,122);
type = Stem;
}
);
layerId = "4476E8FB-E1E7-4AA1-B35B-6BE7AD43F443";
shapes = (
{
closed = 1;
nodes = (
(305,10,l),
(257,10,o),
(225,42,o),
(225,90,cs),
(225,243,l),
(262,275,l),
(376,92,l),
(397,56,o),
(406,38,o),
(406,27,cs),
(406,14,o),
(396,10,o),
(364,10,c),
(364,0,l),
(628,0,l),
(628,10,l),
(606,10,o),
(589,23,o),
(564,56,c),
(365,362,l),
(434,420,ls),
(505,480,o),
(529,491,o),
(557,496,cs),
(567,498,l),
(567,508,l),
(418,508,l),
(418,498,l),
(431,495,l),
(456,490,o),
(451,452,o),
(395,405,cs),
(225,262,l),
(225,788,l),
(215,788,l),
(201,765,o),
(172,750,o),
(102,750,cs),
(0,750,l),
(0,740,l),
(48,740,o),
(81,708,o),
(81,660,cs),
(81,90,ls),
(81,42,o),
(49,10,o),
(1,10,c),
(0,10,l),
(0,0,l),
(306,0,l),
(306,10,l)
);
}
);
width = 601;
}
);
leftKerningGroup = h2;
rightKerningGroup = k;
unicode = 107;
},
{
glyphname = l;
layers = (
{
hints = (
{
horizontal = 1;
place = (0,10);
type = Stem;
},
{
horizontal = 1;
place = (740,10);
type = Stem;
},
{
place = (81,144);
type = Stem;
}
);
layerId = "4476E8FB-E1E7-4AA1-B35B-6BE7AD43F443";
shapes = (
{
closed = 1;
nodes = (
(225,788,l),
(215,788,l),
(201,765,o),
(172,750,o),
(102,750,cs),
(0,750,l),
(0,740,l),
(48,740,o),
(81,708,o),
(81,660,cs),
(81,90,ls),
(81,41,o),
(48,10,o),
(0,10,c),
(0,0,l),
(306,0,l),
(306,10,l),
(258,10,o),
(225,41,o),
(225,90,cs)
);
}
);
width = 289;
}
);
leftKerningGroup = h2;
rightKerningGroup = d;
unicode = 108;
},
{
glyphname = m;
layers = (
{
hints = (
{
horizontal = 1;
place = (0,10);
type = Stem;
},
{
horizontal = 1;
place = (482,40);
type = Stem;
},
{
horizontal = 1;
place = (498,10);
type = Stem;
},
{
place = (87,144);
type = Stem;
},
{
place = (425,143);
type = Stem;
},
{
place = (763,143);
type = Stem;
}
);
layerId = "4476E8FB-E1E7-4AA1-B35B-6BE7AD43F443";
shapes = (
{
closed = 1;
nodes = (
(986,10,l),
(938,10,o),
(906,42,o),
(906,90,cs),
(906,362,ls),
(906,458,o),
(847,522,o),
(758,522,cs),
(677,522,o),
(601,475,o),
(564,404,c),
(549,476,o),
(495,522,o),
(420,522,cs),
(341,522,o),
(264,475,o),
(229,406,c),
(228,536,l),
(218,536,l),
(207,522,o),
(189,508,o),
(105,508,cs),
(6,508,l),
(6,498,l),
(74,498,o),
(86,466,o),
(87,418,c),
(87,90,ls),
(87,42,o),
(55,10,o),
(7,10,c),
(6,10,l),
(6,0,l),
(312,0,l),
(312,10,l),
(311,10,l),
(263,10,o),
(231,42,o),
(231,90,cs),
(231,384,l),
(264,443,o),
(313,482,o),
(354,482,cs),
(396,482,o),
(425,438,o),
(425,372,cs),
(425,90,ls),
(425,42,o),
(393,10,o),
(345,10,c),
(344,10,l),
(344,0,l),
(649,0,l),
(649,10,l),
(648,10,l),
(600,10,o),
(568,42,o),
(568,90,cs),
(568,362,ls),
(568,369,o),
(568,376,o),
(567,383,c),
(600,441,o),
(650,482,o),
(691,482,cs),
(734,482,o),
(763,438,o),
(763,372,cs),
(763,90,ls),
(763,42,o),
(731,10,o),
(683,10,c),
(682,10,l),
(682,0,l),
(987,0,l),
(987,10,l)
);
}
);
width = 974;
}
);
leftKerningGroup = i2;
rightKerningGroup = h;
unicode = 109;
},
{
glyphname = n;
layers = (
{
hints = (
{
horizontal = 1;
place = (0,10);
type = Stem;
},
{
horizontal = 1;
place = (482,40);
type = Stem;
},
{
horizontal = 1;
place = (498,10);
type = Stem;
},
{
horizontal = 1;
place = (546,-20);
target = down;
type = TopGhost;
},
{
place = (87,144);
type = Stem;
},
{
place = (425,143);
type = Stem;
}
);
layerId = "4476E8FB-E1E7-4AA1-B35B-6BE7AD43F443";
shapes = (
{
closed = 1;
nodes = (
(648,10,l),
(600,10,o),
(568,42,o),
(568,90,cs),
(568,362,ls),
(568,458,o),
(509,522,o),
(420,522,cs),
(341,522,o),
(264,475,o),
(229,406,c),
(228,546,l),
(218,546,l),
(204,523,o),
(175,508,o),
(105,508,cs),
(6,508,l),
(6,498,l),
(74,498,o),
(86,466,o),
(87,418,c),
(87,90,ls),
(87,42,o),
(55,10,o),
(7,10,c),
(6,10,l),
(6,0,l),
(312,0,l),
(312,10,l),
(311,10,l),
(263,10,o),
(231,42,o),
(231,90,cs),
(231,384,l),
(264,443,o),
(313,482,o),
(354,482,cs),
(396,482,o),
(425,438,o),
(425,372,cs),
(425,90,ls),
(425,42,o),
(393,10,o),
(345,10,c),
(344,10,l),
(344,0,l),
(649,0,l),
(649,10,l)
);
}
);
width = 636;
}
);
leftKerningGroup = i2;
rightKerningGroup = h;
unicode = 110;
},
{
glyphname = o;
layers = (
{
guides = (
{
position = "{0, 522}";
}
);
hints = (
{
horizontal = 1;
place = (-14,13);
type = Stem;
},
{
horizontal = 1;
place = (510,12);
type = Stem;
},
{
place = (34,160);
type = Stem;
},
{
place = (419,160);
type = Stem;
}
);
layerId = "4476E8FB-E1E7-4AA1-B35B-6BE7AD43F443";
shapes = (
{
closed = 1;
nodes = (
(34,92,o),
(142,-14,o),
(307,-14,cs),
(471,-14,o),
(579,92,o),
(579,254,cs),
(579,416,o),
(471,522,o),
(307,522,cs),
(142,522,o),
(34,416,o),
(34,254,cs)
);
},
{
closed = 1;
nodes = (
(194,403,o),
(241,510,o),
(307,510,cs),
(372,510,o),
(419,403,o),
(419,255,cs),
(419,107,o),
(372,-1,o),
(306,-1,cs),
(241,-1,o),
(194,107,o),
(194,255,cs)
);
}
);
width = 612;
}
);
leftKerningGroup = c2;
rightKerningGroup = b;
unicode = 111;
},
{
glyphname = p;
layers = (
{
hints = (
{
horizontal = 1;
place = (-210,10);
type = Stem;
},
{
horizontal = 1;
place = (-14,17);
type = Stem;
},
{
horizontal = 1;
place = (483,40);
type = Stem;
},
{
horizontal = 1;
place = (498,10);
type = Stem;
},
{
horizontal = 1;
place = (546,-20);
target = down;
type = TopGhost;
},
{
place = (64,144);
type = Stem;
},
{
place = (410,156);
type = Stem;
}
);
layerId = "4476E8FB-E1E7-4AA1-B35B-6BE7AD43F443";
shapes = (
{
closed = 1;
nodes = (
(208,390,l),
(226,441,o),
(276,483,o),
(322,483,cs),
(381,483,o),
(410,411,o),
(410,265,cs),
(410,96,o),
(372,3,o),
(301,3,cs),
(244,3,o),
(208,62,o),
(208,157,cs)
);
},
{
closed = 1;
nodes = (
(566,414,o),
(486,523,o),
(375,523,cs),
(305,523,o),
(237,479,o),
(206,418,c),
(205,546,l),
(195,546,l),
(182,525,o),
(158,508,o),
(82,508,cs),
(-17,508,l),
(-17,498,l),
(41,498,o),
(63,476,o),
(64,418,c),
(64,-120,ls),
(64,-168,o),
(32,-200,o),
(-16,-200,c),
(-17,-200,l),
(-17,-210,l),
(289,-210,l),
(289,-200,l),
(288,-200,l),
(240,-200,o),
(208,-168,o),
(208,-120,cs),
(208,40,l),
(236,1,o),
(268,-14,o),
(322,-14,cs),
(470,-14,o),
(566,94,o),
(566,262,cs)
);
}
);
width = 599;
}
);
leftKerningGroup = i2;
unicode = 112;
},
{
glyphname = q;
layers = (
{
hints = (
{
horizontal = 1;
place = (-210,10);
type = Stem;
},
{
horizontal = 1;
place = (-14,40);
type = Stem;
},
{
horizontal = 1;
place = (506,17);
type = Stem;
},
{
place = (33,156);
type = Stem;
},
{
place = (391,144);
type = Stem;
}
);
layerId = "4476E8FB-E1E7-4AA1-B35B-6BE7AD43F443";
shapes = (
{
closed = 1;
nodes = (
(391,128,l),
(371,74,o),
(317,26,o),
(273,26,cs),
(218,26,o),
(189,100,o),
(189,244,cs),
(189,414,o),
(228,506,o),
(299,506,cs),
(352,506,o),
(386,455,o),
(391,371,c)
);
},
{
closed = 1;
nodes = (
(425,430,l),
(397,491,o),
(344,523,o),
(268,523,cs),
(127,523,o),
(33,413,o),
(33,248,cs),
(33,97,o),
(112,-14,o),
(220,-14,cs),
(289,-14,o),
(357,32,o),
(391,95,c),
(391,-120,ls),
(391,-168,o),
(359,-200,o),
(310,-200,c),
(310,-210,l),
(616,-210,l),
(616,-200,l),
(567,-200,o),
(535,-168,o),
(535,-120,cs),
(535,523,l),
(525,523,l)
);
}
);
width = 579;
}
);
leftKerningGroup = c2;
rightKerningGroup = d;
unicode = 113;
},
{
glyphname = r;
layers = (
{
hints = (
{
horizontal = 1;
place = (0,10);
type = Stem;
},
{
horizontal = 1;
place = (428,95);
type = Stem;
},
{
horizontal = 1;
place = (498,10);
type = Stem;
},
{
horizontal = 1;
place = (546,-20);
target = down;
type = TopGhost;
},
{
place = (87,144);
type = Stem;
}
);
layerId = "4476E8FB-E1E7-4AA1-B35B-6BE7AD43F443";
shapes = (
{
closed = 1;
nodes = (
(311,10,l),
(263,10,o),
(231,42,o),
(231,90,cs),
(231,357,l),
(247,395,o),
(264,428,o),
(310,428,cs),
(336,428,o),
(371,418,o),
(419,392,c),
(458,509,l),
(433,519,o),
(410,523,o),
(390,523,cs),
(301,523,o),
(254,441,o),
(229,382,c),
(228,546,l),
(223,546,l),
(209,523,o),
(175,508,o),
(105,508,cs),
(6,508,l),
(6,498,l),
(74,498,o),
(86,466,o),
(87,418,c),
(87,90,ls),
(87,42,o),
(55,10,o),
(7,10,c),
(6,10,l),
(6,0,l),
(312,0,l),
(312,10,l)
);
}
);
width = 453;
}
);
leftKerningGroup = i2;
unicode = 114;
},
{
glyphname = s;
layers = (
{
hints = (
{
horizontal = 1;
place = (-14,13);
type = Stem;
},
{
horizontal = 1;
place = (0,21);
target = up;
type = BottomGhost;
},
{
horizontal = 1;
place = (347,161);
type = Stem;
},
{
horizontal = 1;
place = (508,14);
type = Stem;
},
{
place = (37,106);
type = Stem;
},
{
place = (301,91);
type = Stem;
}
);
layerId = "4476E8FB-E1E7-4AA1-B35B-6BE7AD43F443";
shapes = (
{
closed = 1;
nodes = (
(284,508,o),
(345,441,o),
(358,347,c),
(370,347,l),
(356,508,l),
(276,508,o),
(273,522,o),
(219,522,c),
(110,523,o),
(37,467,o),
(37,376,cs),
(37,313,o),
(72,255,o),
(145,214,cs),
(174,198,ls),
(268,146,o),
(301,122,o),
(301,77,cs),
(301,29,o),
(264,-1,o),
(197,-1,cs),
(134,-1,o),
(61,56,o),
(41,188,c),
(28,188,l),
(52,0,l),
(153,0,o),
(140,-14,o),
(204,-14,c),
(328,-13,o),
(392,42,o),
(392,144,cs),
(392,225,o),
(351,271,o),
(258,319,cs),
(228,334,ls),
(162,369,o),
(143,396,o),
(143,432,cs),
(143,480,o),
(175,508,o),
(226,508,cs)
);
}
);
width = 416;
}
);
leftKerningGroup = s2;
rightKerningGroup = s;
unicode = 115;
},
{
glyphname = t;
layers = (
{
hints = (
{
horizontal = 1;
place = (-14,61);
type = Stem;
},
{
horizontal = 1;
place = (490,18);
type = Stem;
},
{
place = (99,144);
type = Stem;
}
);
layerId = "4476E8FB-E1E7-4AA1-B35B-6BE7AD43F443";
shapes = (
{
closed = 1;
nodes = (
(366,490,l),
(376,508,l),
(243,508,l),
(243,652,l),
(227,652,l),
(181,565,o),
(105,509,o),
(14,503,c),
(14,490,l),
(99,490,l),
(99,105,ls),
(99,35,o),
(148,-14,o),
(217,-14,cs),
(274,-14,o),
(339,22,o),
(383,77,c),
(383,87,l),
(355,63,o),
(321,47,o),
(297,47,cs),
(262,47,o),
(243,75,o),
(243,127,cs),
(243,490,l)
);
}
);
width = 396;
}
);
leftKerningGroup = J;
rightKerningGroup = t;
unicode = 116;
},
{
glyphname = u;
layers = (
{
hints = (
{
horizontal = 1;
place = (-14,40);
type = Stem;
},
{
horizontal = 1;
place = (0,9);
type = Stem;
},
{
horizontal = 1;
place = (498,10);
type = Stem;
},
{
horizontal = 1;
place = (546,-20);
target = down;
type = TopGhost;
},
{
place = (68,143);
type = Stem;
},
{
place = (405,144);
type = Stem;
}
);
layerId = "4476E8FB-E1E7-4AA1-B35B-6BE7AD43F443";
shapes = (
{
closed = 1;
nodes = (
(405,124,l),
(372,65,o),
(324,26,o),
(283,26,cs),
(240,26,o),
(211,70,o),
(211,136,cs),
(211,546,l),
(201,546,l),
(187,523,o),
(158,508,o),
(88,508,cs),
(-13,508,l),
(-13,498,l),
(56,498,o),
(68,466,o),
(68,418,cs),
(68,146,ls),
(68,50,o),
(127,-14,o),
(216,-14,cs),
(295,-14,o),
(372,33,o),
(407,101,c),
(408,-28,l),
(413,-28,l),
(427,-6,o),
(460,0,o),
(530,0,cs),
(629,0,l),
(629,9,l),
(581,9,o),
(549,42,o),
(549,90,c),
(550,546,l),
(540,546,l),
(526,523,o),
(496,508,o),
(426,508,cs),
(325,508,l),
(325,498,l),
(383,498,o),
(405,466,o),
(405,418,cs)
);
}
);
width = 612;
}
);
leftKerningGroup = u;
rightKerningGroup = d;
unicode = 117;
},
{
glyphname = v;
layers = (
{
hints = (
{
horizontal = 1;
place = (-16,21);
target = up;
type = BottomGhost;
},
{
horizontal = 1;
place = (498,10);
type = Stem;
},
{
place = (-42,557);
type = Stem;
}
);
layerId = "4476E8FB-E1E7-4AA1-B35B-6BE7AD43F443";
shapes = (
{
closed = 1;
nodes = (
(422,402,ls),
(447,458,o),
(481,490,o),
(515,498,c),
(515,508,l),
(357,508,l),
(357,498,l),
(393,494,o),
(414,471,o),
(414,438,cs),
(414,425,o),
(411,410,o),
(404,393,cs),
(302,158,l),
(199,399,ls),
(176,453,o),
(191,493,o),
(238,498,c),
(238,508,l),
(-42,508,l),
(-42,498,l),
(-4,497,o),
(17,475,o),
(30,444,cs),
(229,-16,l),
(238,-16,l)
);
}
);
width = 475;
}
);
leftKerningGroup = v2;
rightKerningGroup = v;
unicode = 118;
},
{
glyphname = w;
layers = (
{
hints = (
{
horizontal = 1;
place = (-16,21);
target = up;
type = BottomGhost;
},
{
horizontal = 1;
place = (498,10);
type = Stem;
},
{
place = (-44,818);
type = Stem;
},
{
place = (273,208);
type = Stem;
},
{
place = (683,91);
type = Stem;
}
);
layerId = "4476E8FB-E1E7-4AA1-B35B-6BE7AD43F443";
shapes = (
{
closed = 1;
nodes = (
(385,322,l),
(517,-16,l),
(525,-16,l),
(690,402,ls),
(712,458,o),
(744,490,o),
(774,498,c),
(774,508,l),
(632,508,l),
(632,498,l),
(665,494,o),
(683,471,o),
(683,438,cs),
(683,425,o),
(680,410,o),
(674,393,c),
(582,158,l),
(490,399,ls),
(469,453,o),
(483,493,o),
(525,498,c),
(525,508,l),
(273,508,l),
(273,498,l),
(307,497,o),
(326,475,o),
(338,444,cs),
(379,339,l),
(301,158,l),
(198,399,l),
(174,453,o),
(190,493,o),
(237,498,c),
(237,508,l),
(-44,508,l),
(-44,498,l),
(-6,497,o),
(15,475,o),
(29,444,cs),
(227,-16,l),
(237,-16,l)
);
}
);
width = 730;
}
);
leftKerningGroup = v2;
rightKerningGroup = v;
unicode = 119;
},
{
glyphname = x;
layers = (
{
hints = (
{
horizontal = 1;
place = (0,10);
type = Stem;
},
{
horizontal = 1;
place = (498,10);
type = Stem;
},
{
place = (-5,100);
type = Stem;
},
{
place = (382,112);
type = Stem;
}
);
layerId = "4476E8FB-E1E7-4AA1-B35B-6BE7AD43F443";
shapes = (
{
closed = 1;
nodes = (
(508,0,l),
(508,10,l),
(483,13,o),
(469,25,o),
(447,61,cs),
(393,150,o),
(348,224,o),
(301,303,c),
(382,415,ls),
(426,476,o),
(457,494,o),
(494,498,c),
(494,508,l),
(349,508,l),
(349,498,l),
(389,496,o),
(394,456,o),
(361,409,cs),
(294,315,l),
(275,346,o),
(257,378,o),
(237,412,cs),
(214,451,o),
(211,496,o),
(255,498,c),
(255,508,l),
(-5,508,l),
(-5,498,l),
(22,495,o),
(35,482,o),
(64,436,cs),
(111,359,o),
(151,293,o),
(192,224,c),
(97,93,ls),
(53,32,o),
(22,14,o),
(-5,10,c),
(-5,0,l),
(140,0,l),
(140,10,l),
(94,12,o),
(81,47,o),
(111,89,cs),
(199,213,l),
(221,176,o),
(244,138,o),
(267,97,cs),
(296,48,o),
(289,12,o),
(248,10,c),
(248,0,l)
);
}
);
width = 496;
}
);
leftKerningGroup = J;
unicode = 120;
},
{
glyphname = y;
layers = (
{
hints = (
{
horizontal = 1;
place = (-224,109);
type = Stem;
},
{
horizontal = 1;
place = (498,10);
type = Stem;
},
{
place = (-67,552);
type = Stem;
},
{
place = (404,81);
type = Stem;
}
);
layerId = "4476E8FB-E1E7-4AA1-B35B-6BE7AD43F443";
shapes = (
{
closed = 1;
nodes = (
(412,402,l),
(437,458,o),
(455,491,o),
(485,498,c),
(485,508,l),
(347,508,l),
(347,498,l),
(384,494,o),
(404,471,o),
(404,438,cs),
(404,425,o),
(401,410,o),
(394,393,cs),
(293,156,l),
(192,393,ls),
(185,410,o),
(182,425,o),
(182,438,cs),
(182,471,o),
(202,494,o),
(238,498,c),
(238,508,l),
(-51,508,l),
(-51,498,l),
(-13,497,o),
(7,475,o),
(21,444,cs),
(219,-15,l),
(208,-42,ls),
(184,-97,o),
(137,-115,o),
(86,-115,cs),
(46,-115,o),
(5,-104,o),
(-28,-91,c),
(-67,-208,l),
(-40,-219,o),
(-13,-224,o),
(12,-224,cs),
(94,-224,o),
(166,-170,o),
(208,-72,cs)
);
}
);
width = 446;
}
);
leftKerningGroup = J;
rightKerningGroup = v;
unicode = 121;
},
{
glyphname = z;
layers = (
{
hints = (
{
horizontal = 1;
place = (0,13);
type = Stem;
},
{
horizontal = 1;
place = (496,12);
type = Stem;
},
{
place = (26,415);
type = Stem;
}
);
layerId = "4476E8FB-E1E7-4AA1-B35B-6BE7AD43F443";
shapes = (
{
closed = 1;
nodes = (
(69,508,l),
(48,347,l),
(60,347,l),
(76,451,o),
(124,496,o),
(200,496,cs),
(270,496,l),
(26,10,l),
(26,0,l),
(416,0,l),
(441,183,l),
(429,183,l),
(411,64,o),
(362,13,o),
(281,13,cs),
(175,13,l),
(421,498,l),
(421,508,l)
);
}
);
width = 481;
}
);
leftKerningGroup = z2;
rightKerningGroup = z;
unicode = 122;
},
{
glyphname = braceleft;
layers = (
{
hints = (
{
horizontal = 1;
place = (345,10);
type = Stem;
},
{
place = (99,150);
type = Stem;
}
);
layerId = "4476E8FB-E1E7-4AA1-B35B-6BE7AD43F443";
shapes = (
{
closed = 1;
nodes = (
(308,854,l),
(148,827,o),
(77,731,o),
(105,541,cs),
(119,448,o),
(115,355,o),
(31,355,c),
(31,345,l),
(115,345,o),
(120,251,o),
(105,156,cs),
(77,-32,o),
(148,-128,o),
(308,-155,c),
(308,-145,l),
(248,-118,o),
(235,-53,o),
(244,15,c),
(275,230,o),
(165,321,o),
(71,350,c),
(165,380,o),
(275,469,o),
(244,684,c),
(235,752,o),
(248,817,o),
(308,844,c)
);
}
);
width = 318;
}
);
leftKerningGroup = J;
unicode = 123;
},
{
glyphname = bar;
layers = (
{
hints = (
{
horizontal = 1;
place = (-70,890);
type = Stem;
},
{
place = (30,10);
type = Stem;
}
);
layerId = "4476E8FB-E1E7-4AA1-B35B-6BE7AD43F443";
shapes = (
{
closed = 1;
nodes = (
(30,-70,l),
(40,-70,l),
(40,820,l),
(30,820,l)
);
}
);
width = 71;
}
);
leftKerningGroup = J;
unicode = 124;
},
{
glyphname = braceright;
layers = (
{
hints = (
{
horizontal = 1;
place = (345,10);
type = Stem;
},
{
place = (69,138);
type = Stem;
},
{
place = (69,151);
type = Stem;
}
);
layerId = "4476E8FB-E1E7-4AA1-B35B-6BE7AD43F443";
shapes = (
{
closed = 1;
nodes = (
(11,844,l),
(71,817,o),
(84,752,o),
(74,684,cs),
(44,469,o),
(154,380,o),
(248,351,c),
(154,321,o),
(44,230,o),
(74,15,cs),
(84,-53,o),
(71,-118,o),
(11,-145,c),
(11,-155,l),
(171,-128,o),
(242,-32,o),
(213,156,cs),
(199,251,o),
(204,345,o),
(288,345,c),
(288,355,l),
(204,355,o),
(200,448,o),
(214,541,cs),
(242,731,o),
(171,827,o),
(11,854,c)
);
}
);
width = 318;
}
);
leftKerningGroup = J;
unicode = 125;
},
{
glyphname = asciitilde;
layers = (
{
hints = (
{
horizontal = 1;
place = (273,66);
type = Stem;
},
{
horizontal = 1;
place = (341,66);
type = Stem;
},
{
place = (51,410);
type = Stem;
}
);
layerId = "4476E8FB-E1E7-4AA1-B35B-6BE7AD43F443";
shapes = (
{
closed = 1;
nodes = (
(451,399,l),
(434,364,o),
(405,339,o),
(376,339,cs),
(310,339,o),
(251,407,o),
(178,407,cs),
(129,407,o),
(84,348,o),
(51,282,c),
(62,282,l),
(76,313,o),
(117,341,o),
(147,341,cs),
(212,341,o),
(271,273,o),
(345,273,cs),
(400,273,o),
(439,333,o),
(461,399,c)
);
}
);
width = 512;
}
);
leftKerningGroup = J;
unicode = 126;
},
{
glyphname = exclamdown;
layers = (
{
hints = (
{
horizontal = 1;
place = (-214,21);
target = up;
type = BottomGhost;
},
{
place = (52,170);
type = Stem;
}
);
layerId = "4476E8FB-E1E7-4AA1-B35B-6BE7AD43F443";
shapes = (
{
closed = 1;
nodes = (
(52,-180,o),
(86,-214,o),
(137,-214,cs),
(188,-214,o),
(222,-180,o),
(222,-128,cs),
(222,-47,o),
(141,22,o),
(143,269,c),
(133,269,l),
(136,22,o),
(52,-47,o),
(52,-128,cs)
);
},
{
closed = 1;
nodes = (
(224,390,o),
(186,352,o),
(139,352,cs),
(93,352,o),
(54,390,o),
(54,436,cs),
(54,483,o),
(93,522,o),
(139,522,cs),
(185,522,o),
(224,483,o),
(224,436,cs)
);
}
);
width = 269;
}
);
leftKerningGroup = J;
unicode = 161;
},
{
glyphname = cent;
layers = (
{
hints = (
{
horizontal = 1;
place = (-14,89);
type = Stem;
},
{
horizontal = 1;
place = (507,15);
type = Stem;
},
{
place = (48,127);
type = Stem;
},
{
place = (279,10);
type = Stem;
}
);
layerId = "4476E8FB-E1E7-4AA1-B35B-6BE7AD43F443";
shapes = (
{
closed = 1;
nodes = (
(279,90,l),
(215,122,o),
(175,204,o),
(175,312,cs),
(175,425,o),
(218,506,o),
(279,507,c)
);
},
{
closed = 1;
nodes = (
(48,96,o),
(142,-13,o),
(279,-14,c),
(279,-104,l),
(289,-104,l),
(289,-14,l),
(395,-11,o),
(484,58,o),
(518,166,c),
(508,169,l),
(469,112,o),
(404,75,o),
(343,75,cs),
(323,75,o),
(305,79,o),
(289,85,c),
(289,506,l),
(344,498,o),
(378,416,o),
(378,286,c),
(498,353,l),
(483,462,o),
(395,523,o),
(289,522,c),
(289,612,l),
(279,612,l),
(279,522,l),
(142,515,o),
(48,406,o),
(48,251,cs)
);
}
);
width = 567;
}
);
leftKerningGroup = c2;
unicode = 162;
},
{
glyphname = sterling;
layers = (
{
hints = (
{
horizontal = 1;
place = (0,133);
type = Stem;
},
{
horizontal = 1;
place = (348,13);
type = Stem;
},
{
horizontal = 1;
place = (749,15);
type = Stem;
},
{
horizontal = 1;
place = (750,-20);
target = down;
type = TopGhost;
},
{
place = (85,139);
type = Stem;
},
{
place = (163,111);
type = Stem;
}
);
layerId = "4476E8FB-E1E7-4AA1-B35B-6BE7AD43F443";
shapes = (
{
closed = 1;
nodes = (
(165,184,o),
(119,95,o),
(39,13,c),
(39,0,l),
(528,0,l),
(559,223,l),
(549,223,l),
(533,142,o),
(539,133,o),
(360,133,cs),
(146,133,l),
(209,181,o),
(256,261,o),
(270,348,c),
(417,348,l),
(417,361,l),
(272,361,l),
(274,376,o),
(274,393,o),
(274,405,c),
(272,476,o),
(224,546,o),
(224,623,cs),
(224,696,o),
(268,749,o),
(329,749,cs),
(413,749,o),
(503,642,o),
(518,526,c),
(528,526,l),
(496,750,l),
(433,750,o),
(397,764,o),
(336,764,cs),
(186,764,o),
(85,680,o),
(85,556,cs),
(85,486,o),
(117,423,o),
(140,361,c),
(71,361,l),
(71,348,l),
(144,348,l),
(157,313,o),
(162,285,o),
(163,260,cs)
);
}
);
width = 599;
}
);
leftKerningGroup = J;
unicode = 163;
},
{
glyphname = currency;
layers = (
{
hints = (
{
horizontal = 1;
place = (199,11);
type = Stem;
},
{
horizontal = 1;
place = (468,11);
type = Stem;
},
{
place = (62,12);
type = Stem;
},
{
place = (340,12);
type = Stem;
}
);
layerId = "4476E8FB-E1E7-4AA1-B35B-6BE7AD43F443";
shapes = (
{
closed = 1;
nodes = (
(74,409,o),
(135,468,o),
(207,468,cs),
(279,468,o),
(340,409,o),
(340,339,cs),
(340,270,o),
(279,210,o),
(207,210,cs),
(135,210,o),
(74,270,o),
(74,339,cs)
);
},
{
closed = 1;
nodes = (
(62,301,o),
(78,267,o),
(103,242,c),
(36,175,l),
(43,168,l),
(110,235,l),
(136,212,o),
(170,199,o),
(207,199,cs),
(244,199,o),
(278,212,o),
(304,235,c),
(371,168,l),
(378,175,l),
(311,242,l),
(336,267,o),
(352,301,o),
(352,339,cs),
(352,378,o),
(336,412,o),
(311,437,c),
(378,503,l),
(371,510,l),
(304,443,l),
(278,466,o),
(244,479,o),
(207,479,cs),
(170,479,o),
(136,466,o),
(110,443,c),
(43,510,l),
(36,503,l),
(102,436,l),
(78,412,o),
(62,378,o),
(62,339,cs)
);
}
);
width = 413;
}
);
leftKerningGroup = J;
unicode = 164;
},
{
glyphname = yen;
layers = (
{
hints = (
{
horizontal = 1;
place = (0,10);
type = Stem;
},
{
horizontal = 1;
place = (336,13);
type = Stem;
},
{
horizontal = 1;
place = (435,13);
type = Stem;
},
{
horizontal = 1;
place = (740,10);
type = Stem;
},
{
place = (283,145);
type = Stem;
},
{
place = (570,119);
type = Stem;
}
);
layerId = "4476E8FB-E1E7-4AA1-B35B-6BE7AD43F443";
shapes = (
{
closed = 1;
nodes = (
(499,740,l),
(578,740,o),
(590,690,o),
(539,621,cs),
(418,458,l),
(288,634,ls),
(246,690,o),
(264,740,o),
(337,740,c),
(337,750,l),
(-2,750,l),
(-2,740,l),
(-1,740,l),
(33,740,o),
(56,724,o),
(73,702,cs),
(269,448,l),
(79,448,l),
(79,435,l),
(279,435,l),
(283,430,l),
(283,349,l),
(79,349,l),
(79,336,l),
(283,336,l),
(283,90,ls),
(283,42,o),
(251,10,o),
(203,10,cs),
(201,10,l),
(200,0,l),
(509,0,l),
(508,10,l),
(506,10,ls),
(460,10,o),
(428,43,o),
(428,90,cs),
(428,336,l),
(633,336,l),
(633,349,l),
(428,349,l),
(428,435,l),
(633,435,l),
(633,448,l),
(428,448,l),
(568,637,ls),
(613,697,o),
(644,737,o),
(689,740,c),
(689,750,l),
(499,750,l)
);
}
);
width = 689;
}
);
leftKerningGroup = J;
unicode = 165;
},
{
glyphname = brokenbar;
layers = (
{
hints = (
{
horizontal = 1;
place = (-70,890);
type = Stem;
},
{
place = (30,10);
type = Stem;
}
);
layerId = "4476E8FB-E1E7-4AA1-B35B-6BE7AD43F443";
shapes = (
{
closed = 1;
nodes = (
(40,410,l),
(40,820,l),
(30,820,l),
(30,410,l)
);
},
{
closed = 1;
nodes = (
(30,290,l),
(30,-70,l),
(40,-70,l),
(40,290,l)
);
}
);
width = 71;
}
);
leftKerningGroup = J;
unicode = 166;
},
{
glyphname = section;
layers = (
{
hints = (
{
horizontal = 1;
place = (-186,15);
type = Stem;
},
{
horizontal = 1;
place = (749,15);
type = Stem;
},
{
place = (43,83);
type = Stem;
},
{
place = (43,116);
type = Stem;
},
{
place = (333,100);
type = Stem;
},
{
place = (355,78);
type = Stem;
}
);
layerId = "4476E8FB-E1E7-4AA1-B35B-6BE7AD43F443";
shapes = (
{
closed = 1;
nodes = (
(293,163,o),
(279,172,o),
(264,181,cs),
(177,230,o),
(126,288,o),
(126,337,cs),
(126,371,o),
(150,407,o),
(183,425,c),
(190,421,o),
(196,418,o),
(203,414,cs),
(294,364,o),
(355,291,o),
(355,235,cs),
(355,203,o),
(336,171,o),
(307,153,c)
);
},
{
closed = 1;
nodes = (
(59,-171,l),
(170,-171,o),
(156,-186,o),
(218,-186,cs),
(344,-186,o),
(433,-123,o),
(433,-34,cs),
(433,27,o),
(391,91,o),
(317,146,c),
(385,171,o),
(433,241,o),
(433,318,cs),
(433,400,o),
(378,473,o),
(274,531,c),
(196,573,o),
(159,618,o),
(159,668,cs),
(159,716,o),
(194,749,o),
(245,749,cs),
(320,749,o),
(381,678,o),
(396,572,c),
(406,572,l),
(397,749,l),
(309,749,o),
(302,764,o),
(242,764,cs),
(125,764,o),
(43,705,o),
(43,621,cs),
(43,557,o),
(90,488,o),
(168,435,c),
(94,411,o),
(43,344,o),
(43,271,cs),
(43,195,o),
(97,121,o),
(196,62,cs),
(280,12,o),
(333,-48,o),
(333,-94,cs),
(333,-138,o),
(287,-171,o),
(228,-171,cs),
(136,-171,o),
(62,-90,o),
(43,36,c),
(33,36,l)
);
}
);
width = 513;
}
);
leftKerningGroup = J;
unicode = 167;
},
{
glyphname = dieresis;
layers = (
{
hints = (
{
horizontal = 1;
place = (604,150);
type = Stem;
},
{
place = (32,150);
type = Stem;
},
{
place = (230,150);
type = Stem;
}
);
layerId = "4476E8FB-E1E7-4AA1-B35B-6BE7AD43F443";
shapes = (
{
closed = 1;
nodes = (
(32,638,o),
(66,604,o),
(107,604,cs),
(147,604,o),
(182,638,o),
(182,679,cs),
(182,720,o),
(147,754,o),
(107,754,cs),
(66,754,o),
(32,720,o),
(32,679,cs)
);
},
{
closed = 1;
nodes = (
(230,638,o),
(264,604,o),
(305,604,cs),
(345,604,o),
(380,638,o),
(380,679,cs),
(380,720,o),
(345,754,o),
(305,754,cs),
(264,754,o),
(230,720,o),
(230,679,cs)
);
}
);
width = 411;
}
);
leftKerningGroup = J;
unicode = 168;
},
{
glyphname = copyright;
layers = (
{
hints = (
{
horizontal = 1;
place = (-14,21);
type = Stem;
},
{
horizontal = 1;
place = (128,13);
type = Stem;
},
{
horizontal = 1;
place = (610,12);
type = Stem;
},
{
horizontal = 1;
place = (743,21);
type = Stem;
},
{
place = (38,24);
type = Stem;
},
{
place = (173,110);
type = Stem;
},
{
place = (798,24);
type = Stem;
}
);
layerId = "4476E8FB-E1E7-4AA1-B35B-6BE7AD43F443";
shapes = (
{
closed = 1;
nodes = (
(801,182,o),
(622,3,o),
(430,7,c),
(238,3,o),
(59,182,o),
(62,375,c),
(59,568,o),
(238,746,o),
(430,743,c),
(622,746,o),
(801,568,o),
(798,375,c)
);
},
{
closed = 1;
nodes = (
(597,612,l),
(533,612,o),
(518,622,o),
(462,622,cs),
(287,622,o),
(173,525,o),
(173,376,cs),
(173,227,o),
(286,128,o),
(454,128,cs),
(512,128,o),
(541,139,o),
(603,139,c),
(626,286,l),
(616,286,l),
(596,192,o),
(534,141,o),
(456,141,cs),
(352,141,o),
(283,231,o),
(283,371,cs),
(283,513,o),
(353,610,o),
(453,610,cs),
(532,610,o),
(594,550,o),
(611,464,c),
(621,464,l)
);
},
{
closed = 1;
nodes = (
(33,166,o),
(216,-18,o),
(430,-14,c),
(644,-18,o),
(827,166,o),
(822,375,c),
(827,585,o),
(643,767,o),
(430,764,c),
(216,767,o),
(33,585,o),
(38,375,c)
);
}
);
width = 860;
}
);
leftKerningGroup = J;
unicode = 169;
},
{
glyphname = ordfeminine;
layers = (
{
hints = (
{
horizontal = 1;
place = (362,46);
type = Stem;
},
{
horizontal = 1;
place = (754,10);
type = Stem;
},
{
place = (32,100);
type = Stem;
},
{
place = (256,108);
type = Stem;
}
);
layerId = "4476E8FB-E1E7-4AA1-B35B-6BE7AD43F443";
shapes = (
{
closed = 1;
nodes = (
(256,443,l),
(231,419,o),
(211,408,o),
(189,408,cs),
(156,408,o),
(132,439,o),
(132,481,cs),
(132,525,o),
(148,555,o),
(227,584,cs),
(257,595,l)
);
},
{
closed = 1;
nodes = (
(145,764,o),
(76,723,o),
(50,662,c),
(131,615,l),
(140,701,o),
(168,754,o),
(206,754,cs),
(237,754,o),
(257,719,o),
(257,662,cs),
(257,605,l),
(187,580,ls),
(55,532,o),
(32,497,o),
(32,452,cs),
(32,398,o),
(72,362,o),
(133,362,cs),
(176,362,o),
(208,380,o),
(258,433,c),
(265,390,o),
(294,362,o),
(332,362,cs),
(368,362,o),
(409,386,o),
(434,421,c),
(428,426,l),
(417,413,o),
(406,407,o),
(394,407,cs),
(375,407,o),
(364,423,o),
(365,451,c),
(365,632,ls),
(365,711,o),
(307,764,o),
(221,764,cs)
);
}
);
width = 418;
}
);
leftKerningGroup = J;
unicode = 170;
},
{
glyphname = guillemotleft;
layers = (
{
hints = (
{
horizontal = 1;
place = (96,316);
type = Stem;
},
{
place = (30,289);
type = Stem;
}
);
layerId = "4476E8FB-E1E7-4AA1-B35B-6BE7AD43F443";
shapes = (
{
closed = 1;
nodes = (
(170,261,ls),
(166,257,o),
(166,251,o),
(170,247,cs),
(312,96,l),
(319,103,l),
(240,254,l),
(319,405,l),
(312,412,l)
);
},
{
closed = 1;
nodes = (
(33,261,ls),
(29,257,o),
(29,251,o),
(33,247,cs),
(175,96,l),
(182,103,l),
(103,254,l),
(182,405,l),
(175,412,l)
);
}
);
width = 349;
}
);
leftKerningGroup = J;
unicode = 171;
},
{
glyphname = logicalnot;
layers = (
{
hints = (
{
horizontal = 1;
place = (411,10);
type = Stem;
},
{
place = (365,10);
type = Stem;
}
);
layerId = "4476E8FB-E1E7-4AA1-B35B-6BE7AD43F443";
shapes = (
{
closed = 1;
nodes = (
(365,256,l),
(375,256,l),
(375,421,l),
(45,421,l),
(45,411,l),
(365,411,l)
);
}
);
width = 420;
}
);
leftKerningGroup = J;
unicode = 172;
},
{
glyphname = registered;
layers = (
{
hints = (
{
horizontal = 1;
place = (372,17);
type = Stem;
},
{
horizontal = 1;
place = (450,7);
type = Stem;
},
{
horizontal = 1;
place = (676,7);
type = Stem;
},
{
horizontal = 1;
place = (677,83);
type = Stem;
},
{
horizontal = 1;
place = (743,17);
type = Stem;
},
{
place = (13,20);
type = Stem;
},
{
place = (134,46);
type = Stem;
},
{
place = (238,43);
type = Stem;
},
{
place = (381,20);
type = Stem;
}
);
layerId = "4476E8FB-E1E7-4AA1-B35B-6BE7AD43F443";
shapes = (
{
closed = 1;
nodes = (
(33,673,o),
(101,743,o),
(207,743,cs),
(313,743,o),
(381,673,o),
(381,565,cs),
(381,458,o),
(313,389,o),
(207,389,cs),
(101,389,o),
(33,458,o),
(33,565,cs)
);
},
{
closed = 1;
nodes = (
(197,677,ls),
(222,677,o),
(238,657,o),
(238,623,cs),
(238,589,o),
(221,569,o),
(195,569,cs),
(180,569,l),
(180,677,l)
);
},
{
closed = 1;
nodes = (
(13,449,o),
(90,372,o),
(207,372,cs),
(323,372,o),
(401,449,o),
(401,565,cs),
(401,682,o),
(323,760,o),
(207,760,cs),
(90,760,o),
(13,682,o),
(13,565,cs)
);
},
{
closed = 1;
nodes = (
(183,563,ls),
(194,563,o),
(198,559,o),
(209,537,c),
(239,481,l),
(243,471,o),
(250,459,o),
(256,450,c),
(318,450,l),
(318,457,l),
(308,457,o),
(297,466,o),
(289,479,cs),
(257,535,l),
(249,551,o),
(238,562,o),
(231,564,c),
(261,568,o),
(281,592,o),
(281,622,cs),
(281,659,o),
(253,683,o),
(210,683,cs),
(110,683,l),
(110,676,l),
(124,676,o),
(134,666,o),
(134,652,cs),
(134,478,ls),
(134,465,o),
(124,457,o),
(110,457,c),
(110,450,l),
(205,450,l),
(205,457,l),
(190,457,o),
(180,465,o),
(180,478,cs),
(180,563,l)
);
}
);
width = 414;
}
);
leftKerningGroup = J;
unicode = 174;
},
{
glyphname = macron;
layers = (
{
hints = (
{
horizontal = 1;
place = (671,53);
type = Stem;
},
{
place = (32,220);
type = Stem;
}
);
layerId = "4476E8FB-E1E7-4AA1-B35B-6BE7AD43F443";
shapes = (
{
closed = 1;
nodes = (
(32,671,l),
(252,671,l),
(252,724,l),
(32,724,l)
);
}
);
width = 283;
}
);
leftKerningGroup = J;
unicode = 175;
},
{
glyphname = degree;
layers = (
{
hints = (
{
horizontal = 1;
place = (558,19);
type = Stem;
},
{
horizontal = 1;
place = (766,19);
type = Stem;
},
{
place = (34,25);
type = Stem;
},
{
place = (246,24);
type = Stem;
}
);
layerId = "4476E8FB-E1E7-4AA1-B35B-6BE7AD43F443";
shapes = (
{
closed = 1;
nodes = (
(59,723,o),
(101,766,o),
(152,766,cs),
(203,766,o),
(246,723,o),
(246,671,cs),
(246,621,o),
(203,577,o),
(152,577,cs),
(101,577,o),
(59,621,o),
(59,671,cs)
);
},
{
closed = 1;
nodes = (
(34,608,o),
(88,558,o),
(152,558,cs),
(216,558,o),
(270,608,o),
(270,671,cs),
(270,737,o),
(216,785,o),
(152,785,cs),
(88,785,o),
(34,737,o),
(34,671,cs)
);
}
);
width = 304;
}
);
leftKerningGroup = J;
unicode = 176;
},
{
glyphname = plusminus;
layers = (
{
hints = (
{
horizontal = 1;
place = (134,10);
type = Stem;
},
{
horizontal = 1;
place = (374,10);
type = Stem;
},
{
place = (206,10);
type = Stem;
}
);
layerId = "4476E8FB-E1E7-4AA1-B35B-6BE7AD43F443";
shapes = (
{
closed = 1;
nodes = (
(45,134,l),
(375,134,l),
(375,144,l),
(45,144,l)
);
},
{
closed = 1;
nodes = (
(216,384,l),
(216,544,l),
(206,544,l),
(206,384,l),
(46,384,l),
(46,374,l),
(206,374,l),
(206,214,l),
(216,214,l),
(216,374,l),
(376,374,l),
(376,384,l)
);
}
);
width = 421;
}
);
leftKerningGroup = J;
unicode = 177;
},
{
glyphname = twosuperior;
layers = (
{
guides = (
{
position = "{0, 764}";
}
);
hints = (
{
horizontal = 1;
place = (351,72);
type = Stem;
},
{
horizontal = 1;
place = (757,7);
type = Stem;
},
{
place = (64,10);
type = Stem;
},
{
place = (220,84);
type = Stem;
}
);
layerId = "4476E8FB-E1E7-4AA1-B35B-6BE7AD43F443";
shapes = (
{
closed = 1;
nodes = (
(46,351,l),
(284,351,l),
(304,472,l),
(295,472,l),
(288,424,o),
(275,422,o),
(229,423,c),
(111,423,l),
(227,510,o),
(304,611,o),
(304,675,cs),
(304,728,o),
(249,764,o),
(174,764,cs),
(142,764,o),
(110,756,o),
(81,756,c),
(64,644,l),
(74,644,l),
(81,688,o),
(112,757,o),
(166,757,cs),
(196,757,o),
(220,727,o),
(220,682,cs),
(220,616,o),
(150,489,o),
(46,361,c)
);
}
);
width = 351;
}
);
leftKerningGroup = J;
unicode = 178;
},
{
glyphname = threesuperior;
layers = (
{
hints = (
{
horizontal = 1;
place = (344,12);
type = Stem;
},
{
horizontal = 1;
place = (580,29);
type = Stem;
},
{
horizontal = 1;
place = (752,12);
type = Stem;
},
{
place = (46,9);
type = Stem;
},
{
place = (56,9);
type = Stem;
},
{
place = (187,81);
type = Stem;
},
{
place = (222,78);
type = Stem;
}
);
layerId = "4476E8FB-E1E7-4AA1-B35B-6BE7AD43F443";
shapes = (
{
closed = 1;
nodes = (
(300,564,o),
(254,615,o),
(185,609,c),
(236,628,o),
(268,663,o),
(268,697,cs),
(268,737,o),
(226,764,o),
(165,764,cs),
(130,764,o),
(109,756,o),
(73,756,c),
(56,643,l),
(65,643,l),
(75,713,o),
(110,752,o),
(155,752,cs),
(177,752,o),
(187,742,o),
(187,707,cs),
(187,656,o),
(164,617,o),
(110,577,c),
(110,567,l),
(126,576,o),
(142,580,o),
(156,580,cs),
(195,580,o),
(222,544,o),
(222,479,cs),
(222,403,o),
(186,356,o),
(143,356,cs),
(100,356,o),
(64,399,o),
(55,472,c),
(46,472,l),
(63,351,l),
(97,351,o),
(117,344,o),
(151,344,cs),
(237,344,o),
(300,399,o),
(300,483,cs)
);
}
);
width = 343;
}
);
leftKerningGroup = J;
unicode = 179;
},
{
glyphname = acute;
layers = (
{
hints = (
{
horizontal = 1;
place = (581,203);
type = Stem;
},
{
place = (31,207);
type = Stem;
}
);
layerId = "4476E8FB-E1E7-4AA1-B35B-6BE7AD43F443";
shapes = (
{
closed = 1;
nodes = (
(238,721,l),
(238,726,l),
(173,784,l),
(168,784,l),
(31,591,l),
(38,581,l)
);
}
);
width = 269;
}
);
leftKerningGroup = J;
unicode = 180;
},
{
glyphname = paragraph;
layers = (
{
hints = (
{
horizontal = 1;
place = (740,10);
type = Stem;
},
{
place = (227,11);
type = Stem;
},
{
place = (312,11);
type = Stem;
}
);
layerId = "4476E8FB-E1E7-4AA1-B35B-6BE7AD43F443";
shapes = (
{
closed = 1;
nodes = (
(323,750,l),
(192,750,ls),
(90,750,o),
(30,695,o),
(30,602,cs),
(30,509,o),
(90,454,o),
(192,454,cs),
(227,454,l),
(227,-50,l),
(238,-50,l),
(238,740,l),
(312,740,l),
(312,-50,l),
(323,-50,l)
);
}
);
width = 354;
}
);
leftKerningGroup = J;
unicode = 182;
},
{
glyphname = periodcentered;
layers = (
{
hints = (
{
horizontal = 1;
place = (169,170);
type = Stem;
},
{
place = (31,170);
type = Stem;
}
);
layerId = "4476E8FB-E1E7-4AA1-B35B-6BE7AD43F443";
shapes = (
{
closed = 1;
nodes = (
(31,208,o),
(70,169,o),
(116,169,cs),
(162,169,o),
(201,208,o),
(201,254,cs),
(201,301,o),
(162,339,o),
(116,339,cs),
(70,339,o),
(31,301,o),
(31,254,cs)
);
}
);
width = 231;
}
);
leftKerningGroup = J;
unicode = 183;
},
{
glyphname = cedilla;
layers = (
{
hints = (
{
horizontal = 1;
place = (-225,17);
type = Stem;
},
{
horizontal = 1;
place = (-218,21);
target = up;
type = BottomGhost;
},
{
horizontal = 1;
place = (-63,7);
type = Stem;
},
{
place = (92,14);
type = Stem;
},
{
place = (149,80);
type = Stem;
}
);
layerId = "4476E8FB-E1E7-4AA1-B35B-6BE7AD43F443";
shapes = (
{
closed = 1;
nodes = (
(115,0,l),
(92,-57,l),
(92,-63,l),
(124,-69,o),
(149,-106,o),
(149,-150,cs),
(149,-186,o),
(132,-208,o),
(106,-208,cs),
(75,-208,o),
(51,-177,o),
(38,-119,c),
(27,-119,l),
(46,-218,l),
(81,-218,o),
(88,-225,o),
(120,-225,cs),
(186,-225,o),
(229,-193,o),
(229,-145,cs),
(229,-92,o),
(180,-57,o),
(106,-56,c),
(129,0,l)
);
}
);
width = 260;
}
);
leftKerningGroup = J;
unicode = 184;
},
{
glyphname = onesuperior;
layers = (
{
hints = (
{
horizontal = 1;
place = (351,10);
type = Stem;
},
{
horizontal = 1;
place = (673,10);
type = Stem;
},
{
horizontal = 1;
place = (764,-20);
target = down;
type = TopGhost;
},
{
place = (103,90);
type = Stem;
}
);
layerId = "4476E8FB-E1E7-4AA1-B35B-6BE7AD43F443";
shapes = (
{
closed = 1;
nodes = (
(193,764,l),
(183,764,l),
(176,731,o),
(130,683,o),
(59,683,cs),
(46,683,l),
(46,673,l),
(98,670,o),
(103,650,o),
(103,604,cs),
(103,400,ls),
(103,374,o),
(85,361,o),
(59,361,c),
(59,351,l),
(237,351,l),
(237,361,l),
(211,361,o),
(193,374,o),
(193,400,cs)
);
}
);
width = 279;
}
);
leftKerningGroup = J;
unicode = 185;
},
{
glyphname = ordmasculine;
layers = (
{
hints = (
{
horizontal = 1;
place = (362,10);
type = Stem;
},
{
horizontal = 1;
place = (755,9);
type = Stem;
},
{
place = (28,126);
type = Stem;
},
{
place = (315,126);
type = Stem;
}
);
layerId = "4476E8FB-E1E7-4AA1-B35B-6BE7AD43F443";
shapes = (
{
closed = 1;
nodes = (
(28,442,o),
(111,362,o),
(235,362,cs),
(358,362,o),
(441,442,o),
(441,563,cs),
(441,684,o),
(358,764,o),
(235,764,cs),
(111,764,o),
(28,684,o),
(28,563,cs)
);
},
{
closed = 1;
nodes = (
(154,675,o),
(186,755,o),
(235,755,cs),
(284,755,o),
(315,675,o),
(315,564,cs),
(315,453,o),
(284,372,o),
(234,372,cs),
(185,372,o),
(154,453,o),
(154,564,cs)
);
}
);
width = 470;
}
);
leftKerningGroup = J;
unicode = 186;
},
{
glyphname = guillemotright;
layers = (
{
hints = (
{
horizontal = 1;
place = (96,316);
type = Stem;
},
{
place = (31,289);
type = Stem;
}
);
layerId = "4476E8FB-E1E7-4AA1-B35B-6BE7AD43F443";
shapes = (
{
closed = 1;
nodes = (
(317,247,ls),
(321,251,o),
(321,257,o),
(317,261,cs),
(175,412,l),
(168,405,l),
(247,254,l),
(168,103,l),
(175,96,l)
);
},
{
closed = 1;
nodes = (
(179,247,ls),
(183,251,o),
(183,257,o),
(179,261,cs),
(38,412,l),
(31,405,l),
(110,254,l),
(31,103,l),
(38,96,l)
);
}
);
width = 350;
}
);
leftKerningGroup = J;
unicode = 187;
},
{
glyphname = onequarter;
layers = (
{
hints = (
{
horizontal = 1;
place = (0,160);
type = Stem;
},
{
horizontal = 1;
place = (92,68);
type = Stem;
},
{
horizontal = 1;
place = (351,10);
type = Stem;
},
{
horizontal = 1;
place = (673,10);
type = Stem;
},
{
horizontal = 1;
place = (750,-20);
target = down;
type = TopGhost;
},
{
horizontal = 1;
place = (764,-20);
target = down;
type = TopGhost;
},
{
place = (113,90);
type = Stem;
},
{
place = (475,83);
type = Stem;
}
);
layerId = "4476E8FB-E1E7-4AA1-B35B-6BE7AD43F443";
shapes = (
{
closed = 1;
nodes = (
(371,160,l),
(475,303,l),
(475,160,l)
);
},
{
closed = 1;
nodes = (
(315,92,l),
(475,92,l),
(475,47,l),
(474,22,o),
(456,6,o),
(431,6,c),
(430,0,l),
(603,0,l),
(602,6,l),
(575,6,o),
(558,23,o),
(558,50,cs),
(558,92,l),
(621,92,l),
(621,160,l),
(558,160,l),
(558,424,l),
(552,424,l),
(315,97,l)
);
},
{
closed = 1;
nodes = (
(194,764,l),
(186,731,o),
(140,683,o),
(69,683,cs),
(55,683,l),
(55,673,l),
(108,670,o),
(113,649,o),
(113,604,cs),
(113,400,ls),
(113,374,o),
(95,361,o),
(69,361,c),
(69,351,l),
(247,351,l),
(247,361,l),
(221,361,o),
(203,374,o),
(203,400,cs),
(203,764,l)
);
},
{
closed = 1;
nodes = (
(613,750,l),
(89,0,l),
(104,0,l),
(628,750,l)
);
}
);
width = 697;
}
);
leftKerningGroup = J;
unicode = 188;
},
{
glyphname = onehalf;
layers = (
{
hints = (
{
horizontal = 1;
place = (0,84);
type = Stem;
},
{
horizontal = 1;
place = (351,10);
type = Stem;
},
{
horizontal = 1;
place = (404,8);
type = Stem;
},
{
horizontal = 1;
place = (673,10);
type = Stem;
},
{
horizontal = 1;
place = (750,-20);
target = down;
type = TopGhost;
},
{
horizontal = 1;
place = (764,-20);
target = down;
type = TopGhost;
},
{
place = (113,90);
type = Stem;
},
{
place = (588,94);
type = Stem;
}
);
layerId = "4476E8FB-E1E7-4AA1-B35B-6BE7AD43F443";
shapes = (
{
closed = 1;
nodes = (
(193,764,l),
(184,720,o),
(127,683,o),
(69,683,cs),
(56,683,l),
(56,673,l),
(102,671,o),
(113,657,o),
(113,604,cs),
(113,400,ls),
(113,375,o),
(96,361,o),
(69,361,c),
(69,351,l),
(247,351,l),
(247,361,l),
(219,361,o),
(203,375,o),
(203,400,cs),
(203,764,l)
);
},
{
closed = 1;
nodes = (
(104,0,l),
(628,750,l),
(613,750,l),
(89,0,l)
);
},
{
closed = 1;
nodes = (
(679,143,l),
(672,91,o),
(664,84,o),
(605,84,cs),
(472,84,l),
(633,187,o),
(682,237,o),
(682,300,cs),
(682,366,o),
(628,412,o),
(548,412,cs),
(512,412,o),
(474,402,o),
(442,402,c),
(422,270,l),
(430,270,l),
(441,341,o),
(490,404,o),
(535,404,cs),
(567,404,o),
(588,371,o),
(588,322,cs),
(588,229,o),
(513,156,o),
(397,6,c),
(397,0,l),
(665,0,l),
(687,143,l)
);
}
);
width = 735;
}
);
leftKerningGroup = J;
unicode = 189;
},
{
glyphname = threequarters;
layers = (
{
hints = (
{
horizontal = 1;
place = (0,160);
type = Stem;
},
{
horizontal = 1;
place = (92,68);
type = Stem;
},
{
horizontal = 1;
place = (344,12);
type = Stem;
},
{
horizontal = 1;
place = (580,29);
type = Stem;
},
{
horizontal = 1;
place = (750,-20);
target = down;
type = TopGhost;
},
{
horizontal = 1;
place = (752,12);
type = Stem;
},
{
place = (65,9);
type = Stem;
},
{
place = (75,9);
type = Stem;
},
{
place = (206,81);
type = Stem;
},
{
place = (241,78);
type = Stem;
},
{
place = (475,83);
type = Stem;
}
);
layerId = "4476E8FB-E1E7-4AA1-B35B-6BE7AD43F443";
shapes = (
{
closed = 1;
nodes = (
(371,160,l),
(475,303,l),
(475,160,l)
);
},
{
closed = 1;
nodes = (
(315,92,l),
(475,92,l),
(475,47,l),
(474,22,o),
(456,6,o),
(431,6,c),
(430,0,l),
(603,0,l),
(602,6,l),
(575,6,o),
(558,23,o),
(558,50,cs),
(558,92,l),
(621,92,l),
(621,160,l),
(558,160,l),
(558,424,l),
(552,424,l),
(315,97,l)
);
},
{
closed = 1;
nodes = (
(633,750,l),
(109,0,l),
(124,0,l),
(648,750,l)
);
},
{
closed = 1;
nodes = (
(319,564,o),
(273,615,o),
(204,609,c),
(255,628,o),
(287,663,o),
(287,697,cs),
(287,737,o),
(245,764,o),
(184,764,cs),
(149,764,o),
(128,756,o),
(92,756,c),
(75,643,l),
(84,643,l),
(94,713,o),
(129,752,o),
(174,752,cs),
(196,752,o),
(206,742,o),
(206,707,cs),
(206,656,o),
(183,617,o),
(129,577,c),
(129,567,l),
(145,576,o),
(161,580,o),
(175,580,cs),
(214,580,o),
(241,544,o),
(241,479,cs),
(241,403,o),
(205,356,o),
(162,356,cs),
(119,356,o),
(83,399,o),
(74,472,c),
(65,472,l),
(82,351,l),
(116,351,o),
(136,344,o),
(170,344,cs),
(256,344,o),
(319,399,o),
(319,483,cs)
);
}
);
width = 717;
}
);
leftKerningGroup = J;
unicode = 190;
},
{
glyphname = questiondown;
layers = (
{
hints = (
{
horizontal = 1;
place = (-214,14);
type = Stem;
},
{
place = (30,158);
type = Stem;
},
{
place = (259,10);
type = Stem;
}
);
layerId = "4476E8FB-E1E7-4AA1-B35B-6BE7AD43F443";
shapes = (
{
closed = 1;
nodes = (
(259,269,l),
(259,38,o),
(30,40,o),
(30,-97,cs),
(30,-192,o),
(151,-214,o),
(225,-214,cs),
(278,-214,o),
(330,-201,o),
(383,-200,c),
(416,52,l),
(406,52,l),
(393,-35,o),
(361,-200,o),
(247,-200,cs),
(197,-200,o),
(188,-162,o),
(188,-120,cs),
(188,8,o),
(269,85,o),
(269,269,c)
);
},
{
closed = 1;
nodes = (
(348,391,o),
(309,352,o),
(263,352,cs),
(217,352,o),
(178,391,o),
(178,436,cs),
(178,482,o),
(217,522,o),
(263,522,cs),
(309,522,o),
(348,482,o),
(348,436,cs)
);
}
);
width = 434;
}
);
leftKerningGroup = J;
unicode = 191;
},
{
glyphname = Agrave;
layers = (
{
hints = (
{
horizontal = 1;
place = (0,10);
type = Stem;
},
{
horizontal = 1;
place = (263,13);
type = Stem;
},
{
horizontal = 1;
place = (765,-20);
target = down;
type = TopGhost;
},
{
place = (-24,111);
type = Stem;
}
);
layerId = "4476E8FB-E1E7-4AA1-B35B-6BE7AD43F443";
shapes = (
{
closed = 1;
nodes = (
(155,276,l),
(272,564,l),
(386,276,l)
);
},
{
closed = 1;
nodes = (
(77,119,ls),
(55,66,o),
(13,13,o),
(-24,10,c),
(-24,0,l),
(171,0,l),
(171,10,l),
(105,13,o),
(70,66,o),
(94,124,cs),
(150,263,l),
(391,263,l),
(451,114,ls),
(477,49,o),
(455,10,o),
(395,10,cs),
(391,10,l),
(391,0,l),
(711,0,l),
(711,10,l),
(708,10,ls),
(673,10,o),
(639,48,o),
(610,119,cs),
(350,765,l),
(341,765,l)
);
},
{
closed = 1;
nodes = (
(403,783,l),
(265,976,l),
(260,976,l),
(196,918,l),
(196,913,l),
(396,773,l)
);
}
);
width = 684;
}
);
leftKerningGroup = A2;
rightKerningGroup = A;
unicode = 192;
},
{
glyphname = Aacute;
layers = (
{
hints = (
{
horizontal = 1;
place = (0,10);
type = Stem;
},
{
horizontal = 1;
place = (263,13);
type = Stem;
},
{
horizontal = 1;
place = (765,-20);
target = down;
type = TopGhost;
},
{
place = (-24,111);
type = Stem;
}
);
layerId = "4476E8FB-E1E7-4AA1-B35B-6BE7AD43F443";
shapes = (
{
closed = 1;
nodes = (
(155,276,l),
(272,564,l),
(386,276,l)
);
},
{
closed = 1;
nodes = (
(77,119,ls),
(55,66,o),
(13,13,o),
(-24,10,c),
(-24,0,l),
(171,0,l),
(171,10,l),
(105,13,o),
(70,66,o),
(94,124,cs),
(150,263,l),
(391,263,l),
(451,114,ls),
(477,49,o),
(455,10,o),
(395,10,cs),
(391,10,l),
(391,0,l),
(711,0,l),
(711,10,l),
(708,10,ls),
(673,10,o),
(639,48,o),
(610,119,cs),
(350,765,l),
(341,765,l)
);
},
{
closed = 1;
nodes = (
(433,976,l),
(428,976,l),
(290,783,l),
(297,773,l),
(497,913,l),
(497,918,l)
);
}
);
width = 684;
}
);
leftKerningGroup = A2;
rightKerningGroup = A;
unicode = 193;
},
{
glyphname = Acircumflex;
layers = (
{
hints = (
{
horizontal = 1;
place = (0,10);
type = Stem;
},
{
horizontal = 1;
place = (263,13);
type = Stem;
},
{
horizontal = 1;
place = (765,-20);
target = down;
type = TopGhost;
},
{
horizontal = 1;
place = (906,70);
type = Stem;
},
{
place = (-24,111);
type = Stem;
}
);
layerId = "4476E8FB-E1E7-4AA1-B35B-6BE7AD43F443";
shapes = (
{
closed = 1;
nodes = (
(155,276,l),
(272,564,l),
(386,276,l)
);
},
{
closed = 1;
nodes = (
(77,119,ls),
(55,66,o),
(13,13,o),
(-24,10,c),
(-24,0,l),
(171,0,l),
(171,10,l),
(105,13,o),
(70,66,o),
(94,124,cs),
(150,263,l),
(391,263,l),
(451,114,ls),
(477,49,o),
(455,10,o),
(395,10,cs),
(391,10,l),
(391,0,l),
(711,0,l),
(711,10,l),
(708,10,ls),
(673,10,o),
(639,48,o),
(610,119,cs),
(350,765,l),
(341,765,l)
);
},
{
closed = 1;
nodes = (
(193,780,l),
(200,773,l),
(346,906,l),
(492,773,l),
(499,780,l),
(372,976,l),
(321,976,l)
);
}
);
width = 684;
}
);
leftKerningGroup = A2;
rightKerningGroup = A;
unicode = 194;
},
{
glyphname = Atilde;
layers = (
{
hints = (
{
horizontal = 1;
place = (0,10);
type = Stem;
},
{
horizontal = 1;
place = (263,13);
type = Stem;
},
{
horizontal = 1;
place = (765,-20);
target = down;
type = TopGhost;
},
{
horizontal = 1;
place = (805,70);
type = Stem;
},
{
horizontal = 1;
place = (862,70);
type = Stem;
},
{
place = (-24,111);
type = Stem;
}
);
layerId = "4476E8FB-E1E7-4AA1-B35B-6BE7AD43F443";
shapes = (
{
closed = 1;
nodes = (
(155,276,l),
(272,564,l),
(386,276,l)
);
},
{
closed = 1;
nodes = (
(77,119,ls),
(55,66,o),
(13,13,o),
(-24,10,c),
(-24,0,l),
(171,0,l),
(171,10,l),
(105,13,o),
(70,66,o),
(94,124,cs),
(150,263,l),
(391,263,l),
(451,114,ls),
(477,49,o),
(455,10,o),
(395,10,cs),
(391,10,l),
(391,0,l),
(711,0,l),
(711,10,l),
(708,10,ls),
(673,10,o),
(639,48,o),
(610,119,cs),
(350,765,l),
(341,765,l)
);
},
{
closed = 1;
nodes = (
(484,919,l),
(465,885,o),
(444,875,o),
(424,875,cs),
(377,875,o),
(349,932,o),
(297,932,cs),
(262,932,o),
(223,888,o),
(199,822,c),
(209,818,l),
(226,849,o),
(253,862,o),
(275,862,cs),
(321,862,o),
(349,805,o),
(402,805,cs),
(441,805,o),
(478,849,o),
(494,915,c)
);
}
);
width = 684;
}
);
leftKerningGroup = A2;
rightKerningGroup = A;
unicode = 195;
},
{
glyphname = Adieresis;
layers = (
{
hints = (
{
horizontal = 1;
place = (0,10);
type = Stem;
},
{
horizontal = 1;
place = (263,13);
type = Stem;
},
{
horizontal = 1;
place = (765,-20);
target = down;
type = TopGhost;
},
{
horizontal = 1;
place = (796,150);
type = Stem;
},
{
place = (-24,111);
type = Stem;
},
{
place = (172,150);
type = Stem;
},
{
place = (370,150);
type = Stem;
}
);
layerId = "4476E8FB-E1E7-4AA1-B35B-6BE7AD43F443";
shapes = (
{
closed = 1;
nodes = (
(155,276,l),
(272,564,l),
(386,276,l)
);
},
{
closed = 1;
nodes = (
(77,119,ls),
(55,66,o),
(13,13,o),
(-24,10,c),
(-24,0,l),
(171,0,l),
(171,10,l),
(105,13,o),
(70,66,o),
(94,124,cs),
(150,263,l),
(391,263,l),
(451,114,ls),
(477,49,o),
(455,10,o),
(395,10,cs),
(391,10,l),
(391,0,l),
(711,0,l),
(711,10,l),
(708,10,ls),
(673,10,o),
(639,48,o),
(610,119,cs),
(350,765,l),
(341,765,l)
);
},
{
closed = 1;
nodes = (
(172,830,o),
(206,796,o),
(247,796,cs),
(287,796,o),
(322,830,o),
(322,871,cs),
(322,912,o),
(287,946,o),
(247,946,cs),
(206,946,o),
(172,912,o),
(172,871,cs)
);
},
{
closed = 1;
nodes = (
(370,830,o),
(404,796,o),
(445,796,cs),
(485,796,o),
(520,830,o),
(520,871,cs),
(520,912,o),
(485,946,o),
(445,946,cs),
(404,946,o),
(370,912,o),
(370,871,cs)
);
}
);
width = 684;
}
);
leftKerningGroup = A2;
rightKerningGroup = A;
unicode = 196;
},
{
glyphname = Aring;
layers = (
{
hints = (
{
horizontal = 1;
place = (0,10);
type = Stem;
},
{
horizontal = 1;
place = (263,13);
type = Stem;
},
{
horizontal = 1;
place = (765,-20);
target = down;
type = TopGhost;
},
{
horizontal = 1;
place = (806,19);
type = Stem;
},
{
horizontal = 1;
place = (937,19);
type = Stem;
},
{
place = (-24,111);
type = Stem;
},
{
place = (268,22);
type = Stem;
},
{
place = (402,21);
type = Stem;
}
);
layerId = "4476E8FB-E1E7-4AA1-B35B-6BE7AD43F443";
shapes = (
{
closed = 1;
nodes = (
(155,276,l),
(272,564,l),
(386,276,l)
);
},
{
closed = 1;
nodes = (
(290,911,o),
(315,937,o),
(346,937,cs),
(376,937,o),
(402,911,o),
(402,881,cs),
(402,851,o),
(376,825,o),
(346,825,cs),
(315,825,o),
(290,851,o),
(290,881,cs)
);
},
{
closed = 1;
nodes = (
(77,119,ls),
(55,66,o),
(13,13,o),
(-24,10,c),
(-24,0,l),
(171,0,l),
(171,10,l),
(105,13,o),
(70,66,o),
(94,124,cs),
(150,263,l),
(391,263,l),
(451,114,ls),
(477,49,o),
(455,10,o),
(395,10,cs),
(391,10,l),
(391,0,l),
(711,0,l),
(711,10,l),
(708,10,ls),
(673,10,o),
(639,48,o),
(610,119,cs),
(350,765,l),
(341,765,l)
);
},
{
closed = 1;
nodes = (
(268,840,o),
(304,806,o),
(346,806,cs),
(387,806,o),
(423,840,o),
(423,881,cs),
(423,922,o),
(387,956,o),
(346,956,cs),
(304,956,o),
(268,922,o),
(268,881,cs)
);
}
);
width = 684;
}
);
leftKerningGroup = A2;
rightKerningGroup = A;
unicode = 197;
},
{
glyphname = AE;
layers = (
{
hints = (
{
horizontal = 1;
place = (0,13);
type = Stem;
},
{
horizontal = 1;
place = (263,13);
type = Stem;
},
{
horizontal = 1;
place = (435,13);
type = Stem;
},
{
horizontal = 1;
place = (737,13);
type = Stem;
},
{
horizontal = 1;
place = (740,10);
type = Stem;
},
{
place = (-35,114);
type = Stem;
},
{
place = (380,154);
type = Stem;
},
{
place = (734,10);
type = Stem;
}
);
layerId = "4476E8FB-E1E7-4AA1-B35B-6BE7AD43F443";
shapes = (
{
closed = 1;
nodes = (
(380,276,l),
(178,276,l),
(380,655,l)
);
},
{
closed = 1;
nodes = (
(618,737,ls),
(756,737,o),
(835,674,o),
(855,549,c),
(865,549,l),
(835,750,l),
(299,750,l),
(300,740,l),
(339,740,o),
(367,719,o),
(377,685,c),
(80,126,ls),
(45,59,o),
(-1,13,o),
(-35,10,c),
(-35,0,l),
(160,0,l),
(160,10,l),
(87,14,o),
(60,57,o),
(93,117,cs),
(171,263,l),
(380,263,l),
(380,90,ls),
(380,42,o),
(348,10,o),
(300,10,c),
(299,10,l),
(298,0,l),
(853,0,l),
(883,220,l),
(873,220,l),
(853,82,o),
(777,13,o),
(646,13,cs),
(598,13,ls),
(560,13,o),
(534,39,o),
(534,77,cs),
(534,435,l),
(613,435,ls),
(684,435,o),
(733,386,o),
(734,313,c),
(744,313,l),
(744,559,l),
(734,559,l),
(734,493,o),
(690,448,o),
(624,448,cs),
(534,448,l),
(534,737,l)
);
}
);
width = 896;
}
);
leftKerningGroup = A2;
rightKerningGroup = E;
unicode = 198;
},
{
glyphname = Ccedilla;
layers = (
{
hints = (
{
horizontal = 1;
place = (-225,17);
type = Stem;
},
{
horizontal = 1;
place = (-218,21);
target = up;
type = BottomGhost;
},
{
horizontal = 1;
place = (-63,7);
type = Stem;
},
{
horizontal = 1;
place = (-14,16);
type = Stem;
},
{
horizontal = 1;
place = (-13,15);
type = Stem;
},
{
horizontal = 1;
place = (751,13);
type = Stem;
},
{
place = (37,170);
type = Stem;
},
{
place = (410,14);
type = Stem;
},
{
place = (467,80);
type = Stem;
}
);
layerId = "4476E8FB-E1E7-4AA1-B35B-6BE7AD43F443";
shapes = (
{
closed = 1;
nodes = (
(684,748,l),
(585,748,o),
(570,764,o),
(463,764,cs),
(208,764,o),
(37,608,o),
(37,375,cs),
(37,154,o),
(193,1,o),
(427,-13,c),
(410,-57,l),
(410,-63,l),
(442,-69,o),
(467,-106,o),
(467,-150,cs),
(467,-186,o),
(450,-208,o),
(424,-208,cs),
(393,-208,o),
(369,-177,o),
(357,-119,c),
(346,-119,l),
(365,-218,l),
(399,-218,o),
(407,-225,o),
(438,-225,cs),
(504,-225,o),
(547,-193,o),
(547,-145,cs),
(547,-92,o),
(498,-57,o),
(424,-56,c),
(441,-14,l),
(449,-14,o),
(456,-14,o),
(464,-14,cs),
(560,-14,o),
(603,4,o),
(700,4,c),
(729,220,l),
(719,220,l),
(698,80,o),
(606,2,o),
(461,2,cs),
(311,2,o),
(207,151,o),
(207,367,cs),
(207,591,o),
(314,751,o),
(463,751,cs),
(589,751,o),
(685,663,o),
(704,530,c),
(714,530,l)
);
}
);
width = 742;
}
);
leftKerningGroup = J;
unicode = 199;
},
{
glyphname = Egrave;
layers = (
{
hints = (
{
horizontal = 1;
place = (0,10);
type = Stem;
},
{
horizontal = 1;
place = (0,13);
type = Stem;
},
{
horizontal = 1;
place = (435,13);
type = Stem;
},
{
horizontal = 1;
place = (737,13);
type = Stem;
},
{
horizontal = 1;
place = (740,10);
type = Stem;
},
{
place = (90,154);
type = Stem;
},
{
place = (444,10);
type = Stem;
}
);
layerId = "4476E8FB-E1E7-4AA1-B35B-6BE7AD43F443";
shapes = (
{
closed = 1;
nodes = (
(314,13,ls),
(267,13,o),
(244,37,o),
(244,84,cs),
(244,435,l),
(323,435,ls),
(395,435,o),
(443,385,o),
(444,313,c),
(454,313,l),
(454,559,l),
(444,559,l),
(444,493,o),
(400,448,o),
(334,448,cs),
(244,448,l),
(244,737,l),
(328,737,ls),
(466,737,o),
(545,674,o),
(565,549,c),
(575,549,l),
(545,750,l),
(9,750,l),
(10,740,l),
(58,740,o),
(90,708,o),
(90,660,cs),
(90,84,ls),
(90,36,o),
(58,10,o),
(10,10,c),
(9,10,l),
(8,0,l),
(563,0,l),
(593,220,l),
(583,220,l),
(562,78,o),
(484,13,o),
(356,13,cs)
);
},
{
closed = 1;
nodes = (
(90,919,l),
(290,779,l),
(297,789,l),
(159,982,l),
(154,982,l),
(90,924,l)
);
}
);
width = 606;
}
);
leftKerningGroup = B;
rightKerningGroup = E;
unicode = 200;
},
{
glyphname = Eacute;
layers = (
{
hints = (
{
horizontal = 1;
place = (0,10);
type = Stem;
},
{
horizontal = 1;
place = (0,13);
type = Stem;
},
{
horizontal = 1;
place = (435,13);
type = Stem;
},
{
horizontal = 1;
place = (737,13);
type = Stem;
},
{
horizontal = 1;
place = (740,10);
type = Stem;
},
{
place = (90,154);
type = Stem;
},
{
place = (444,10);
type = Stem;
}
);
layerId = "4476E8FB-E1E7-4AA1-B35B-6BE7AD43F443";
shapes = (
{
closed = 1;
nodes = (
(314,13,ls),
(267,13,o),
(244,37,o),
(244,84,cs),
(244,435,l),
(323,435,ls),
(395,435,o),
(443,385,o),
(444,313,c),
(454,313,l),
(454,559,l),
(444,559,l),
(444,493,o),
(400,448,o),
(334,448,cs),
(244,448,l),
(244,737,l),
(328,737,ls),
(466,737,o),
(545,674,o),
(565,549,c),
(575,549,l),
(545,750,l),
(9,750,l),
(10,740,l),
(58,740,o),
(90,708,o),
(90,660,cs),
(90,84,ls),
(90,36,o),
(58,10,o),
(10,10,c),
(9,10,l),
(8,0,l),
(563,0,l),
(593,220,l),
(583,220,l),
(562,78,o),
(484,13,o),
(356,13,cs)
);
},
{
closed = 1;
nodes = (
(447,923,l),
(447,928,l),
(383,986,l),
(378,986,l),
(241,793,l),
(248,783,l)
);
}
);
width = 606;
}
);
leftKerningGroup = B;
rightKerningGroup = E;
unicode = 201;
},
{
glyphname = Ecircumflex;
layers = (
{
hints = (
{
horizontal = 1;
place = (0,10);
type = Stem;
},
{
horizontal = 1;
place = (0,13);
type = Stem;
},
{
horizontal = 1;
place = (435,13);
type = Stem;
},
{
horizontal = 1;
place = (737,13);
type = Stem;
},
{
horizontal = 1;
place = (740,10);
type = Stem;
},
{
horizontal = 1;
place = (916,70);
type = Stem;
},
{
place = (90,154);
type = Stem;
},
{
place = (444,10);
type = Stem;
}
);
layerId = "4476E8FB-E1E7-4AA1-B35B-6BE7AD43F443";
shapes = (
{
closed = 1;
nodes = (
(314,13,ls),
(267,13,o),
(244,37,o),
(244,84,cs),
(244,435,l),
(323,435,ls),
(395,435,o),
(443,385,o),
(444,313,c),
(454,313,l),
(454,559,l),
(444,559,l),
(444,493,o),
(400,448,o),
(334,448,cs),
(244,448,l),
(244,737,l),
(328,737,ls),
(466,737,o),
(545,674,o),
(565,549,c),
(575,549,l),
(545,750,l),
(9,750,l),
(10,740,l),
(58,740,o),
(90,708,o),
(90,660,cs),
(90,84,ls),
(90,36,o),
(58,10,o),
(10,10,c),
(9,10,l),
(8,0,l),
(563,0,l),
(593,220,l),
(583,220,l),
(562,78,o),
(484,13,o),
(356,13,cs)
);
},
{
closed = 1;
nodes = (
(322,986,l),
(271,986,l),
(144,790,l),
(151,783,l),
(297,916,l),
(443,783,l),
(450,790,l)
);
}
);
width = 606;
}
);
leftKerningGroup = B;
rightKerningGroup = E;
unicode = 202;
},
{
glyphname = Edieresis;
layers = (
{
hints = (
{
horizontal = 1;
place = (0,10);
type = Stem;
},
{
horizontal = 1;
place = (0,13);
type = Stem;
},
{
horizontal = 1;
place = (435,13);
type = Stem;
},
{
horizontal = 1;
place = (737,13);
type = Stem;
},
{
horizontal = 1;
place = (740,10);
type = Stem;
},
{
horizontal = 1;
place = (806,150);
type = Stem;
},
{
place = (90,154);
type = Stem;
},
{
place = (123,150);
type = Stem;
},
{
place = (321,150);
type = Stem;
},
{
place = (444,10);
type = Stem;
}
);
layerId = "4476E8FB-E1E7-4AA1-B35B-6BE7AD43F443";
shapes = (
{
closed = 1;
nodes = (
(314,13,ls),
(267,13,o),
(244,37,o),
(244,84,cs),
(244,435,l),
(323,435,ls),
(395,435,o),
(443,385,o),
(444,313,c),
(454,313,l),
(454,559,l),
(444,559,l),
(444,493,o),
(400,448,o),
(334,448,cs),
(244,448,l),
(244,737,l),
(328,737,ls),
(466,737,o),
(545,674,o),
(565,549,c),
(575,549,l),
(545,750,l),
(9,750,l),
(10,740,l),
(58,740,o),
(90,708,o),
(90,660,cs),
(90,84,ls),
(90,36,o),
(58,10,o),
(10,10,c),
(9,10,l),
(8,0,l),
(563,0,l),
(593,220,l),
(583,220,l),
(562,78,o),
(484,13,o),
(356,13,cs)
);
},
{
closed = 1;
nodes = (
(123,840,o),
(157,806,o),
(198,806,cs),
(238,806,o),
(273,840,o),
(273,881,cs),
(273,922,o),
(238,956,o),
(198,956,cs),
(157,956,o),
(123,922,o),
(123,881,cs)
);
},
{
closed = 1;
nodes = (
(321,840,o),
(355,806,o),
(396,806,cs),
(436,806,o),
(471,840,o),
(471,881,cs),
(471,922,o),
(436,956,o),
(396,956,cs),
(355,956,o),
(321,922,o),
(321,881,cs)
);
}
);
width = 606;
}
);
leftKerningGroup = B;
rightKerningGroup = E;
unicode = 203;
},
{
glyphname = Igrave;
layers = (
{
hints = (
{
horizontal = 1;
place = (0,10);
type = Stem;
},
{
horizontal = 1;
place = (740,10);
type = Stem;
},
{
place = (81,155);
type = Stem;
}
);
layerId = "4476E8FB-E1E7-4AA1-B35B-6BE7AD43F443";
shapes = (
{
closed = 1;
nodes = (
(316,10,l),
(268,10,o),
(236,42,o),
(236,90,cs),
(236,660,ls),
(236,708,o),
(268,740,o),
(316,740,c),
(317,740,l),
(317,750,l),
(0,750,l),
(0,740,l),
(1,740,l),
(49,740,o),
(81,708,o),
(81,660,cs),
(81,90,ls),
(81,42,o),
(49,10,o),
(1,10,c),
(0,10,l),
(0,0,l),
(317,0,l),
(317,10,l)
);
},
{
closed = 1;
nodes = (
(56,923,l),
(256,783,l),
(263,793,l),
(125,986,l),
(120,986,l),
(56,928,l)
);
}
);
width = 317;
}
);
leftKerningGroup = H2;
rightKerningGroup = H;
unicode = 204;
},
{
glyphname = Iacute;
layers = (
{
hints = (
{
horizontal = 1;
place = (0,10);
type = Stem;
},
{
horizontal = 1;
place = (740,10);
type = Stem;
},
{
place = (81,155);
type = Stem;
}
);
layerId = "4476E8FB-E1E7-4AA1-B35B-6BE7AD43F443";
shapes = (
{
closed = 1;
nodes = (
(316,10,l),
(268,10,o),
(236,42,o),
(236,90,cs),
(236,660,ls),
(236,708,o),
(268,740,o),
(316,740,c),
(317,740,l),
(317,750,l),
(0,750,l),
(0,740,l),
(1,740,l),
(49,740,o),
(81,708,o),
(81,660,cs),
(81,90,ls),
(81,42,o),
(49,10,o),
(1,10,c),
(0,10,l),
(0,0,l),
(317,0,l),
(317,10,l)
);
},
{
closed = 1;
nodes = (
(263,923,l),
(263,928,l),
(199,986,l),
(194,986,l),
(57,793,l),
(64,783,l)
);
}
);
width = 317;
}
);
leftKerningGroup = H2;
rightKerningGroup = H;
unicode = 205;
},
{
glyphname = Icircumflex;
layers = (
{
hints = (
{
horizontal = 1;
place = (0,10);
type = Stem;
},
{
horizontal = 1;
place = (740,10);
type = Stem;
},
{
horizontal = 1;
place = (916,70);
type = Stem;
},
{
place = (81,155);
type = Stem;
}
);
layerId = "4476E8FB-E1E7-4AA1-B35B-6BE7AD43F443";
shapes = (
{
closed = 1;
nodes = (
(316,10,l),
(268,10,o),
(236,42,o),
(236,90,cs),
(236,660,ls),
(236,708,o),
(268,740,o),
(316,740,c),
(317,740,l),
(317,750,l),
(0,750,l),
(0,740,l),
(1,740,l),
(49,740,o),
(81,708,o),
(81,660,cs),
(81,90,ls),
(81,42,o),
(49,10,o),
(1,10,c),
(0,10,l),
(0,0,l),
(317,0,l),
(317,10,l)
);
},
{
closed = 1;
nodes = (
(184,986,l),
(133,986,l),
(6,790,l),
(13,783,l),
(159,916,l),
(305,783,l),
(312,790,l)
);
}
);
width = 317;
}
);
leftKerningGroup = H2;
rightKerningGroup = H;
unicode = 206;
},
{
glyphname = Idieresis;
layers = (
{
hints = (
{
horizontal = 1;
place = (0,10);
type = Stem;
},
{
horizontal = 1;
place = (740,10);
type = Stem;
},
{
horizontal = 1;
place = (806,150);
type = Stem;
},
{
place = (-15,151);
type = Stem;
},
{
place = (81,155);
type = Stem;
},
{
place = (184,150);
type = Stem;
}
);
layerId = "4476E8FB-E1E7-4AA1-B35B-6BE7AD43F443";
shapes = (
{
closed = 1;
nodes = (
(316,10,l),
(268,10,o),
(236,42,o),
(236,90,cs),
(236,660,ls),
(236,708,o),
(268,740,o),
(316,740,c),
(317,740,l),
(317,750,l),
(0,750,l),
(0,740,l),
(1,740,l),
(49,740,o),
(81,708,o),
(81,660,cs),
(81,90,ls),
(81,42,o),
(49,10,o),
(1,10,c),
(0,10,l),
(0,0,l),
(317,0,l),
(317,10,l)
);
},
{
closed = 1;
nodes = (
(-15,840,o),
(20,806,o),
(61,806,cs),
(101,806,o),
(136,840,o),
(136,881,cs),
(136,922,o),
(101,956,o),
(61,956,cs),
(20,956,o),
(-15,922,o),
(-15,881,cs)
);
},
{
closed = 1;
nodes = (
(184,840,o),
(218,806,o),
(259,806,cs),
(299,806,o),
(334,840,o),
(334,881,cs),
(334,922,o),
(299,956,o),
(259,956,cs),
(218,956,o),
(184,922,o),
(184,881,cs)
);
}
);
width = 317;
}
);
leftKerningGroup = H2;
rightKerningGroup = H;
unicode = 207;
},
{
glyphname = Eth;
layers = (
{
hints = (
{
horizontal = 1;
place = (0,10);
type = Stem;
},
{
horizontal = 1;
place = (0,13);
type = Stem;
},
{
horizontal = 1;
place = (369,13);
type = Stem;
},
{
horizontal = 1;
place = (736,14);
type = Stem;
},
{
horizontal = 1;
place = (740,10);
type = Stem;
},
{
place = (81,154);
type = Stem;
},
{
place = (620,170);
type = Stem;
}
);
layerId = "4476E8FB-E1E7-4AA1-B35B-6BE7AD43F443";
shapes = (
{
closed = 1;
nodes = (
(305,13,ls),
(253,13,o),
(235,42,o),
(235,84,cs),
(235,369,l),
(426,369,l),
(426,382,l),
(235,382,l),
(235,736,l),
(323,736,ls),
(502,736,o),
(620,612,o),
(620,376,cs),
(620,139,o),
(502,13,o),
(323,13,cs)
);
},
{
closed = 1;
nodes = (
(323,0,ls),
(605,0,o),
(790,130,o),
(790,374,cs),
(790,620,o),
(605,750,o),
(323,750,cs),
(1,750,l),
(1,740,l),
(47,740,o),
(81,710,o),
(81,665,cs),
(81,381,l),
(0,381,l),
(0,368,l),
(81,368,l),
(81,84,ls),
(81,39,o),
(49,10,o),
(0,10,c),
(0,0,l)
);
}
);
width = 827;
}
);
leftKerningGroup = J;
rightKerningGroup = D;
unicode = 208;
},
{
glyphname = Ntilde;
layers = (
{
hints = (
{
horizontal = 1;
place = (0,10);
type = Stem;
},
{
horizontal = 1;
place = (-14,21);
target = up;
type = BottomGhost;
},
{
horizontal = 1;
place = (740,10);
type = Stem;
},
{
horizontal = 1;
place = (815,70);
type = Stem;
},
{
horizontal = 1;
place = (872,70);
type = Stem;
},
{
place = (91,17);
type = Stem;
},
{
place = (646,17);
type = Stem;
}
);
layerId = "4476E8FB-E1E7-4AA1-B35B-6BE7AD43F443";
shapes = (
{
closed = 1;
nodes = (
(663,-14,l),
(663,635,ls),
(663,692,o),
(701,740,o),
(758,740,c),
(758,750,l),
(551,750,l),
(551,740,l),
(608,740,o),
(646,692,o),
(646,635,cs),
(646,243,l),
(253,750,l),
(-4,750,l),
(-4,740,l),
(28,737,o),
(62,723,o),
(91,701,c),
(91,116,ls),
(91,58,o),
(53,10,o),
(-5,10,c),
(-5,0,l),
(203,0,l),
(203,10,l),
(146,10,o),
(108,58,o),
(108,115,cs),
(108,687,l),
(117,679,o),
(130,666,o),
(139,654,cs)
);
},
{
closed = 1;
nodes = (
(515,929,l),
(496,895,o),
(475,885,o),
(455,885,cs),
(407,885,o),
(380,942,o),
(328,942,cs),
(292,942,o),
(253,898,o),
(230,832,c),
(240,828,l),
(257,859,o),
(283,872,o),
(306,872,cs),
(352,872,o),
(380,815,o),
(432,815,cs),
(471,815,o),
(508,859,o),
(525,925,c)
);
}
);
width = 749;
}
);
leftKerningGroup = N2;
rightKerningGroup = N;
unicode = 209;
},
{
glyphname = Ograve;
layers = (
{
hints = (
{
horizontal = 1;
place = (-14,16);
type = Stem;
},
{
horizontal = 1;
place = (751,13);
type = Stem;
},
{
place = (37,170);
type = Stem;
},
{
place = (671,170);
type = Stem;
}
);
layerId = "4476E8FB-E1E7-4AA1-B35B-6BE7AD43F443";
shapes = (
{
closed = 1;
nodes = (
(207,601,o),
(300,751,o),
(439,751,cs),
(578,751,o),
(671,601,o),
(671,376,cs),
(671,151,o),
(578,2,o),
(439,2,cs),
(300,2,o),
(207,151,o),
(207,376,cs)
);
},
{
closed = 1;
nodes = (
(37,142,o),
(198,-14,o),
(439,-14,cs),
(680,-14,o),
(841,142,o),
(841,375,cs),
(841,608,o),
(680,764,o),
(439,764,cs),
(198,764,o),
(37,608,o),
(37,375,cs)
);
},
{
closed = 1;
nodes = (
(492,793,l),
(355,986,l),
(350,986,l),
(285,928,l),
(285,923,l),
(485,783,l)
);
}
);
width = 878;
}
);
leftKerningGroup = C;
rightKerningGroup = D;
unicode = 210;
},
{
glyphname = Oacute;
layers = (
{
hints = (
{
horizontal = 1;
place = (-14,16);
type = Stem;
},
{
horizontal = 1;
place = (751,13);
type = Stem;
},
{
place = (37,170);
type = Stem;
},
{
place = (671,170);
type = Stem;
}
);
layerId = "4476E8FB-E1E7-4AA1-B35B-6BE7AD43F443";
shapes = (
{
closed = 1;
nodes = (
(207,601,o),
(300,751,o),
(439,751,cs),
(578,751,o),
(671,601,o),
(671,376,cs),
(671,151,o),
(578,2,o),
(439,2,cs),
(300,2,o),
(207,151,o),
(207,376,cs)
);
},
{
closed = 1;
nodes = (
(37,142,o),
(198,-14,o),
(439,-14,cs),
(680,-14,o),
(841,142,o),
(841,375,cs),
(841,608,o),
(680,764,o),
(439,764,cs),
(198,764,o),
(37,608,o),
(37,375,cs)
);
},
{
closed = 1;
nodes = (
(529,986,l),
(524,986,l),
(386,793,l),
(393,783,l),
(593,923,l),
(593,928,l)
);
}
);
width = 878;
}
);
leftKerningGroup = C;
rightKerningGroup = D;
unicode = 211;
},
{
glyphname = Ocircumflex;
layers = (
{
hints = (
{
horizontal = 1;
place = (-14,16);
type = Stem;
},
{
horizontal = 1;
place = (751,13);
type = Stem;
},
{
horizontal = 1;
place = (916,70);
type = Stem;
},
{
place = (37,170);
type = Stem;
},
{
place = (671,170);
type = Stem;
}
);
layerId = "4476E8FB-E1E7-4AA1-B35B-6BE7AD43F443";
shapes = (
{
closed = 1;
nodes = (
(207,601,o),
(300,751,o),
(439,751,cs),
(578,751,o),
(671,601,o),
(671,376,cs),
(671,151,o),
(578,2,o),
(439,2,cs),
(300,2,o),
(207,151,o),
(207,376,cs)
);
},
{
closed = 1;
nodes = (
(37,142,o),
(198,-14,o),
(439,-14,cs),
(680,-14,o),
(841,142,o),
(841,375,cs),
(841,608,o),
(680,764,o),
(439,764,cs),
(198,764,o),
(37,608,o),
(37,375,cs)
);
},
{
closed = 1;
nodes = (
(286,790,l),
(293,783,l),
(439,916,l),
(585,783,l),
(592,790,l),
(464,986,l),
(413,986,l)
);
}
);
width = 878;
}
);
leftKerningGroup = C;
rightKerningGroup = D;
unicode = 212;
},
{
glyphname = Otilde;
layers = (
{
hints = (
{
horizontal = 1;
place = (-14,16);
type = Stem;
},
{
horizontal = 1;
place = (751,13);
type = Stem;
},
{
horizontal = 1;
place = (815,70);
type = Stem;
},
{
horizontal = 1;
place = (872,70);
type = Stem;
},
{
place = (37,170);
type = Stem;
},
{
place = (671,170);
type = Stem;
}
);
layerId = "4476E8FB-E1E7-4AA1-B35B-6BE7AD43F443";
shapes = (
{
closed = 1;
nodes = (
(207,601,o),
(300,751,o),
(439,751,cs),
(578,751,o),
(671,601,o),
(671,376,cs),
(671,151,o),
(578,2,o),
(439,2,cs),
(300,2,o),
(207,151,o),
(207,376,cs)
);
},
{
closed = 1;
nodes = (
(37,142,o),
(198,-14,o),
(439,-14,cs),
(680,-14,o),
(841,142,o),
(841,375,cs),
(841,608,o),
(680,764,o),
(439,764,cs),
(198,764,o),
(37,608,o),
(37,375,cs)
);
},
{
closed = 1;
nodes = (
(577,929,l),
(558,895,o),
(537,885,o),
(517,885,cs),
(469,885,o),
(442,942,o),
(390,942,cs),
(354,942,o),
(315,898,o),
(292,832,c),
(302,828,l),
(319,859,o),
(345,872,o),
(368,872,cs),
(414,872,o),
(442,815,o),
(494,815,cs),
(533,815,o),
(570,859,o),
(587,925,c)
);
}
);
width = 878;
}
);
leftKerningGroup = C;
rightKerningGroup = D;
unicode = 213;
},
{
glyphname = Odieresis;
layers = (
{
hints = (
{
horizontal = 1;
place = (-14,16);
type = Stem;
},
{
horizontal = 1;
place = (751,13);
type = Stem;
},
{
horizontal = 1;
place = (806,150);
type = Stem;
},
{
place = (37,170);
type = Stem;
},
{
place = (265,150);
type = Stem;
},
{
place = (463,150);
type = Stem;
},
{
place = (671,170);
type = Stem;
}
);
layerId = "4476E8FB-E1E7-4AA1-B35B-6BE7AD43F443";
shapes = (
{
closed = 1;
nodes = (
(37,142,o),
(198,-14,o),
(439,-14,cs),
(680,-14,o),
(841,142,o),
(841,375,cs),
(841,608,o),
(680,764,o),
(439,764,cs),
(198,764,o),
(37,608,o),
(37,375,cs)
);
},
{
closed = 1;
nodes = (
(207,601,o),
(300,751,o),
(439,751,cs),
(578,751,o),
(671,601,o),
(671,376,cs),
(671,151,o),
(578,2,o),
(439,2,cs),
(300,2,o),
(207,151,o),
(207,376,cs)
);
},
{
closed = 1;
nodes = (
(265,840,o),
(299,806,o),
(340,806,cs),
(381,806,o),
(415,840,o),
(415,881,cs),
(415,922,o),
(381,956,o),
(340,956,cs),
(299,956,o),
(265,922,o),
(265,881,cs)
);
},
{
closed = 1;
nodes = (
(463,840,o),
(497,806,o),
(538,806,cs),
(579,806,o),
(613,840,o),
(613,881,cs),
(613,922,o),
(579,956,o),
(538,956,cs),
(497,956,o),
(463,922,o),
(463,881,cs)
);
}
);
width = 878;
}
);
leftKerningGroup = C;
rightKerningGroup = D;
unicode = 214;
},
{
glyphname = multiply;
layers = (
{
hints = (
{
horizontal = 1;
place = (187,302);
type = Stem;
},
{
place = (51,284);
type = Stem;
}
);
layerId = "4476E8FB-E1E7-4AA1-B35B-6BE7AD43F443";
shapes = (
{
closed = 1;
nodes = (
(193,346,l),
(59,489,l),
(51,483,l),
(186,339,l),
(51,193,l),
(59,187,l),
(193,332,l),
(327,187,l),
(335,193,l),
(200,339,l),
(335,483,l),
(327,489,l)
);
}
);
width = 386;
}
);
leftKerningGroup = J;
unicode = 215;
},
{
glyphname = Oslash;
layers = (
{
hints = (
{
horizontal = 1;
place = (-14,16);
type = Stem;
},
{
horizontal = 1;
place = (0,21);
target = up;
type = BottomGhost;
},
{
horizontal = 1;
place = (750,-20);
target = down;
type = TopGhost;
},
{
horizontal = 1;
place = (751,13);
type = Stem;
},
{
place = (37,170);
type = Stem;
},
{
place = (671,170);
type = Stem;
}
);
layerId = "4476E8FB-E1E7-4AA1-B35B-6BE7AD43F443";
shapes = (
{
closed = 1;
nodes = (
(207,601,o),
(300,751,o),
(439,751,cs),
(520,751,o),
(586,700,o),
(626,612,c),
(247,152,l),
(221,212,o),
(207,288,o),
(207,376,cs)
);
},
{
closed = 1;
nodes = (
(632,600,l),
(657,539,o),
(671,463,o),
(671,376,cs),
(671,151,o),
(578,2,o),
(439,2,cs),
(358,2,o),
(293,53,o),
(252,139,c)
);
},
{
closed = 1;
nodes = (
(37,243,o),
(89,136,o),
(177,68,c),
(121,0,l),
(137,0,l),
(187,60,l),
(253,13,o),
(339,-14,o),
(439,-14,cs),
(680,-14,o),
(841,142,o),
(841,375,cs),
(841,507,o),
(789,615,o),
(700,683,c),
(756,750,l),
(740,750,l),
(690,690,l),
(624,738,o),
(538,764,o),
(439,764,cs),
(198,764,o),
(37,608,o),
(37,375,cs)
);
}
);
width = 878;
}
);
leftKerningGroup = C;
rightKerningGroup = D;
unicode = 216;
},
{
glyphname = Ugrave;
layers = (
{
hints = (
{
horizontal = 1;
place = (-14,48);
type = Stem;
},
{
horizontal = 1;
place = (740,10);
type = Stem;
},
{
place = (79,155);
type = Stem;
},
{
place = (638,17);
type = Stem;
}
);
layerId = "4476E8FB-E1E7-4AA1-B35B-6BE7AD43F443";
shapes = (
{
closed = 1;
nodes = (
(79,263,ls),
(79,94,o),
(192,-14,o),
(368,-14,cs),
(543,-14,o),
(656,94,o),
(655,263,c),
(655,645,ls),
(655,702,o),
(693,737,o),
(750,740,c),
(750,750,l),
(543,750,l),
(543,740,l),
(600,737,o),
(638,702,o),
(638,645,cs),
(638,263,ls),
(638,123,o),
(560,34,o),
(436,34,cs),
(311,34,o),
(234,123,o),
(234,263,cs),
(234,660,ls),
(234,708,o),
(266,740,o),
(314,740,cs),
(317,740,l),
(317,750,l),
(-5,750,l),
(-5,740,l),
(-1,740,ls),
(47,740,o),
(79,708,o),
(79,660,cs)
);
},
{
closed = 1;
nodes = (
(269,923,l),
(469,783,l),
(476,793,l),
(339,986,l),
(334,986,l),
(269,928,l)
);
}
);
width = 745;
}
);
leftKerningGroup = U2;
rightKerningGroup = U;
unicode = 217;
},
{
glyphname = Uacute;
layers = (
{
hints = (
{
horizontal = 1;
place = (-14,48);
type = Stem;
},
{
horizontal = 1;
place = (740,10);
type = Stem;
},
{
place = (79,155);
type = Stem;
},
{
place = (638,17);
type = Stem;
}
);
layerId = "4476E8FB-E1E7-4AA1-B35B-6BE7AD43F443";
shapes = (
{
closed = 1;
nodes = (
(79,263,ls),
(79,94,o),
(192,-14,o),
(368,-14,cs),
(543,-14,o),
(656,94,o),
(655,263,c),
(655,645,ls),
(655,702,o),
(693,737,o),
(750,740,c),
(750,750,l),
(543,750,l),
(543,740,l),
(600,737,o),
(638,702,o),
(638,645,cs),
(638,263,ls),
(638,123,o),
(560,34,o),
(436,34,cs),
(311,34,o),
(234,123,o),
(234,263,cs),
(234,660,ls),
(234,708,o),
(266,740,o),
(314,740,cs),
(317,740,l),
(317,750,l),
(-5,750,l),
(-5,740,l),
(-1,740,ls),
(47,740,o),
(79,708,o),
(79,660,cs)
);
},
{
closed = 1;
nodes = (
(507,923,l),
(507,928,l),
(443,986,l),
(438,986,l),
(300,793,l),
(307,783,l)
);
}
);
width = 745;
}
);
leftKerningGroup = U2;
rightKerningGroup = U;
unicode = 218;
},
{
glyphname = Ucircumflex;
layers = (
{
hints = (
{
horizontal = 1;
place = (-14,48);
type = Stem;
},
{
horizontal = 1;
place = (740,10);
type = Stem;
},
{
horizontal = 1;
place = (916,70);
type = Stem;
},
{
place = (79,155);
type = Stem;
},
{
place = (638,17);
type = Stem;
}
);
layerId = "4476E8FB-E1E7-4AA1-B35B-6BE7AD43F443";
shapes = (
{
closed = 1;
nodes = (
(79,263,ls),
(79,94,o),
(192,-14,o),
(368,-14,cs),
(543,-14,o),
(656,94,o),
(655,263,c),
(655,645,ls),
(655,702,o),
(693,737,o),
(750,740,c),
(750,750,l),
(543,750,l),
(543,740,l),
(600,737,o),
(638,702,o),
(638,645,cs),
(638,263,ls),
(638,123,o),
(560,34,o),
(436,34,cs),
(311,34,o),
(234,123,o),
(234,263,cs),
(234,660,ls),
(234,708,o),
(266,740,o),
(314,740,cs),
(317,740,l),
(317,750,l),
(-5,750,l),
(-5,740,l),
(-1,740,ls),
(47,740,o),
(79,708,o),
(79,660,cs)
);
},
{
closed = 1;
nodes = (
(428,986,l),
(377,986,l),
(250,790,l),
(257,783,l),
(403,916,l),
(549,783,l),
(556,790,l)
);
}
);
width = 745;
}
);
leftKerningGroup = U2;
rightKerningGroup = U;
unicode = 219;
},
{
glyphname = Udieresis;
layers = (
{
hints = (
{
horizontal = 1;
place = (-14,48);
type = Stem;
},
{
horizontal = 1;
place = (740,10);
type = Stem;
},
{
horizontal = 1;
place = (806,150);
type = Stem;
},
{
place = (79,155);
type = Stem;
},
{
place = (199,150);
type = Stem;
},
{
place = (397,150);
type = Stem;
},
{
place = (638,17);
type = Stem;
}
);
layerId = "4476E8FB-E1E7-4AA1-B35B-6BE7AD43F443";
shapes = (
{
closed = 1;
nodes = (
(79,263,ls),
(79,94,o),
(192,-14,o),
(368,-14,cs),
(543,-14,o),
(656,94,o),
(655,263,c),
(655,645,ls),
(655,702,o),
(693,737,o),
(750,740,c),
(750,750,l),
(543,750,l),
(543,740,l),
(600,737,o),
(638,702,o),
(638,645,cs),
(638,263,ls),
(638,123,o),
(560,34,o),
(436,34,cs),
(311,34,o),
(234,123,o),
(234,263,cs),
(234,660,ls),
(234,708,o),
(266,740,o),
(314,740,cs),
(317,740,l),
(317,750,l),
(-5,750,l),
(-5,740,l),
(-1,740,ls),
(47,740,o),
(79,708,o),
(79,660,cs)
);
},
{
closed = 1;
nodes = (
(229,840,o),
(263,806,o),
(304,806,cs),
(345,806,o),
(379,840,o),
(379,881,cs),
(379,922,o),
(345,956,o),
(304,956,cs),
(263,956,o),
(229,922,o),
(229,881,cs)
);
},
{
closed = 1;
nodes = (
(427,840,o),
(461,806,o),
(502,806,cs),
(543,806,o),
(577,840,o),
(577,881,cs),
(577,922,o),
(543,956,o),
(502,956,cs),
(461,956,o),
(427,922,o),
(427,881,cs)
);
}
);
width = 745;
}
);
leftKerningGroup = U2;
rightKerningGroup = U;
unicode = 220;
},
{
glyphname = Yacute;
layers = (
{
hints = (
{
horizontal = 1;
place = (0,10);
type = Stem;
},
{
horizontal = 1;
place = (740,10);
type = Stem;
},
{
place = (258,145);
type = Stem;
},
{
place = (545,119);
type = Stem;
}
);
layerId = "4476E8FB-E1E7-4AA1-B35B-6BE7AD43F443";
shapes = (
{
closed = 1;
nodes = (
(474,740,l),
(553,740,o),
(565,690,o),
(514,621,cs),
(393,458,l),
(263,634,ls),
(221,690,o),
(239,740,o),
(312,740,c),
(312,750,l),
(-27,750,l),
(-27,740,l),
(-26,740,l),
(8,740,o),
(31,724,o),
(48,702,cs),
(258,430,l),
(258,90,ls),
(258,42,o),
(226,10,o),
(178,10,cs),
(176,10,l),
(175,0,l),
(484,0,l),
(483,10,l),
(481,10,ls),
(435,10,o),
(403,43,o),
(403,90,cs),
(403,448,l),
(543,637,ls),
(588,697,o),
(619,737,o),
(664,740,c),
(664,750,l),
(474,750,l)
);
},
{
closed = 1;
nodes = (
(500,923,l),
(500,928,l),
(436,986,l),
(431,986,l),
(293,793,l),
(300,783,l)
);
}
);
width = 639;
}
);
leftKerningGroup = J;
unicode = 221;
},
{
glyphname = Thorn;
layers = (
{
hints = (
{
horizontal = 1;
place = (0,10);
type = Stem;
},
{
horizontal = 1;
place = (147,10);
type = Stem;
},
{
horizontal = 1;
place = (592,11);
type = Stem;
},
{
horizontal = 1;
place = (740,10);
type = Stem;
},
{
place = (81,144);
type = Stem;
},
{
place = (407,160);
type = Stem;
}
);
layerId = "4476E8FB-E1E7-4AA1-B35B-6BE7AD43F443";
shapes = (
{
closed = 1;
nodes = (
(265,592,ls),
(350,592,o),
(407,505,o),
(407,375,cs),
(407,246,o),
(350,159,o),
(264,158,cs),
(225,157,l),
(225,592,l)
);
},
{
closed = 1;
nodes = (
(295,147,ls),
(459,147,o),
(567,238,o),
(567,375,cs),
(567,512,o),
(459,603,o),
(295,603,cs),
(225,603,l),
(225,660,ls),
(225,708,o),
(257,740,o),
(305,740,c),
(306,740,l),
(306,750,l),
(0,750,l),
(0,740,l),
(1,740,l),
(49,740,o),
(81,708,o),
(81,660,cs),
(81,90,ls),
(81,42,o),
(49,10,o),
(1,10,c),
(0,10,l),
(0,0,l),
(306,0,l),
(306,10,l),
(305,10,l),
(257,10,o),
(225,42,o),
(225,90,cs),
(225,147,l)
);
}
);
width = 591;
}
);
leftKerningGroup = B;
unicode = 222;
},
{
glyphname = germandbls;
layers = (
{
hints = (
{
horizontal = 1;
place = (-14,14);
type = Stem;
},
{
horizontal = 1;
place = (0,10);
type = Stem;
},
{
horizontal = 1;
place = (498,10);
type = Stem;
},
{
horizontal = 1;
place = (750,14);
type = Stem;
},
{
place = (89,155);
type = Stem;
},
{
place = (331,27);
type = Stem;
},
{
place = (444,121);
type = Stem;
},
{
place = (534,157);
type = Stem;
}
);
layerId = "4476E8FB-E1E7-4AA1-B35B-6BE7AD43F443";
shapes = (
{
closed = 1;
nodes = (
(89,90,ls),
(89,42,o),
(57,10,o),
(9,10,c),
(8,10,l),
(7,0,l),
(244,0,l),
(244,559,ls),
(244,674,o),
(284,750,o),
(345,750,cs),
(404,750,o),
(444,676,o),
(444,564,c),
(367,537,o),
(331,498,o),
(331,441,cs),
(331,303,o),
(534,267,o),
(534,107,cs),
(534,42,o),
(501,0,o),
(450,0,cs),
(371,0,o),
(339,42,o),
(319,202,c),
(309,202,l),
(332,0,l),
(402,0,o),
(414,-14,o),
(482,-14,cs),
(616,-14,o),
(691,43,o),
(691,134,cs),
(691,316,o),
(358,342,o),
(358,461,cs),
(358,522,o),
(442,564,o),
(565,564,c),
(565,683,o),
(471,764,o),
(333,764,cs),
(187,764,o),
(91,673,o),
(91,534,c),
(90,508,l),
(7,508,l),
(8,498,l),
(9,498,l),
(57,498,o),
(89,466,o),
(89,418,cs)
);
}
);
width = 707;
}
);
leftKerningGroup = J;
unicode = 223;
},
{
glyphname = agrave;
layers = (
{
hints = (
{
horizontal = 1;
place = (-14,62);
type = Stem;
},
{
horizontal = 1;
place = (510,13);
type = Stem;
},
{
place = (31,134);
type = Stem;
},
{
place = (331,144);
type = Stem;
}
);
layerId = "4476E8FB-E1E7-4AA1-B35B-6BE7AD43F443";
shapes = (
{
closed = 1;
nodes = (
(330,95,l),
(296,62,o),
(270,48,o),
(241,48,cs),
(197,48,o),
(165,89,o),
(165,146,cs),
(165,204,o),
(186,243,o),
(291,283,cs),
(331,298,l)
);
},
{
closed = 1;
nodes = (
(182,523,o),
(90,468,o),
(55,386,c),
(163,324,l),
(175,439,o),
(213,509,o),
(263,510,c),
(305,510,o),
(331,462,o),
(331,386,cs),
(331,311,l),
(238,277,ls),
(62,213,o),
(31,166,o),
(31,106,cs),
(31,34,o),
(85,-14,o),
(166,-14,cs),
(223,-14,o),
(266,11,o),
(332,81,c),
(341,24,o),
(381,-14,o),
(432,-14,cs),
(479,-14,o),
(533,18,o),
(567,65,c),
(559,72,l),
(544,55,o),
(530,47,o),
(514,47,cs),
(489,47,o),
(474,68,o),
(475,105,c),
(475,346,ls),
(475,453,o),
(398,523,o),
(283,523,cs)
);
},
{
closed = 1;
nodes = (
(343,591,l),
(206,784,l),
(201,784,l),
(136,726,l),
(136,721,l),
(336,581,l)
);
}
);
width = 551;
}
);
leftKerningGroup = a2;
rightKerningGroup = a;
unicode = 224;
},
{
glyphname = aacute;
layers = (
{
hints = (
{
horizontal = 1;
place = (-14,62);
type = Stem;
},
{
horizontal = 1;
place = (510,13);
type = Stem;
},
{
place = (31,134);
type = Stem;
},
{
place = (331,144);
type = Stem;
}
);
layerId = "4476E8FB-E1E7-4AA1-B35B-6BE7AD43F443";
shapes = (
{
closed = 1;
nodes = (
(330,95,l),
(296,62,o),
(270,48,o),
(241,48,cs),
(197,48,o),
(165,89,o),
(165,146,cs),
(165,204,o),
(186,243,o),
(291,283,cs),
(331,298,l)
);
},
{
closed = 1;
nodes = (
(182,523,o),
(90,468,o),
(55,386,c),
(163,324,l),
(175,439,o),
(213,509,o),
(263,510,c),
(305,510,o),
(331,462,o),
(331,386,cs),
(331,311,l),
(238,277,ls),
(62,213,o),
(31,166,o),
(31,106,cs),
(31,34,o),
(85,-14,o),
(166,-14,cs),
(223,-14,o),
(266,11,o),
(332,81,c),
(341,24,o),
(381,-14,o),
(432,-14,cs),
(479,-14,o),
(533,18,o),
(567,65,c),
(559,72,l),
(544,55,o),
(530,47,o),
(514,47,cs),
(489,47,o),
(474,68,o),
(475,105,c),
(475,346,ls),
(475,453,o),
(398,523,o),
(283,523,cs)
);
},
{
closed = 1;
nodes = (
(350,784,l),
(345,784,l),
(207,591,l),
(214,581,l),
(414,721,l),
(414,726,l)
);
}
);
width = 551;
}
);
leftKerningGroup = a2;
rightKerningGroup = a;
unicode = 225;
},
{
glyphname = acircumflex;
layers = (
{
hints = (
{
horizontal = 1;
place = (-14,62);
type = Stem;
},
{
horizontal = 1;
place = (510,13);
type = Stem;
},
{
horizontal = 1;
place = (714,70);
type = Stem;
},
{
place = (31,134);
type = Stem;
},
{
place = (331,144);
type = Stem;
}
);
layerId = "4476E8FB-E1E7-4AA1-B35B-6BE7AD43F443";
shapes = (
{
closed = 1;
nodes = (
(330,95,l),
(296,62,o),
(270,48,o),
(241,48,cs),
(197,48,o),
(165,89,o),
(165,146,cs),
(165,204,o),
(186,243,o),
(291,283,cs),
(331,298,l)
);
},
{
closed = 1;
nodes = (
(182,523,o),
(90,468,o),
(55,386,c),
(163,324,l),
(175,439,o),
(213,509,o),
(263,510,c),
(305,510,o),
(331,462,o),
(331,386,cs),
(331,311,l),
(238,277,ls),
(62,213,o),
(31,166,o),
(31,106,cs),
(31,34,o),
(85,-14,o),
(166,-14,cs),
(223,-14,o),
(266,11,o),
(332,81,c),
(341,24,o),
(381,-14,o),
(432,-14,cs),
(479,-14,o),
(533,18,o),
(567,65,c),
(559,72,l),
(544,55,o),
(530,47,o),
(514,47,cs),
(489,47,o),
(474,68,o),
(475,105,c),
(475,346,ls),
(475,453,o),
(398,523,o),
(283,523,cs)
);
},
{
closed = 1;
nodes = (
(117,588,l),
(124,581,l),
(270,714,l),
(416,581,l),
(423,588,l),
(295,784,l),
(244,784,l)
);
}
);
width = 551;
}
);
leftKerningGroup = a2;
rightKerningGroup = a;
unicode = 226;
},
{
glyphname = atilde;
layers = (
{
hints = (
{
horizontal = 1;
place = (-14,62);
type = Stem;
},
{
horizontal = 1;
place = (510,13);
type = Stem;
},
{
horizontal = 1;
place = (613,70);
type = Stem;
},
{
horizontal = 1;
place = (670,70);
type = Stem;
},
{
place = (31,134);
type = Stem;
},
{
place = (331,144);
type = Stem;
}
);
layerId = "4476E8FB-E1E7-4AA1-B35B-6BE7AD43F443";
shapes = (
{
closed = 1;
nodes = (
(330,95,l),
(296,62,o),
(270,48,o),
(241,48,cs),
(197,48,o),
(165,89,o),
(165,146,cs),
(165,204,o),
(186,243,o),
(291,283,cs),
(331,298,l)
);
},
{
closed = 1;
nodes = (
(182,523,o),
(90,468,o),
(55,386,c),
(163,324,l),
(175,439,o),
(213,509,o),
(263,510,c),
(305,510,o),
(331,462,o),
(331,386,cs),
(331,311,l),
(238,277,ls),
(62,213,o),
(31,166,o),
(31,106,cs),
(31,34,o),
(85,-14,o),
(166,-14,cs),
(223,-14,o),
(266,11,o),
(332,81,c),
(341,24,o),
(381,-14,o),
(432,-14,cs),
(479,-14,o),
(533,18,o),
(567,65,c),
(559,72,l),
(544,55,o),
(530,47,o),
(514,47,cs),
(489,47,o),
(474,68,o),
(475,105,c),
(475,346,ls),
(475,453,o),
(398,523,o),
(283,523,cs)
);
},
{
closed = 1;
nodes = (
(408,727,l),
(389,693,o),
(368,683,o),
(348,683,cs),
(300,683,o),
(273,740,o),
(221,740,cs),
(185,740,o),
(146,696,o),
(123,630,c),
(133,626,l),
(150,657,o),
(176,670,o),
(199,670,cs),
(245,670,o),
(273,613,o),
(325,613,cs),
(364,613,o),
(401,657,o),
(418,723,c)
);
}
);
width = 551;
}
);
leftKerningGroup = a2;
rightKerningGroup = a;
unicode = 227;
},
{
glyphname = adieresis;
layers = (
{
hints = (
{
horizontal = 1;
place = (-14,62);
type = Stem;
},
{
horizontal = 1;
place = (510,13);
type = Stem;
},
{
horizontal = 1;
place = (604,150);
type = Stem;
},
{
place = (31,134);
type = Stem;
},
{
place = (86,150);
type = Stem;
},
{
place = (284,150);
type = Stem;
},
{
place = (331,144);
type = Stem;
}
);
layerId = "4476E8FB-E1E7-4AA1-B35B-6BE7AD43F443";
shapes = (
{
closed = 1;
nodes = (
(330,95,l),
(296,62,o),
(270,48,o),
(241,48,cs),
(197,48,o),
(165,89,o),
(165,146,cs),
(165,204,o),
(186,243,o),
(291,283,cs),
(331,298,l)
);
},
{
closed = 1;
nodes = (
(182,523,o),
(90,468,o),
(55,386,c),
(163,324,l),
(175,439,o),
(213,509,o),
(263,510,c),
(305,510,o),
(331,462,o),
(331,386,cs),
(331,311,l),
(238,277,ls),
(62,213,o),
(31,166,o),
(31,106,cs),
(31,34,o),
(85,-14,o),
(166,-14,cs),
(223,-14,o),
(266,11,o),
(332,81,c),
(341,24,o),
(381,-14,o),
(432,-14,cs),
(479,-14,o),
(533,18,o),
(567,65,c),
(559,72,l),
(544,55,o),
(530,47,o),
(514,47,cs),
(489,47,o),
(474,68,o),
(475,105,c),
(475,346,ls),
(475,453,o),
(398,523,o),
(283,523,cs)
);
},
{
closed = 1;
nodes = (
(86,638,o),
(120,604,o),
(161,604,cs),
(202,604,o),
(236,638,o),
(236,679,cs),
(236,720,o),
(202,754,o),
(161,754,cs),
(120,754,o),
(86,720,o),
(86,679,cs)
);
},
{
closed = 1;
nodes = (
(284,638,o),
(318,604,o),
(359,604,cs),
(400,604,o),
(434,638,o),
(434,679,cs),
(434,720,o),
(400,754,o),
(359,754,cs),
(318,754,o),
(284,720,o),
(284,679,cs)
);
}
);
width = 551;
}
);
leftKerningGroup = a2;
rightKerningGroup = a;
unicode = 228;
},
{
glyphname = aring;
layers = (
{
hints = (
{
horizontal = 1;
place = (-14,62);
type = Stem;
},
{
horizontal = 1;
place = (510,13);
type = Stem;
},
{
horizontal = 1;
place = (614,19);
type = Stem;
},
{
horizontal = 1;
place = (745,19);
type = Stem;
},
{
place = (31,134);
type = Stem;
},
{
place = (183,22);
type = Stem;
},
{
place = (316,21);
type = Stem;
},
{
place = (331,144);
type = Stem;
}
);
layerId = "4476E8FB-E1E7-4AA1-B35B-6BE7AD43F443";
shapes = (
{
closed = 1;
nodes = (
(330,95,l),
(296,62,o),
(270,48,o),
(241,48,cs),
(197,48,o),
(165,89,o),
(165,146,cs),
(165,204,o),
(186,243,o),
(291,283,cs),
(331,298,l)
);
},
{
closed = 1;
nodes = (
(205,719,o),
(230,745,o),
(260,745,cs),
(290,745,o),
(316,719,o),
(316,689,cs),
(316,659,o),
(290,633,o),
(260,633,cs),
(230,633,o),
(205,659,o),
(205,689,cs)
);
},
{
closed = 1;
nodes = (
(182,523,o),
(90,468,o),
(55,386,c),
(163,324,l),
(175,439,o),
(213,509,o),
(263,510,c),
(305,510,o),
(331,462,o),
(331,386,cs),
(331,311,l),
(238,277,ls),
(62,213,o),
(31,166,o),
(31,106,cs),
(31,34,o),
(85,-14,o),
(166,-14,cs),
(223,-14,o),
(266,11,o),
(332,81,c),
(341,24,o),
(381,-14,o),
(432,-14,cs),
(479,-14,o),
(533,18,o),
(567,65,c),
(559,72,l),
(544,55,o),
(530,47,o),
(514,47,cs),
(489,47,o),
(474,68,o),
(475,105,c),
(475,346,ls),
(475,453,o),
(398,523,o),
(283,523,cs)
);
},
{
closed = 1;
nodes = (
(183,648,o),
(218,614,o),
(260,614,c),
(302,614,o),
(337,648,o),
(337,689,cs),
(337,730,o),
(302,764,o),
(260,764,cs),
(218,764,o),
(183,730,o),
(183,689,cs)
);
}
);
width = 551;
}
);
leftKerningGroup = a2;
rightKerningGroup = a;
unicode = 229;
},
{
glyphname = ae;
layers = (
{
hints = (
{
horizontal = 1;
place = (-14,60);
type = Stem;
},
{
horizontal = 1;
place = (-12,84);
type = Stem;
},
{
horizontal = 1;
place = (315,15);
type = Stem;
},
{
horizontal = 1;
place = (509,13);
type = Stem;
},
{
place = (31,132);
type = Stem;
},
{
place = (344,114);
type = Stem;
},
{
place = (662,131);
type = Stem;
}
);
layerId = "4476E8FB-E1E7-4AA1-B35B-6BE7AD43F443";
shapes = (
{
closed = 1;
nodes = (
(344,255,ls),
(344,210,o),
(351,168,o),
(366,130,c),
(335,80,o),
(285,46,o),
(243,46,cs),
(195,46,o),
(163,86,o),
(163,148,cs),
(163,208,o),
(198,245,o),
(290,284,cs),
(344,307,l)
);
},
{
closed = 1;
nodes = (
(459,330,l),
(464,437,o),
(507,507,o),
(565,507,cs),
(624,507,o),
(662,437,o),
(662,330,c)
);
},
{
closed = 1;
nodes = (
(171,522,o),
(93,473,o),
(55,384,c),
(163,324,l),
(175,437,o),
(218,509,o),
(274,509,cs),
(319,509,o),
(344,465,o),
(344,386,cs),
(344,321,l),
(235,277,ls),
(77,213,o),
(31,175,o),
(31,106,cs),
(31,35,o),
(85,-14,o),
(162,-14,cs),
(242,-14,o),
(329,41,o),
(371,119,c),
(400,37,o),
(474,-12,o),
(568,-12,cs),
(677,-12,o),
(767,54,o),
(802,161,c),
(793,164,l),
(755,108,o),
(691,72,o),
(629,72,cs),
(527,72,o),
(457,169,o),
(458,310,c),
(458,315,l),
(793,315,l),
(793,330,l),
(789,444,o),
(701,522,o),
(576,522,cs),
(518,522,o),
(467,505,o),
(427,474,c),
(392,505,o),
(338,522,o),
(275,522,cs)
);
}
);
width = 826;
}
);
leftKerningGroup = a2;
rightKerningGroup = b;
unicode = 230;
},
{
glyphname = ccedilla;
layers = (
{
hints = (
{
horizontal = 1;
place = (-225,17);
type = Stem;
},
{
horizontal = 1;
place = (-218,21);
target = up;
type = BottomGhost;
},
{
horizontal = 1;
place = (-63,7);
type = Stem;
},
{
horizontal = 1;
place = (-14,89);
type = Stem;
},
{
horizontal = 1;
place = (507,15);
type = Stem;
},
{
place = (33,127);
type = Stem;
},
{
place = (258,14);
type = Stem;
},
{
place = (315,80);
type = Stem;
}
);
layerId = "4476E8FB-E1E7-4AA1-B35B-6BE7AD43F443";
shapes = (
{
closed = 1;
nodes = (
(33,102,o),
(119,-14,o),
(275,-14,c),
(258,-57,l),
(258,-63,l),
(290,-69,o),
(315,-106,o),
(315,-150,cs),
(315,-186,o),
(298,-208,o),
(272,-208,cs),
(241,-208,o),
(217,-177,o),
(205,-119,c),
(194,-119,l),
(213,-218,l),
(247,-218,o),
(255,-225,o),
(286,-225,cs),
(352,-225,o),
(395,-193,o),
(395,-145,cs),
(395,-92,o),
(346,-57,o),
(272,-56,c),
(289,-13,l),
(389,-4,o),
(470,64,o),
(503,166,c),
(493,169,l),
(454,112,o),
(389,75,o),
(327,75,cs),
(228,75,o),
(160,171,o),
(160,312,cs),
(160,426,o),
(203,507,o),
(264,507,cs),
(326,507,o),
(363,423,o),
(363,286,c),
(483,353,l),
(469,456,o),
(388,522,o),
(276,522,cs),
(133,522,o),
(33,411,o),
(33,251,cs)
);
}
);
width = 527;
}
);
leftKerningGroup = c2;
rightKerningGroup = c;
unicode = 231;
},
{
glyphname = egrave;
layers = (
{
hints = (
{
horizontal = 1;
place = (-12,89);
type = Stem;
},
{
horizontal = 1;
place = (315,15);
type = Stem;
},
{
horizontal = 1;
place = (507,15);
type = Stem;
},
{
place = (33,136);
type = Stem;
},
{
place = (373,131);
type = Stem;
}
);
layerId = "4476E8FB-E1E7-4AA1-B35B-6BE7AD43F443";
shapes = (
{
closed = 1;
nodes = (
(169,330,l),
(175,437,o),
(218,507,o),
(276,507,cs),
(335,507,o),
(373,437,o),
(373,330,c)
);
},
{
closed = 1;
nodes = (
(33,97,o),
(130,-12,o),
(269,-12,cs),
(379,-12,o),
(479,56,o),
(513,161,c),
(504,164,l),
(468,111,o),
(405,77,o),
(342,77,cs),
(237,77,o),
(168,170,o),
(169,310,c),
(169,315,l),
(504,315,l),
(504,330,l),
(500,444,o),
(412,522,o),
(287,522,cs),
(139,522,o),
(33,414,o),
(33,255,cs)
);
},
{
closed = 1;
nodes = (
(371,591,l),
(233,784,l),
(228,784,l),
(164,726,l),
(164,721,l),
(364,581,l)
);
}
);
width = 537;
}
);
leftKerningGroup = c2;
rightKerningGroup = c;
unicode = 232;
},
{
glyphname = eacute;
layers = (
{
hints = (
{
horizontal = 1;
place = (-12,89);
type = Stem;
},
{
horizontal = 1;
place = (315,15);
type = Stem;
},
{
horizontal = 1;
place = (507,15);
type = Stem;
},
{
place = (33,136);
type = Stem;
},
{
place = (373,131);
type = Stem;
}
);
layerId = "4476E8FB-E1E7-4AA1-B35B-6BE7AD43F443";
shapes = (
{
closed = 1;
nodes = (
(169,330,l),
(175,437,o),
(218,507,o),
(276,507,cs),
(335,507,o),
(373,437,o),
(373,330,c)
);
},
{
closed = 1;
nodes = (
(33,97,o),
(130,-12,o),
(269,-12,cs),
(379,-12,o),
(479,56,o),
(513,161,c),
(504,164,l),
(468,111,o),
(405,77,o),
(342,77,cs),
(237,77,o),
(168,170,o),
(169,310,c),
(169,315,l),
(504,315,l),
(504,330,l),
(500,444,o),
(412,522,o),
(287,522,cs),
(139,522,o),
(33,414,o),
(33,255,cs)
);
},
{
closed = 1;
nodes = (
(357,784,l),
(352,784,l),
(215,591,l),
(222,581,l),
(421,721,l),
(421,726,l)
);
}
);
width = 537;
}
);
leftKerningGroup = c2;
rightKerningGroup = c;
unicode = 233;
},
{
glyphname = ecircumflex;
layers = (
{
hints = (
{
horizontal = 1;
place = (-12,89);
type = Stem;
},
{
horizontal = 1;
place = (315,15);
type = Stem;
},
{
horizontal = 1;
place = (507,15);
type = Stem;
},
{
horizontal = 1;
place = (714,70);
type = Stem;
},
{
place = (33,136);
type = Stem;
},
{
place = (373,131);
type = Stem;
}
);
layerId = "4476E8FB-E1E7-4AA1-B35B-6BE7AD43F443";
shapes = (
{
closed = 1;
nodes = (
(169,330,l),
(175,437,o),
(218,507,o),
(276,507,cs),
(335,507,o),
(373,437,o),
(373,330,c)
);
},
{
closed = 1;
nodes = (
(33,97,o),
(130,-12,o),
(269,-12,cs),
(379,-12,o),
(479,56,o),
(513,161,c),
(504,164,l),
(468,111,o),
(405,77,o),
(342,77,cs),
(237,77,o),
(168,170,o),
(169,310,c),
(169,315,l),
(504,315,l),
(504,330,l),
(500,444,o),
(412,522,o),
(287,522,cs),
(139,522,o),
(33,414,o),
(33,255,cs)
);
},
{
closed = 1;
nodes = (
(140,588,l),
(147,581,l),
(293,714,l),
(439,581,l),
(446,588,l),
(318,784,l),
(267,784,l)
);
}
);
width = 537;
}
);
leftKerningGroup = c2;
rightKerningGroup = c;
unicode = 234;
},
{
glyphname = edieresis;
layers = (
{
hints = (
{
horizontal = 1;
place = (-12,89);
type = Stem;
},
{
horizontal = 1;
place = (315,15);
type = Stem;
},
{
horizontal = 1;
place = (507,15);
type = Stem;
},
{
horizontal = 1;
place = (603,150);
type = Stem;
},
{
place = (33,136);
type = Stem;
},
{
place = (111,150);
type = Stem;
},
{
place = (309,150);
type = Stem;
},
{
place = (373,131);
type = Stem;
}
);
layerId = "4476E8FB-E1E7-4AA1-B35B-6BE7AD43F443";
shapes = (
{
closed = 1;
nodes = (
(169,330,l),
(175,437,o),
(218,507,o),
(276,507,cs),
(335,507,o),
(373,437,o),
(373,330,c)
);
},
{
closed = 1;
nodes = (
(33,97,o),
(130,-12,o),
(269,-12,cs),
(379,-12,o),
(479,56,o),
(513,161,c),
(504,164,l),
(468,111,o),
(405,77,o),
(342,77,cs),
(237,77,o),
(168,170,o),
(169,310,c),
(169,315,l),
(504,315,l),
(504,330,l),
(500,444,o),
(412,522,o),
(287,522,cs),
(139,522,o),
(33,414,o),
(33,255,cs)
);
},
{
closed = 1;
nodes = (
(111,637,o),
(145,603,o),
(186,603,cs),
(226,603,o),
(261,637,o),
(261,678,cs),
(261,719,o),
(226,753,o),
(186,753,cs),
(145,753,o),
(111,719,o),
(111,678,cs)
);
},
{
closed = 1;
nodes = (
(309,637,o),
(343,603,o),
(384,603,cs),
(424,603,o),
(459,637,o),
(459,678,cs),
(459,719,o),
(424,753,o),
(384,753,cs),
(343,753,o),
(309,719,o),
(309,678,cs)
);
}
);
width = 537;
}
);
leftKerningGroup = c2;
rightKerningGroup = c;
unicode = 235;
},
{
glyphname = igrave;
layers = (
{
hints = (
{
horizontal = 1;
place = (0,10);
type = Stem;
},
{
horizontal = 1;
place = (498,10);
type = Stem;
},
{
horizontal = 1;
place = (546,-20);
target = down;
type = TopGhost;
},
{
place = (88,144);
type = Stem;
}
);
layerId = "4476E8FB-E1E7-4AA1-B35B-6BE7AD43F443";
shapes = (
{
closed = 1;
nodes = (
(312,10,l),
(264,10,o),
(232,42,o),
(232,90,cs),
(232,546,l),
(222,546,l),
(208,523,o),
(179,508,o),
(109,508,cs),
(7,508,l),
(7,498,l),
(75,498,o),
(87,466,o),
(88,418,c),
(88,90,ls),
(88,42,o),
(56,10,o),
(8,10,c),
(7,10,l),
(7,0,l),
(313,0,l),
(313,10,l)
);
},
{
closed = 1;
nodes = (
(11,721,l),
(211,581,l),
(218,591,l),
(80,784,l),
(75,784,l),
(11,726,l)
);
}
);
width = 297;
}
);
leftKerningGroup = i2;
rightKerningGroup = i;
unicode = 236;
},
{
glyphname = iacute;
layers = (
{
hints = (
{
horizontal = 1;
place = (0,10);
type = Stem;
},
{
horizontal = 1;
place = (498,10);
type = Stem;
},
{
horizontal = 1;
place = (546,-20);
target = down;
type = TopGhost;
},
{
place = (88,144);
type = Stem;
}
);
layerId = "4476E8FB-E1E7-4AA1-B35B-6BE7AD43F443";
shapes = (
{
closed = 1;
nodes = (
(312,10,l),
(264,10,o),
(232,42,o),
(232,90,cs),
(232,546,l),
(222,546,l),
(208,523,o),
(179,508,o),
(109,508,cs),
(7,508,l),
(7,498,l),
(75,498,o),
(87,466,o),
(88,418,c),
(88,90,ls),
(88,42,o),
(56,10,o),
(8,10,c),
(7,10,l),
(7,0,l),
(313,0,l),
(313,10,l)
);
},
{
closed = 1;
nodes = (
(298,721,l),
(298,726,l),
(234,784,l),
(229,784,l),
(92,591,l),
(99,581,l)
);
}
);
width = 297;
}
);
leftKerningGroup = i2;
rightKerningGroup = i;
unicode = 237;
},
{
glyphname = icircumflex;
layers = (
{
hints = (
{
horizontal = 1;
place = (0,10);
type = Stem;
},
{
horizontal = 1;
place = (498,10);
type = Stem;
},
{
horizontal = 1;
place = (546,-20);
target = down;
type = TopGhost;
},
{
horizontal = 1;
place = (714,70);
type = Stem;
},
{
place = (88,144);
type = Stem;
}
);
layerId = "4476E8FB-E1E7-4AA1-B35B-6BE7AD43F443";
shapes = (
{
closed = 1;
nodes = (
(312,10,l),
(264,10,o),
(232,42,o),
(232,90,cs),
(232,546,l),
(222,546,l),
(208,523,o),
(179,508,o),
(109,508,cs),
(7,508,l),
(7,498,l),
(75,498,o),
(87,466,o),
(88,418,c),
(88,90,ls),
(88,42,o),
(56,10,o),
(8,10,c),
(7,10,l),
(7,0,l),
(313,0,l),
(313,10,l)
);
},
{
closed = 1;
nodes = (
(185,784,l),
(134,784,l),
(7,588,l),
(14,581,l),
(160,714,l),
(306,581,l),
(313,588,l)
);
}
);
width = 297;
}
);
leftKerningGroup = i2;
rightKerningGroup = i;
unicode = 238;
},
{
glyphname = idieresis;
layers = (
{
hints = (
{
horizontal = 1;
place = (0,10);
type = Stem;
},
{
horizontal = 1;
place = (498,10);
type = Stem;
},
{
horizontal = 1;
place = (546,-20);
target = down;
type = TopGhost;
},
{
horizontal = 1;
place = (604,150);
type = Stem;
},
{
place = (-15,151);
type = Stem;
},
{
place = (88,144);
type = Stem;
},
{
place = (184,150);
type = Stem;
}
);
layerId = "4476E8FB-E1E7-4AA1-B35B-6BE7AD43F443";
shapes = (
{
closed = 1;
nodes = (
(312,10,l),
(264,10,o),
(232,42,o),
(232,90,cs),
(232,546,l),
(222,546,l),
(208,523,o),
(179,508,o),
(109,508,cs),
(7,508,l),
(7,498,l),
(75,498,o),
(87,466,o),
(88,418,c),
(88,90,ls),
(88,42,o),
(56,10,o),
(8,10,c),
(7,10,l),
(7,0,l),
(313,0,l),
(313,10,l)
);
},
{
closed = 1;
nodes = (
(-15,638,o),
(20,604,o),
(61,604,cs),
(101,604,o),
(136,638,o),
(136,679,cs),
(136,720,o),
(101,754,o),
(61,754,cs),
(20,754,o),
(-15,720,o),
(-15,679,cs)
);
},
{
closed = 1;
nodes = (
(184,638,o),
(218,604,o),
(259,604,cs),
(299,604,o),
(334,638,o),
(334,679,cs),
(334,720,o),
(299,754,o),
(259,754,cs),
(218,754,o),
(184,720,o),
(184,679,cs)
);
}
);
width = 297;
}
);
leftKerningGroup = i2;
rightKerningGroup = i;
unicode = 239;
},
{
glyphname = eth;
layers = (
{
hints = (
{
horizontal = 1;
place = (-14,12);
type = Stem;
},
{
horizontal = 1;
place = (489,11);
type = Stem;
},
{
place = (33,160);
type = Stem;
},
{
place = (418,155);
type = Stem;
}
);
layerId = "4476E8FB-E1E7-4AA1-B35B-6BE7AD43F443";
shapes = (
{
closed = 1;
nodes = (
(193,387,o),
(240,489,o),
(306,489,cs),
(371,489,o),
(418,387,o),
(418,244,cs),
(418,101,o),
(371,-2,o),
(305,-2,cs),
(240,-2,o),
(193,101,o),
(193,244,cs)
);
},
{
closed = 1;
nodes = (
(33,88,o),
(141,-14,o),
(304,-14,cs),
(470,-14,o),
(573,91,o),
(573,260,cs),
(573,398,o),
(509,551,o),
(411,646,c),
(516,681,l),
(513,690,l),
(404,653,l),
(342,710,o),
(240,768,o),
(150,796,c),
(146,787,l),
(211,755,o),
(287,688,o),
(327,627,c),
(176,576,l),
(179,567,l),
(332,619,l),
(361,573,o),
(387,512,o),
(401,457,c),
(382,483,o),
(337,500,o),
(290,500,cs),
(136,500,o),
(33,397,o),
(33,243,cs)
);
}
);
width = 612;
}
);
leftKerningGroup = J;
unicode = 240;
},
{
glyphname = ntilde;
layers = (
{
hints = (
{
horizontal = 1;
place = (0,10);
type = Stem;
},
{
horizontal = 1;
place = (482,40);
type = Stem;
},
{
horizontal = 1;
place = (498,10);
type = Stem;
},
{
horizontal = 1;
place = (546,-20);
target = down;
type = TopGhost;
},
{
horizontal = 1;
place = (613,70);
type = Stem;
},
{
horizontal = 1;
place = (670,70);
type = Stem;
},
{
place = (94,144);
type = Stem;
},
{
place = (432,143);
type = Stem;
}
);
layerId = "4476E8FB-E1E7-4AA1-B35B-6BE7AD43F443";
shapes = (
{
closed = 1;
nodes = (
(655,10,l),
(607,10,o),
(575,42,o),
(575,90,cs),
(575,362,ls),
(575,458,o),
(516,522,o),
(427,522,cs),
(348,522,o),
(271,474,o),
(236,406,c),
(235,546,l),
(225,546,l),
(211,523,o),
(182,508,o),
(112,508,cs),
(13,508,l),
(13,498,l),
(81,498,o),
(93,466,o),
(94,418,c),
(94,90,ls),
(94,42,o),
(62,10,o),
(14,10,c),
(13,10,l),
(13,0,l),
(319,0,l),
(319,10,l),
(318,10,l),
(270,10,o),
(238,42,o),
(238,90,cs),
(238,384,l),
(271,443,o),
(320,482,o),
(360,482,cs),
(403,482,o),
(432,438,o),
(432,372,cs),
(432,90,ls),
(432,42,o),
(400,10,o),
(352,10,c),
(351,10,l),
(351,0,l),
(656,0,l),
(656,10,l)
);
},
{
closed = 1;
nodes = (
(469,727,l),
(450,693,o),
(429,683,o),
(409,683,cs),
(361,683,o),
(334,740,o),
(282,740,cs),
(246,740,o),
(207,696,o),
(184,630,c),
(194,626,l),
(211,657,o),
(237,670,o),
(260,670,cs),
(306,670,o),
(334,613,o),
(386,613,cs),
(425,613,o),
(462,657,o),
(479,723,c)
);
}
);
width = 662;
}
);
leftKerningGroup = i2;
rightKerningGroup = h;
unicode = 241;
},
{
glyphname = ograve;
layers = (
{
hints = (
{
horizontal = 1;
place = (-14,13);
type = Stem;
},
{
horizontal = 1;
place = (510,12);
type = Stem;
},
{
place = (34,160);
type = Stem;
},
{
place = (419,160);
type = Stem;
}
);
layerId = "4476E8FB-E1E7-4AA1-B35B-6BE7AD43F443";
shapes = (
{
closed = 1;
nodes = (
(194,403,o),
(241,510,o),
(307,510,cs),
(372,510,o),
(419,403,o),
(419,255,cs),
(419,107,o),
(372,-1,o),
(306,-1,cs),
(241,-1,o),
(194,107,o),
(194,255,cs)
);
},
{
closed = 1;
nodes = (
(34,92,o),
(142,-14,o),
(307,-14,cs),
(471,-14,o),
(579,92,o),
(579,254,cs),
(579,416,o),
(471,522,o),
(307,522,cs),
(142,522,o),
(34,416,o),
(34,254,cs)
);
},
{
closed = 1;
nodes = (
(369,591,l),
(232,784,l),
(227,784,l),
(162,726,l),
(162,721,l),
(362,581,l)
);
}
);
width = 612;
}
);
leftKerningGroup = c2;
rightKerningGroup = b;
unicode = 242;
},
{
glyphname = oacute;
layers = (
{
hints = (
{
horizontal = 1;
place = (-14,13);
type = Stem;
},
{
horizontal = 1;
place = (510,12);
type = Stem;
},
{
place = (34,160);
type = Stem;
},
{
place = (419,160);
type = Stem;
}
);
layerId = "4476E8FB-E1E7-4AA1-B35B-6BE7AD43F443";
shapes = (
{
closed = 1;
nodes = (
(194,403,o),
(241,510,o),
(307,510,cs),
(372,510,o),
(419,403,o),
(419,255,cs),
(419,107,o),
(372,-1,o),
(306,-1,cs),
(241,-1,o),
(194,107,o),
(194,255,cs)
);
},
{
closed = 1;
nodes = (
(34,92,o),
(142,-14,o),
(307,-14,cs),
(471,-14,o),
(579,92,o),
(579,254,cs),
(579,416,o),
(471,522,o),
(307,522,cs),
(142,522,o),
(34,416,o),
(34,254,cs)
);
},
{
closed = 1;
nodes = (
(385,784,l),
(380,784,l),
(243,591,l),
(250,581,l),
(450,721,l),
(450,726,l)
);
}
);
width = 612;
}
);
leftKerningGroup = c2;
rightKerningGroup = b;
unicode = 243;
},
{
glyphname = ocircumflex;
layers = (
{
hints = (
{
horizontal = 1;
place = (-14,13);
type = Stem;
},
{
horizontal = 1;
place = (510,12);
type = Stem;
},
{
horizontal = 1;
place = (714,70);
type = Stem;
},
{
place = (34,160);
type = Stem;
},
{
place = (419,160);
type = Stem;
}
);
layerId = "4476E8FB-E1E7-4AA1-B35B-6BE7AD43F443";
shapes = (
{
closed = 1;
nodes = (
(194,403,o),
(241,510,o),
(307,510,cs),
(372,510,o),
(419,403,o),
(419,255,cs),
(419,107,o),
(372,-1,o),
(306,-1,cs),
(241,-1,o),
(194,107,o),
(194,255,cs)
);
},
{
closed = 1;
nodes = (
(34,92,o),
(142,-14,o),
(307,-14,cs),
(471,-14,o),
(579,92,o),
(579,254,cs),
(579,416,o),
(471,522,o),
(307,522,cs),
(142,522,o),
(34,416,o),
(34,254,cs)
);
},
{
closed = 1;
nodes = (
(153,588,l),
(160,581,l),
(306,714,l),
(452,581,l),
(459,588,l),
(331,784,l),
(280,784,l)
);
}
);
width = 612;
}
);
leftKerningGroup = c2;
rightKerningGroup = b;
unicode = 244;
},
{
glyphname = otilde;
layers = (
{
hints = (
{
horizontal = 1;
place = (-14,13);
type = Stem;
},
{
horizontal = 1;
place = (510,12);
type = Stem;
},
{
horizontal = 1;
place = (613,70);
type = Stem;
},
{
horizontal = 1;
place = (670,70);
type = Stem;
},
{
place = (34,160);
type = Stem;
},
{
place = (419,160);
type = Stem;
}
);
layerId = "4476E8FB-E1E7-4AA1-B35B-6BE7AD43F443";
shapes = (
{
closed = 1;
nodes = (
(194,403,o),
(241,510,o),
(307,510,cs),
(372,510,o),
(419,403,o),
(419,255,cs),
(419,107,o),
(372,-1,o),
(306,-1,cs),
(241,-1,o),
(194,107,o),
(194,255,cs)
);
},
{
closed = 1;
nodes = (
(34,92,o),
(142,-14,o),
(307,-14,cs),
(471,-14,o),
(579,92,o),
(579,254,cs),
(579,416,o),
(471,522,o),
(307,522,cs),
(142,522,o),
(34,416,o),
(34,254,cs)
);
},
{
closed = 1;
nodes = (
(444,727,l),
(425,693,o),
(404,683,o),
(384,683,cs),
(336,683,o),
(309,740,o),
(257,740,cs),
(221,740,o),
(182,696,o),
(159,630,c),
(169,626,l),
(186,657,o),
(212,670,o),
(235,670,cs),
(281,670,o),
(309,613,o),
(361,613,cs),
(400,613,o),
(437,657,o),
(454,723,c)
);
}
);
width = 612;
}
);
leftKerningGroup = c2;
rightKerningGroup = b;
unicode = 245;
},
{
glyphname = odieresis;
layers = (
{
hints = (
{
horizontal = 1;
place = (-14,13);
type = Stem;
},
{
horizontal = 1;
place = (510,12);
type = Stem;
},
{
horizontal = 1;
place = (604,150);
type = Stem;
},
{
place = (34,160);
type = Stem;
},
{
place = (132,150);
type = Stem;
},
{
place = (330,150);
type = Stem;
},
{
place = (419,160);
type = Stem;
}
);
layerId = "4476E8FB-E1E7-4AA1-B35B-6BE7AD43F443";
shapes = (
{
closed = 1;
nodes = (
(34,92,o),
(142,-14,o),
(307,-14,cs),
(471,-14,o),
(579,92,o),
(579,254,cs),
(579,416,o),
(471,522,o),
(307,522,cs),
(142,522,o),
(34,416,o),
(34,254,cs)
);
},
{
closed = 1;
nodes = (
(194,403,o),
(241,510,o),
(307,510,cs),
(372,510,o),
(419,403,o),
(419,255,cs),
(419,107,o),
(372,-1,o),
(306,-1,cs),
(241,-1,o),
(194,107,o),
(194,255,cs)
);
},
{
closed = 1;
nodes = (
(132,638,o),
(166,604,o),
(207,604,cs),
(248,604,o),
(282,638,o),
(282,679,cs),
(282,720,o),
(248,754,o),
(207,754,cs),
(166,754,o),
(132,720,o),
(132,679,cs)
);
},
{
closed = 1;
nodes = (
(330,638,o),
(364,604,o),
(405,604,cs),
(446,604,o),
(480,638,o),
(480,679,cs),
(480,720,o),
(446,754,o),
(405,754,cs),
(364,754,o),
(330,720,o),
(330,679,cs)
);
}
);
width = 612;
}
);
leftKerningGroup = c2;
rightKerningGroup = b;
unicode = 246;
},
{
glyphname = divide;
layers = (
{
hints = (
{
horizontal = 1;
place = (182,92);
type = Stem;
},
{
horizontal = 1;
place = (334,10);
type = Stem;
},
{
horizontal = 1;
place = (404,91);
type = Stem;
},
{
place = (167,87);
type = Stem;
}
);
layerId = "4476E8FB-E1E7-4AA1-B35B-6BE7AD43F443";
shapes = (
{
closed = 1;
nodes = (
(46,334,l),
(376,334,l),
(376,344,l),
(46,344,l)
);
},
{
closed = 1;
nodes = (
(167,203,o),
(186,182,o),
(211,182,cs),
(235,182,o),
(254,203,o),
(254,228,cs),
(254,254,o),
(235,274,o),
(211,274,cs),
(186,274,o),
(167,254,o),
(167,228,cs)
);
},
{
closed = 1;
nodes = (
(167,425,o),
(186,404,o),
(211,404,cs),
(235,404,o),
(254,425,o),
(254,449,cs),
(254,475,o),
(235,495,o),
(211,495,cs),
(186,495,o),
(167,475,o),
(167,449,cs)
);
}
);
width = 421;
}
);
leftKerningGroup = J;
unicode = 247;
},
{
glyphname = oslash;
layers = (
{
hints = (
{
horizontal = 1;
place = (-14,13);
type = Stem;
},
{
horizontal = 1;
place = (0,21);
target = up;
type = BottomGhost;
},
{
horizontal = 1;
place = (468,40);
type = Stem;
},
{
horizontal = 1;
place = (510,12);
type = Stem;
},
{
place = (33,160);
type = Stem;
},
{
place = (418,160);
type = Stem;
}
);
layerId = "4476E8FB-E1E7-4AA1-B35B-6BE7AD43F443";
shapes = (
{
closed = 1;
nodes = (
(193,403,o),
(240,510,o),
(306,510,cs),
(349,510,o),
(384,464,o),
(403,389,c),
(204,137,l),
(197,171,o),
(193,211,o),
(193,255,cs)
);
},
{
closed = 1;
nodes = (
(406,374,l),
(414,339,o),
(418,299,o),
(418,255,cs),
(418,107,o),
(371,-1,o),
(305,-1,cs),
(262,-1,o),
(227,46,o),
(208,121,c)
);
},
{
closed = 1;
nodes = (
(33,162,o),
(68,88,o),
(129,41,c),
(97,0,l),
(113,0,l),
(139,33,l),
(184,3,o),
(240,-14,o),
(306,-14,cs),
(470,-14,o),
(578,92,o),
(578,254,cs),
(578,347,o),
(542,422,o),
(481,468,c),
(512,508,l),
(496,508,l),
(470,476,l),
(426,505,o),
(371,522,o),
(306,522,cs),
(141,522,o),
(33,416,o),
(33,254,cs)
);
}
);
width = 611;
}
);
leftKerningGroup = c2;
rightKerningGroup = b;
unicode = 248;
},
{
glyphname = ugrave;
layers = (
{
hints = (
{
horizontal = 1;
place = (-14,40);
type = Stem;
},
{
horizontal = 1;
place = (0,9);
type = Stem;
},
{
horizontal = 1;
place = (498,10);
type = Stem;
},
{
horizontal = 1;
place = (546,-20);
target = down;
type = TopGhost;
},
{
place = (68,143);
type = Stem;
},
{
place = (405,144);
type = Stem;
}
);
layerId = "4476E8FB-E1E7-4AA1-B35B-6BE7AD43F443";
shapes = (
{
closed = 1;
nodes = (
(405,124,l),
(372,65,o),
(324,26,o),
(283,26,cs),
(240,26,o),
(211,70,o),
(211,136,cs),
(211,546,l),
(201,546,l),
(187,523,o),
(158,508,o),
(87,508,cs),
(-13,508,l),
(-13,498,l),
(55,498,o),
(68,466,o),
(68,418,cs),
(68,146,ls),
(68,50,o),
(127,-14,o),
(216,-14,cs),
(295,-14,o),
(372,33,o),
(407,101,c),
(408,-28,l),
(413,-28,l),
(427,-6,o),
(460,0,o),
(530,0,cs),
(629,0,l),
(629,9,l),
(581,9,o),
(549,42,o),
(549,90,c),
(550,546,l),
(540,546,l),
(526,523,o),
(496,508,o),
(426,508,cs),
(325,508,l),
(325,498,l),
(382,498,o),
(405,466,o),
(405,418,cs)
);
},
{
closed = 1;
nodes = (
(171,721,l),
(371,581,l),
(378,591,l),
(240,784,l),
(235,784,l),
(171,726,l)
);
}
);
width = 612;
}
);
leftKerningGroup = u;
rightKerningGroup = d;
unicode = 249;
},
{
glyphname = uacute;
layers = (
{
hints = (
{
horizontal = 1;
place = (-14,40);
type = Stem;
},
{
horizontal = 1;
place = (0,9);
type = Stem;
},
{
horizontal = 1;
place = (498,10);
type = Stem;
},
{
horizontal = 1;
place = (546,-20);
target = down;
type = TopGhost;
},
{
place = (68,143);
type = Stem;
},
{
place = (405,144);
type = Stem;
}
);
layerId = "4476E8FB-E1E7-4AA1-B35B-6BE7AD43F443";
shapes = (
{
closed = 1;
nodes = (
(405,124,l),
(372,65,o),
(324,26,o),
(283,26,cs),
(240,26,o),
(211,70,o),
(211,136,cs),
(211,546,l),
(201,546,l),
(187,523,o),
(158,508,o),
(87,508,cs),
(-13,508,l),
(-13,498,l),
(55,498,o),
(68,466,o),
(68,418,cs),
(68,146,ls),
(68,50,o),
(127,-14,o),
(216,-14,cs),
(295,-14,o),
(372,33,o),
(407,101,c),
(408,-28,l),
(413,-28,l),
(427,-6,o),
(460,0,o),
(530,0,cs),
(629,0,l),
(629,9,l),
(581,9,o),
(549,42,o),
(549,90,c),
(550,546,l),
(540,546,l),
(526,523,o),
(496,508,o),
(426,508,cs),
(325,508,l),
(325,498,l),
(382,498,o),
(405,466,o),
(405,418,cs)
);
},
{
closed = 1;
nodes = (
(478,721,l),
(478,726,l),
(414,784,l),
(409,784,l),
(271,591,l),
(278,581,l)
);
}
);
width = 612;
}
);
leftKerningGroup = u;
rightKerningGroup = d;
unicode = 250;
},
{
glyphname = ucircumflex;
layers = (
{
hints = (
{
horizontal = 1;
place = (-14,40);
type = Stem;
},
{
horizontal = 1;
place = (0,9);
type = Stem;
},
{
horizontal = 1;
place = (498,10);
type = Stem;
},
{
horizontal = 1;
place = (546,-20);
target = down;
type = TopGhost;
},
{
horizontal = 1;
place = (714,70);
type = Stem;
},
{
place = (68,143);
type = Stem;
},
{
place = (405,144);
type = Stem;
}
);
layerId = "4476E8FB-E1E7-4AA1-B35B-6BE7AD43F443";
shapes = (
{
closed = 1;
nodes = (
(405,124,l),
(372,65,o),
(324,26,o),
(283,26,cs),
(240,26,o),
(211,70,o),
(211,136,cs),
(211,546,l),
(201,546,l),
(187,523,o),
(158,508,o),
(87,508,cs),
(-13,508,l),
(-13,498,l),
(55,498,o),
(68,466,o),
(68,418,cs),
(68,146,ls),
(68,50,o),
(127,-14,o),
(216,-14,cs),
(295,-14,o),
(372,33,o),
(407,101,c),
(408,-28,l),
(413,-28,l),
(427,-6,o),
(460,0,o),
(530,0,cs),
(629,0,l),
(629,9,l),
(581,9,o),
(549,42,o),
(549,90,c),
(550,546,l),
(540,546,l),
(526,523,o),
(496,508,o),
(426,508,cs),
(325,508,l),
(325,498,l),
(382,498,o),
(405,466,o),
(405,418,cs)
);
},
{
closed = 1;
nodes = (
(330,784,l),
(279,784,l),
(152,588,l),
(159,581,l),
(305,714,l),
(451,581,l),
(458,588,l)
);
}
);
width = 612;
}
);
leftKerningGroup = u;
rightKerningGroup = d;
unicode = 251;
},
{
glyphname = udieresis;
layers = (
{
hints = (
{
horizontal = 1;
place = (-14,40);
type = Stem;
},
{
horizontal = 1;
place = (0,9);
type = Stem;
},
{
horizontal = 1;
place = (498,10);
type = Stem;
},
{
horizontal = 1;
place = (546,-20);
target = down;
type = TopGhost;
},
{
horizontal = 1;
place = (604,150);
type = Stem;
},
{
place = (68,143);
type = Stem;
},
{
place = (131,150);
type = Stem;
},
{
place = (329,150);
type = Stem;
},
{
place = (405,144);
type = Stem;
}
);
layerId = "4476E8FB-E1E7-4AA1-B35B-6BE7AD43F443";
shapes = (
{
closed = 1;
nodes = (
(405,124,l),
(372,65,o),
(324,26,o),
(283,26,cs),
(240,26,o),
(211,70,o),
(211,136,cs),
(211,546,l),
(201,546,l),
(187,523,o),
(158,508,o),
(87,508,cs),
(-13,508,l),
(-13,498,l),
(55,498,o),
(68,466,o),
(68,418,cs),
(68,146,ls),
(68,50,o),
(127,-14,o),
(216,-14,cs),
(295,-14,o),
(372,33,o),
(407,101,c),
(408,-28,l),
(413,-28,l),
(427,-6,o),
(460,0,o),
(530,0,cs),
(629,0,l),
(629,9,l),
(581,9,o),
(549,42,o),
(549,90,c),
(550,546,l),
(540,546,l),
(526,523,o),
(496,508,o),
(426,508,cs),
(325,508,l),
(325,498,l),
(382,498,o),
(405,466,o),
(405,418,cs)
);
},
{
closed = 1;
nodes = (
(131,638,o),
(165,604,o),
(206,604,cs),
(246,604,o),
(281,638,o),
(281,679,cs),
(281,720,o),
(246,754,o),
(206,754,cs),
(165,754,o),
(131,720,o),
(131,679,cs)
);
},
{
closed = 1;
nodes = (
(329,638,o),
(363,604,o),
(404,604,cs),
(444,604,o),
(479,638,o),
(479,679,cs),
(479,720,o),
(444,754,o),
(404,754,cs),
(363,754,o),
(329,720,o),
(329,679,cs)
);
}
);
width = 612;
}
);
leftKerningGroup = u;
rightKerningGroup = d;
unicode = 252;
},
{
glyphname = yacute;
layers = (
{
hints = (
{
horizontal = 1;
place = (-224,110);
type = Stem;
},
{
horizontal = 1;
place = (498,10);
type = Stem;
},
{
place = (-67,552);
type = Stem;
},
{
place = (404,81);
type = Stem;
}
);
layerId = "4476E8FB-E1E7-4AA1-B35B-6BE7AD43F443";
shapes = (
{
closed = 1;
nodes = (
(412,402,l),
(437,458,o),
(455,491,o),
(485,498,c),
(485,508,l),
(347,508,l),
(347,498,l),
(383,494,o),
(404,471,o),
(404,438,cs),
(404,425,o),
(401,409,o),
(394,393,cs),
(293,156,l),
(192,393,ls),
(185,410,o),
(182,425,o),
(182,438,cs),
(182,471,o),
(202,494,o),
(238,498,c),
(238,508,l),
(-51,508,l),
(-51,498,l),
(-13,497,o),
(7,475,o),
(21,444,cs),
(219,-15,l),
(208,-42,ls),
(184,-97,o),
(136,-115,o),
(86,-115,cs),
(46,-115,o),
(5,-104,o),
(-28,-91,c),
(-67,-208,l),
(-40,-219,o),
(-13,-224,o),
(12,-224,cs),
(94,-224,o),
(166,-170,o),
(208,-72,cs)
);
},
{
closed = 1;
nodes = (
(421,721,l),
(421,726,l),
(357,784,l),
(352,784,l),
(214,591,l),
(221,581,l)
);
}
);
width = 446;
}
);
leftKerningGroup = J;
unicode = 253;
},
{
glyphname = thorn;
layers = (
{
hints = (
{
horizontal = 1;
place = (-210,10);
type = Stem;
},
{
horizontal = 1;
place = (-14,17);
type = Stem;
},
{
horizontal = 1;
place = (483,40);
type = Stem;
},
{
horizontal = 1;
place = (740,10);
type = Stem;
},
{
place = (88,144);
type = Stem;
},
{
place = (434,156);
type = Stem;
}
);
layerId = "4476E8FB-E1E7-4AA1-B35B-6BE7AD43F443";
shapes = (
{
closed = 1;
nodes = (
(232,390,l),
(250,441,o),
(300,483,o),
(346,483,cs),
(405,483,o),
(434,411,o),
(434,264,cs),
(434,95,o),
(396,3,o),
(325,3,cs),
(268,3,o),
(232,62,o),
(232,157,cs)
);
},
{
closed = 1;
nodes = (
(590,414,o),
(510,523,o),
(399,523,cs),
(330,523,o),
(264,481,o),
(232,422,c),
(232,788,l),
(219,788,l),
(206,767,o),
(182,750,o),
(106,750,cs),
(7,750,l),
(7,740,l),
(65,740,o),
(87,718,o),
(88,660,c),
(88,-120,ls),
(88,-168,o),
(56,-200,o),
(8,-200,c),
(7,-200,l),
(7,-210,l),
(313,-210,l),
(313,-200,l),
(312,-200,l),
(264,-200,o),
(232,-168,o),
(232,-120,cs),
(232,40,l),
(260,1,o),
(292,-14,o),
(346,-14,cs),
(494,-14,o),
(590,94,o),
(590,262,cs)
);
}
);
width = 623;
}
);
leftKerningGroup = B;
rightKerningGroup = b;
unicode = 254;
},
{
glyphname = ydieresis;
layers = (
{
hints = (
{
horizontal = 1;
place = (-224,110);
type = Stem;
},
{
horizontal = 1;
place = (498,10);
type = Stem;
},
{
horizontal = 1;
place = (604,150);
type = Stem;
},
{
place = (84,150);
type = Stem;
},
{
place = (282,150);
type = Stem;
},
{
place = (404,81);
type = Stem;
}
);
layerId = "4476E8FB-E1E7-4AA1-B35B-6BE7AD43F443";
shapes = (
{
closed = 1;
nodes = (
(412,402,l),
(437,458,o),
(455,491,o),
(485,498,c),
(485,508,l),
(347,508,l),
(347,498,l),
(383,494,o),
(404,471,o),
(404,438,cs),
(404,425,o),
(401,409,o),
(394,393,cs),
(293,156,l),
(192,393,ls),
(185,410,o),
(182,425,o),
(182,438,cs),
(182,471,o),
(202,494,o),
(238,498,c),
(238,508,l),
(-51,508,l),
(-51,498,l),
(-13,497,o),
(7,475,o),
(21,444,cs),
(219,-15,l),
(208,-42,ls),
(184,-97,o),
(136,-115,o),
(86,-115,cs),
(46,-115,o),
(5,-104,o),
(-28,-91,c),
(-67,-208,l),
(-40,-219,o),
(-13,-224,o),
(12,-224,cs),
(94,-224,o),
(166,-170,o),
(208,-72,cs)
);
},
{
closed = 1;
nodes = (
(124,638,o),
(158,604,o),
(199,604,cs),
(240,604,o),
(274,638,o),
(274,679,cs),
(274,720,o),
(240,754,o),
(199,754,cs),
(158,754,o),
(124,720,o),
(124,679,cs)
);
},
{
closed = 1;
nodes = (
(322,638,o),
(356,604,o),
(397,604,cs),
(438,604,o),
(472,638,o),
(472,679,cs),
(472,720,o),
(438,754,o),
(397,754,cs),
(356,754,o),
(322,720,o),
(322,679,cs)
);
}
);
width = 446;
}
);
leftKerningGroup = J;
unicode = 255;
},
{
glyphname = Amacron;
layers = (
{
hints = (
{
horizontal = 1;
place = (0,10);
type = Stem;
},
{
horizontal = 1;
place = (263,13);
type = Stem;
},
{
horizontal = 1;
place = (765,-20);
target = down;
type = TopGhost;
},
{
horizontal = 1;
place = (853,53);
type = Stem;
},
{
place = (-24,111);
type = Stem;
},
{
place = (232,220);
type = Stem;
}
);
layerId = "4476E8FB-E1E7-4AA1-B35B-6BE7AD43F443";
shapes = (
{
closed = 1;
nodes = (
(155,276,l),
(272,564,l),
(386,276,l)
);
},
{
closed = 1;
nodes = (
(77,119,ls),
(55,66,o),
(13,13,o),
(-24,10,c),
(-24,0,l),
(171,0,l),
(171,10,l),
(105,13,o),
(70,66,o),
(94,124,cs),
(150,263,l),
(391,263,l),
(451,114,ls),
(477,49,o),
(455,10,o),
(395,10,cs),
(391,10,l),
(391,0,l),
(711,0,l),
(711,10,l),
(708,10,ls),
(673,10,o),
(639,48,o),
(610,119,cs),
(350,765,l),
(341,765,l)
);
},
{
closed = 1;
nodes = (
(452,853,l),
(452,906,l),
(232,906,l),
(232,853,l)
);
}
);
width = 684;
}
);
leftKerningGroup = J;
unicode = 256;
},
{
glyphname = amacron;
layers = (
{
hints = (
{
horizontal = 1;
place = (-14,62);
type = Stem;
},
{
horizontal = 1;
place = (510,13);
type = Stem;
},
{
horizontal = 1;
place = (651,53);
type = Stem;
},
{
place = (31,134);
type = Stem;
},
{
place = (156,220);
type = Stem;
},
{
place = (331,144);
type = Stem;
}
);
layerId = "4476E8FB-E1E7-4AA1-B35B-6BE7AD43F443";
shapes = (
{
closed = 1;
nodes = (
(330,95,l),
(296,62,o),
(270,48,o),
(241,48,cs),
(197,48,o),
(165,89,o),
(165,146,cs),
(165,204,o),
(186,243,o),
(291,283,cs),
(331,298,l)
);
},
{
closed = 1;
nodes = (
(182,523,o),
(90,468,o),
(55,386,c),
(163,324,l),
(175,439,o),
(213,509,o),
(263,510,c),
(305,510,o),
(331,462,o),
(331,386,cs),
(331,311,l),
(238,277,ls),
(62,213,o),
(31,166,o),
(31,106,cs),
(31,34,o),
(85,-14,o),
(166,-14,cs),
(223,-14,o),
(266,11,o),
(332,81,c),
(341,24,o),
(381,-14,o),
(432,-14,cs),
(479,-14,o),
(533,18,o),
(567,65,c),
(559,72,l),
(544,55,o),
(530,47,o),
(514,47,cs),
(489,47,o),
(474,68,o),
(475,105,c),
(475,346,ls),
(475,453,o),
(398,523,o),
(283,523,cs)
);
},
{
closed = 1;
nodes = (
(376,651,l),
(376,704,l),
(156,704,l),
(156,651,l)
);
}
);
width = 551;
}
);
leftKerningGroup = J;
unicode = 257;
},
{
glyphname = Abreve;
layers = (
{
hints = (
{
horizontal = 1;
place = (0,10);
type = Stem;
},
{
horizontal = 1;
place = (263,13);
type = Stem;
},
{
horizontal = 1;
place = (765,-20);
target = down;
type = TopGhost;
},
{
horizontal = 1;
place = (810,60);
type = Stem;
},
{
horizontal = 1;
place = (936,-20);
target = down;
type = TopGhost;
},
{
place = (-24,111);
type = Stem;
},
{
place = (219,10);
type = Stem;
},
{
place = (455,10);
type = Stem;
}
);
layerId = "4476E8FB-E1E7-4AA1-B35B-6BE7AD43F443";
shapes = (
{
closed = 1;
nodes = (
(155,276,l),
(272,564,l),
(386,276,l)
);
},
{
closed = 1;
nodes = (
(77,119,ls),
(55,66,o),
(13,13,o),
(-24,10,c),
(-24,0,l),
(171,0,l),
(171,10,l),
(105,13,o),
(70,66,o),
(94,124,cs),
(150,263,l),
(391,263,l),
(451,114,ls),
(477,49,o),
(455,10,o),
(395,10,cs),
(391,10,l),
(391,0,l),
(711,0,l),
(711,10,l),
(708,10,ls),
(673,10,o),
(639,48,o),
(610,119,cs),
(350,765,l),
(341,765,l)
);
},
{
closed = 1;
nodes = (
(424,810,o),
(464,869,o),
(465,956,c),
(455,956,l),
(452,907,o),
(403,870,o),
(342,870,cs),
(281,870,o),
(232,907,o),
(229,956,c),
(219,956,l),
(220,869,o),
(259,810,o),
(342,810,cs)
);
}
);
width = 684;
}
);
leftKerningGroup = J;
unicode = 258;
},
{
glyphname = abreve;
layers = (
{
hints = (
{
horizontal = 1;
place = (-14,62);
type = Stem;
},
{
horizontal = 1;
place = (510,13);
type = Stem;
},
{
horizontal = 1;
place = (618,60);
type = Stem;
},
{
horizontal = 1;
place = (744,-20);
target = down;
type = TopGhost;
},
{
place = (31,134);
type = Stem;
},
{
place = (143,10);
type = Stem;
},
{
place = (331,144);
type = Stem;
},
{
place = (379,10);
type = Stem;
}
);
layerId = "4476E8FB-E1E7-4AA1-B35B-6BE7AD43F443";
shapes = (
{
closed = 1;
nodes = (
(330,95,l),
(296,62,o),
(270,48,o),
(241,48,cs),
(197,48,o),
(165,89,o),
(165,146,cs),
(165,204,o),
(186,243,o),
(291,283,cs),
(331,298,l)
);
},
{
closed = 1;
nodes = (
(182,523,o),
(90,468,o),
(55,386,c),
(163,324,l),
(175,439,o),
(213,509,o),
(263,510,c),
(305,510,o),
(331,462,o),
(331,386,cs),
(331,311,l),
(238,277,ls),
(62,213,o),
(31,166,o),
(31,106,cs),
(31,34,o),
(85,-14,o),
(166,-14,cs),
(223,-14,o),
(266,11,o),
(332,81,c),
(341,24,o),
(381,-14,o),
(432,-14,cs),
(479,-14,o),
(533,18,o),
(567,65,c),
(559,72,l),
(544,55,o),
(530,47,o),
(514,47,cs),
(489,47,o),
(474,68,o),
(475,105,c),
(475,346,ls),
(475,453,o),
(398,523,o),
(283,523,cs)
);
},
{
closed = 1;
nodes = (
(348,618,o),
(388,677,o),
(389,764,c),
(379,764,l),
(376,715,o),
(327,678,o),
(266,678,cs),
(205,678,o),
(156,715,o),
(153,764,c),
(143,764,l),
(144,677,o),
(183,618,o),
(266,618,cs)
);
}
);
width = 551;
}
);
leftKerningGroup = J;
unicode = 259;
},
{
glyphname = Aogonek;
layers = (
{
hints = (
{
horizontal = 1;
place = (0,10);
type = Stem;
},
{
horizontal = 1;
place = (263,13);
type = Stem;
},
{
horizontal = 1;
place = (765,-20);
target = down;
type = TopGhost;
},
{
place = (-24,111);
type = Stem;
}
);
layerId = "4476E8FB-E1E7-4AA1-B35B-6BE7AD43F443";
shapes = (
{
closed = 1;
nodes = (
(155,276,l),
(272,564,l),
(386,276,l)
);
},
{
closed = 1;
nodes = (
(77,119,ls),
(55,66,o),
(13,13,o),
(-24,10,c),
(-24,0,l),
(171,0,l),
(171,10,l),
(105,13,o),
(70,66,o),
(94,124,cs),
(150,263,l),
(391,263,l),
(451,114,ls),
(477,49,o),
(455,10,o),
(395,10,cs),
(391,10,l),
(391,0,l),
(604,0,l),
(540,-17,o),
(499,-66,o),
(499,-133,cs),
(499,-191,o),
(539,-225,o),
(608,-225,cs),
(640,-225,o),
(657,-218,o),
(692,-218,c),
(711,-119,l),
(700,-119,l),
(688,-171,o),
(656,-208,o),
(623,-208,cs),
(595,-208,o),
(579,-183,o),
(579,-140,cs),
(579,-74,o),
(616,-15,o),
(667,0,c),
(711,0,l),
(711,10,l),
(708,10,ls),
(673,10,o),
(639,48,o),
(610,119,cs),
(350,765,l),
(341,765,l)
);
}
);
width = 684;
}
);
leftKerningGroup = J;
unicode = 260;
},
{
glyphname = aogonek;
layers = (
{
hints = (
{
horizontal = 1;
place = (-14,62);
type = Stem;
},
{
horizontal = 1;
place = (510,13);
type = Stem;
},
{
place = (31,134);
type = Stem;
},
{
place = (331,144);
type = Stem;
}
);
layerId = "4476E8FB-E1E7-4AA1-B35B-6BE7AD43F443";
shapes = (
{
closed = 1;
nodes = (
(330,95,l),
(296,62,o),
(270,48,o),
(241,48,cs),
(197,48,o),
(165,89,o),
(165,146,cs),
(165,204,o),
(186,243,o),
(291,283,cs),
(331,298,l)
);
},
{
closed = 1;
nodes = (
(182,523,o),
(90,468,o),
(55,386,c),
(163,324,l),
(175,439,o),
(213,509,o),
(263,510,c),
(305,510,o),
(331,462,o),
(331,386,cs),
(331,311,l),
(238,277,ls),
(62,213,o),
(31,166,o),
(31,106,cs),
(31,34,o),
(85,-14,o),
(166,-14,cs),
(223,-14,o),
(266,11,o),
(332,81,c),
(339,35,o),
(367,1,o),
(404,-10,c),
(356,-32,o),
(327,-77,o),
(327,-129,cs),
(327,-190,o),
(366,-225,o),
(436,-225,cs),
(468,-225,o),
(485,-218,o),
(520,-218,c),
(539,-119,l),
(528,-119,l),
(516,-171,o),
(484,-208,o),
(451,-208,cs),
(423,-208,o),
(407,-183,o),
(407,-140,cs),
(407,-80,o),
(438,-29,o),
(492,0,cs),
(518,14,o),
(547,37,o),
(567,65,c),
(559,72,l),
(544,55,o),
(530,47,o),
(514,47,cs),
(489,47,o),
(474,68,o),
(475,105,c),
(475,346,ls),
(475,453,o),
(398,523,o),
(283,523,cs)
);
}
);
width = 551;
}
);
leftKerningGroup = J;
unicode = 261;
},
{
glyphname = Cacute;
layers = (
{
hints = (
{
horizontal = 1;
place = (-14,16);
type = Stem;
},
{
horizontal = 1;
place = (751,13);
type = Stem;
},
{
horizontal = 1;
place = (783,203);
type = Stem;
},
{
place = (37,170);
type = Stem;
},
{
place = (338,207);
type = Stem;
}
);
layerId = "4476E8FB-E1E7-4AA1-B35B-6BE7AD43F443";
shapes = (
{
closed = 1;
nodes = (
(684,748,l),
(585,748,o),
(570,764,o),
(483,764,cs),
(212,764,o),
(37,612,o),
(37,376,cs),
(37,142,o),
(211,-14,o),
(472,-14,cs),
(560,-14,o),
(603,4,o),
(700,4,c),
(729,220,l),
(719,220,l),
(699,84,o),
(610,2,o),
(483,2,cs),
(315,2,o),
(207,146,o),
(207,369,cs),
(207,594,o),
(316,751,o),
(472,751,cs),
(586,751,o),
(681,668,o),
(704,548,c),
(714,548,l)
);
},
{
closed = 1;
nodes = (
(545,923,l),
(545,928,l),
(480,986,l),
(475,986,l),
(338,793,l),
(345,783,l)
);
}
);
width = 742;
}
);
leftKerningGroup = J;
unicode = 262;
},
{
glyphname = cacute;
layers = (
{
hints = (
{
horizontal = 1;
place = (-14,94);
type = Stem;
},
{
horizontal = 1;
place = (507,15);
type = Stem;
},
{
horizontal = 1;
place = (581,203);
type = Stem;
},
{
place = (33,136);
type = Stem;
},
{
place = (165,207);
type = Stem;
}
);
layerId = "4476E8FB-E1E7-4AA1-B35B-6BE7AD43F443";
shapes = (
{
closed = 1;
nodes = (
(33,95,o),
(129,-14,o),
(266,-14,cs),
(377,-14,o),
(477,57,o),
(512,166,c),
(502,169,l),
(465,115,o),
(402,80,o),
(339,80,cs),
(236,80,o),
(169,172,o),
(169,313,cs),
(169,426,o),
(212,507,o),
(273,507,cs),
(335,507,o),
(372,423,o),
(372,286,c),
(492,353,l),
(478,456,o),
(397,522,o),
(286,522,cs),
(140,522,o),
(33,410,o),
(33,250,cs)
);
},
{
closed = 1;
nodes = (
(372,721,l),
(372,726,l),
(307,784,l),
(302,784,l),
(165,591,l),
(172,581,l)
);
}
);
width = 536;
}
);
leftKerningGroup = J;
unicode = 263;
},
{
glyphname = Cdotaccent;
layers = (
{
hints = (
{
horizontal = 1;
place = (-14,16);
type = Stem;
},
{
horizontal = 1;
place = (751,13);
type = Stem;
},
{
horizontal = 1;
place = (811,140);
type = Stem;
},
{
place = (37,170);
type = Stem;
},
{
place = (369,145);
type = Stem;
}
);
layerId = "4476E8FB-E1E7-4AA1-B35B-6BE7AD43F443";
shapes = (
{
closed = 1;
nodes = (
(684,748,l),
(585,748,o),
(570,764,o),
(483,764,cs),
(212,764,o),
(37,612,o),
(37,376,cs),
(37,142,o),
(211,-14,o),
(472,-14,cs),
(560,-14,o),
(603,4,o),
(700,4,c),
(729,220,l),
(719,220,l),
(699,84,o),
(610,2,o),
(483,2,cs),
(315,2,o),
(207,146,o),
(207,369,cs),
(207,594,o),
(316,751,o),
(472,751,cs),
(586,751,o),
(681,668,o),
(704,548,c),
(714,548,l)
);
},
{
closed = 1;
nodes = (
(369,843,o),
(402,811,o),
(441,811,cs),
(480,811,o),
(514,843,o),
(514,881,cs),
(514,920,o),
(480,951,o),
(441,951,cs),
(402,951,o),
(369,920,o),
(369,881,cs)
);
}
);
width = 742;
}
);
leftKerningGroup = J;
unicode = 266;
},
{
glyphname = cdotaccent;
layers = (
{
hints = (
{
horizontal = 1;
place = (-14,94);
type = Stem;
},
{
horizontal = 1;
place = (507,15);
type = Stem;
},
{
horizontal = 1;
place = (609,140);
type = Stem;
},
{
place = (33,136);
type = Stem;
},
{
place = (196,145);
type = Stem;
}
);
layerId = "4476E8FB-E1E7-4AA1-B35B-6BE7AD43F443";
shapes = (
{
closed = 1;
nodes = (
(33,95,o),
(129,-14,o),
(266,-14,cs),
(377,-14,o),
(477,57,o),
(512,166,c),
(502,169,l),
(465,115,o),
(402,80,o),
(339,80,cs),
(236,80,o),
(169,172,o),
(169,313,cs),
(169,426,o),
(212,507,o),
(273,507,cs),
(335,507,o),
(372,423,o),
(372,286,c),
(492,353,l),
(478,456,o),
(397,522,o),
(286,522,cs),
(140,522,o),
(33,410,o),
(33,250,cs)
);
},
{
closed = 1;
nodes = (
(196,641,o),
(229,609,o),
(268,609,cs),
(307,609,o),
(341,641,o),
(341,679,cs),
(341,718,o),
(307,749,o),
(268,749,cs),
(229,749,o),
(196,718,o),
(196,679,cs)
);
}
);
width = 536;
}
);
leftKerningGroup = J;
unicode = 267;
},
{
glyphname = Ccaron;
layers = (
{
hints = (
{
horizontal = 1;
place = (-14,16);
type = Stem;
},
{
horizontal = 1;
place = (751,13);
type = Stem;
},
{
horizontal = 1;
place = (788,70);
type = Stem;
},
{
place = (37,170);
type = Stem;
},
{
place = (288,306);
type = Stem;
}
);
layerId = "4476E8FB-E1E7-4AA1-B35B-6BE7AD43F443";
shapes = (
{
closed = 1;
nodes = (
(684,748,l),
(585,748,o),
(570,764,o),
(483,764,cs),
(212,764,o),
(37,612,o),
(37,376,cs),
(37,142,o),
(211,-14,o),
(472,-14,cs),
(560,-14,o),
(603,4,o),
(700,4,c),
(729,220,l),
(719,220,l),
(699,84,o),
(610,2,o),
(483,2,cs),
(315,2,o),
(207,146,o),
(207,369,cs),
(207,594,o),
(316,751,o),
(472,751,cs),
(586,751,o),
(681,668,o),
(704,548,c),
(714,548,l)
);
},
{
closed = 1;
nodes = (
(466,788,l),
(594,984,l),
(587,991,l),
(441,858,l),
(295,991,l),
(288,984,l),
(415,788,l)
);
}
);
width = 742;
}
);
leftKerningGroup = J;
unicode = 268;
},
{
glyphname = ccaron;
layers = (
{
hints = (
{
horizontal = 1;
place = (-14,94);
type = Stem;
},
{
horizontal = 1;
place = (507,15);
type = Stem;
},
{
horizontal = 1;
place = (581,70);
type = Stem;
},
{
place = (33,136);
type = Stem;
},
{
place = (115,306);
type = Stem;
}
);
layerId = "4476E8FB-E1E7-4AA1-B35B-6BE7AD43F443";
shapes = (
{
closed = 1;
nodes = (
(33,95,o),
(129,-14,o),
(266,-14,cs),
(377,-14,o),
(477,57,o),
(512,166,c),
(502,169,l),
(465,115,o),
(402,80,o),
(339,80,cs),
(236,80,o),
(169,172,o),
(169,313,cs),
(169,426,o),
(212,507,o),
(273,507,cs),
(335,507,o),
(372,423,o),
(372,286,c),
(492,353,l),
(478,456,o),
(397,522,o),
(286,522,cs),
(140,522,o),
(33,410,o),
(33,250,cs)
);
},
{
closed = 1;
nodes = (
(293,581,l),
(421,777,l),
(414,784,l),
(268,651,l),
(122,784,l),
(115,777,l),
(242,581,l)
);
}
);
width = 536;
}
);
leftKerningGroup = J;
unicode = 269;
},
{
glyphname = Dcaron;
layers = (
{
hints = (
{
horizontal = 1;
place = (0,10);
type = Stem;
},
{
horizontal = 1;
place = (0,13);
type = Stem;
},
{
horizontal = 1;
place = (736,14);
type = Stem;
},
{
horizontal = 1;
place = (740,10);
type = Stem;
},
{
horizontal = 1;
place = (783,70);
type = Stem;
},
{
place = (81,154);
type = Stem;
},
{
place = (191,306);
type = Stem;
},
{
place = (620,170);
type = Stem;
}
);
layerId = "4476E8FB-E1E7-4AA1-B35B-6BE7AD43F443";
shapes = (
{
closed = 1;
nodes = (
(305,13,ls),
(253,13,o),
(235,42,o),
(235,84,cs),
(235,736,l),
(323,736,ls),
(502,736,o),
(620,612,o),
(620,376,cs),
(620,139,o),
(502,13,o),
(323,13,cs)
);
},
{
closed = 1;
nodes = (
(323,0,ls),
(605,0,o),
(790,130,o),
(790,374,cs),
(790,620,o),
(605,750,o),
(323,750,cs),
(1,750,l),
(1,740,l),
(47,740,o),
(81,710,o),
(81,665,cs),
(81,84,ls),
(81,39,o),
(49,10,o),
(0,10,c),
(0,0,l)
);
},
{
closed = 1;
nodes = (
(497,979,l),
(490,986,l),
(344,853,l),
(198,986,l),
(191,979,l),
(318,783,l),
(369,783,l)
);
}
);
width = 827;
}
);
leftKerningGroup = J;
unicode = 270;
},
{
glyphname = dcaron;
layers = (
{
hints = (
{
horizontal = 1;
place = (-15,40);
type = Stem;
},
{
horizontal = 1;
place = (0,10);
type = Stem;
},
{
horizontal = 1;
place = (505,17);
type = Stem;
},
{
horizontal = 1;
place = (533,281);
type = Stem;
},
{
horizontal = 1;
place = (740,10);
type = Stem;
},
{
place = (35,160);
type = Stem;
},
{
place = (397,144);
type = Stem;
},
{
place = (664,62);
type = Stem;
}
);
layerId = "4476E8FB-E1E7-4AA1-B35B-6BE7AD43F443";
shapes = (
{
closed = 1;
nodes = (
(397,129,l),
(377,73,o),
(326,25,o),
(280,25,cs),
(223,25,o),
(195,98,o),
(195,244,cs),
(195,413,o),
(234,505,o),
(304,505,cs),
(356,505,o),
(391,453,o),
(397,373,c)
);
},
{
closed = 1;
nodes = (
(531,788,l),
(517,766,o),
(492,750,o),
(418,750,cs),
(316,750,l),
(316,740,l),
(364,740,o),
(397,708,o),
(397,660,cs),
(397,467,l),
(369,507,o),
(337,522,o),
(283,522,cs),
(135,522,o),
(35,414,o),
(35,247,cs),
(35,96,o),
(118,-15,o),
(225,-15,cs),
(297,-15,o),
(369,35,o),
(400,104,c),
(401,-38,l),
(411,-38,l),
(429,-12,o),
(462,0,o),
(520,0,cs),
(622,0,l),
(622,10,l),
(573,10,o),
(541,42,o),
(541,90,cs),
(541,788,l)
);
},
{
closed = 1;
nodes = (
(566,658,o),
(664,686,o),
(664,629,cs),
(664,603,o),
(644,581,o),
(587,544,c),
(593,533,l),
(690,597,o),
(726,646,o),
(726,714,cs),
(726,777,o),
(695,814,o),
(644,814,cs),
(597,814,o),
(566,783,o),
(566,738,cs)
);
}
);
width = 709;
}
);
leftKerningGroup = J;
unicode = 271;
},
{
glyphname = Dcroat;
layers = (
{
hints = (
{
horizontal = 1;
place = (0,10);
type = Stem;
},
{
horizontal = 1;
place = (0,13);
type = Stem;
},
{
horizontal = 1;
place = (369,13);
type = Stem;
},
{
horizontal = 1;
place = (736,14);
type = Stem;
},
{
horizontal = 1;
place = (740,10);
type = Stem;
},
{
place = (81,154);
type = Stem;
},
{
place = (620,170);
type = Stem;
}
);
layerId = "4476E8FB-E1E7-4AA1-B35B-6BE7AD43F443";
shapes = (
{
closed = 1;
nodes = (
(305,13,ls),
(253,13,o),
(235,42,o),
(235,84,cs),
(235,369,l),
(426,369,l),
(426,382,l),
(235,382,l),
(235,736,l),
(323,736,ls),
(502,736,o),
(620,612,o),
(620,376,cs),
(620,139,o),
(502,13,o),
(323,13,cs)
);
},
{
closed = 1;
nodes = (
(323,0,ls),
(605,0,o),
(790,130,o),
(790,374,cs),
(790,620,o),
(605,750,o),
(323,750,cs),
(1,750,l),
(1,740,l),
(47,740,o),
(81,710,o),
(81,665,cs),
(81,381,l),
(0,381,l),
(0,368,l),
(81,368,l),
(81,84,ls),
(81,39,o),
(49,10,o),
(0,10,c),
(0,0,l)
);
}
);
width = 827;
}
);
leftKerningGroup = J;
unicode = 272;
},
{
glyphname = dcroat;
layers = (
{
hints = (
{
horizontal = 1;
place = (-15,40);
type = Stem;
},
{
horizontal = 1;
place = (10,9);
type = Stem;
},
{
horizontal = 1;
place = (505,17);
type = Stem;
},
{
horizontal = 1;
place = (604,15);
type = Stem;
},
{
horizontal = 1;
place = (740,10);
type = Stem;
},
{
place = (35,156);
type = Stem;
},
{
place = (393,144);
type = Stem;
}
);
layerId = "4476E8FB-E1E7-4AA1-B35B-6BE7AD43F443";
shapes = (
{
closed = 1;
nodes = (
(393,129,l),
(373,73,o),
(322,25,o),
(276,25,cs),
(219,25,o),
(191,98,o),
(191,244,cs),
(191,413,o),
(230,505,o),
(300,505,cs),
(352,505,o),
(387,453,o),
(393,373,c)
);
},
{
closed = 1;
nodes = (
(599,604,l),
(599,619,l),
(537,619,l),
(537,788,l),
(527,788,l),
(513,766,o),
(488,750,o),
(414,750,cs),
(312,750,l),
(312,740,l),
(360,740,o),
(393,708,o),
(393,660,cs),
(393,619,l),
(240,619,l),
(240,604,l),
(393,604,l),
(393,467,l),
(365,507,o),
(333,522,o),
(279,522,cs),
(131,522,o),
(35,414,o),
(35,247,cs),
(35,96,o),
(114,-15,o),
(221,-15,cs),
(293,-15,o),
(365,35,o),
(396,104,c),
(397,-28,l),
(402,-28,l),
(411,-3,o),
(451,10,o),
(516,10,cs),
(618,10,l),
(618,19,l),
(560,19,o),
(537,44,o),
(537,104,cs),
(537,604,l)
);
}
);
width = 601;
}
);
leftKerningGroup = J;
rightKerningGroup = d;
unicode = 273;
},
{
glyphname = Emacron;
layers = (
{
hints = (
{
horizontal = 1;
place = (0,10);
type = Stem;
},
{
horizontal = 1;
place = (0,13);
type = Stem;
},
{
horizontal = 1;
place = (435,13);
type = Stem;
},
{
horizontal = 1;
place = (737,13);
type = Stem;
},
{
horizontal = 1;
place = (740,10);
type = Stem;
},
{
horizontal = 1;
place = (853,53);
type = Stem;
},
{
place = (90,154);
type = Stem;
},
{
place = (193,220);
type = Stem;
},
{
place = (444,10);
type = Stem;
}
);
layerId = "4476E8FB-E1E7-4AA1-B35B-6BE7AD43F443";
shapes = (
{
closed = 1;
nodes = (
(314,13,ls),
(267,13,o),
(244,37,o),
(244,84,cs),
(244,435,l),
(323,435,ls),
(395,435,o),
(443,385,o),
(444,313,c),
(454,313,l),
(454,559,l),
(444,559,l),
(444,493,o),
(400,448,o),
(334,448,cs),
(244,448,l),
(244,737,l),
(328,737,ls),
(466,737,o),
(545,674,o),
(565,549,c),
(575,549,l),
(545,750,l),
(9,750,l),
(10,740,l),
(58,740,o),
(90,708,o),
(90,660,cs),
(90,84,ls),
(90,36,o),
(58,10,o),
(10,10,c),
(9,10,l),
(8,0,l),
(563,0,l),
(593,220,l),
(583,220,l),
(562,78,o),
(484,13,o),
(356,13,cs)
);
},
{
closed = 1;
nodes = (
(193,853,l),
(413,853,l),
(413,906,l),
(193,906,l)
);
}
);
width = 606;
}
);
leftKerningGroup = J;
unicode = 274;
},
{
glyphname = emacron;
layers = (
{
hints = (
{
horizontal = 1;
place = (-12,89);
type = Stem;
},
{
horizontal = 1;
place = (315,15);
type = Stem;
},
{
horizontal = 1;
place = (507,15);
type = Stem;
},
{
horizontal = 1;
place = (651,53);
type = Stem;
},
{
place = (33,136);
type = Stem;
},
{
place = (169,220);
type = Stem;
},
{
place = (373,131);
type = Stem;
}
);
layerId = "4476E8FB-E1E7-4AA1-B35B-6BE7AD43F443";
shapes = (
{
closed = 1;
nodes = (
(170,330,l),
(175,437,o),
(218,507,o),
(276,507,c),
(335,508,o),
(373,437,o),
(373,330,c)
);
},
{
closed = 1;
nodes = (
(33,97,o),
(130,-12,o),
(269,-12,cs),
(379,-12,o),
(479,56,o),
(513,161,c),
(504,164,l),
(468,111,o),
(405,77,o),
(342,77,cs),
(237,77,o),
(168,170,o),
(169,310,c),
(169,315,l),
(505,315,l),
(504,330,l),
(500,444,o),
(412,522,o),
(287,522,cs),
(139,522,o),
(33,414,o),
(33,255,cs)
);
},
{
closed = 1;
nodes = (
(389,651,l),
(389,704,l),
(169,704,l),
(169,651,l)
);
}
);
width = 537;
}
);
leftKerningGroup = J;
unicode = 275;
},
{
glyphname = Edotaccent;
layers = (
{
hints = (
{
horizontal = 1;
place = (0,10);
type = Stem;
},
{
horizontal = 1;
place = (0,13);
type = Stem;
},
{
horizontal = 1;
place = (435,13);
type = Stem;
},
{
horizontal = 1;
place = (737,13);
type = Stem;
},
{
horizontal = 1;
place = (740,10);
type = Stem;
},
{
horizontal = 1;
place = (811,140);
type = Stem;
},
{
place = (90,154);
type = Stem;
},
{
place = (231,145);
type = Stem;
},
{
place = (444,10);
type = Stem;
}
);
layerId = "4476E8FB-E1E7-4AA1-B35B-6BE7AD43F443";
shapes = (
{
closed = 1;
nodes = (
(314,13,ls),
(267,13,o),
(244,37,o),
(244,84,cs),
(244,435,l),
(323,435,ls),
(395,435,o),
(443,385,o),
(444,313,c),
(454,313,l),
(454,559,l),
(444,559,l),
(444,493,o),
(400,448,o),
(334,448,cs),
(244,448,l),
(244,737,l),
(328,737,ls),
(466,737,o),
(545,674,o),
(565,549,c),
(575,549,l),
(545,750,l),
(9,750,l),
(10,740,l),
(58,740,o),
(90,708,o),
(90,660,cs),
(90,84,ls),
(90,36,o),
(58,10,o),
(10,10,c),
(9,10,l),
(8,0,l),
(563,0,l),
(593,220,l),
(583,220,l),
(562,78,o),
(484,13,o),
(356,13,cs)
);
},
{
closed = 1;
nodes = (
(231,843,o),
(264,811,o),
(303,811,cs),
(342,811,o),
(376,843,o),
(376,881,cs),
(376,920,o),
(342,951,o),
(303,951,cs),
(264,951,o),
(231,920,o),
(231,881,cs)
);
}
);
width = 606;
}
);
leftKerningGroup = J;
unicode = 278;
},
{
glyphname = edotaccent;
layers = (
{
hints = (
{
horizontal = 1;
place = (-12,89);
type = Stem;
},
{
horizontal = 1;
place = (315,15);
type = Stem;
},
{
horizontal = 1;
place = (507,15);
type = Stem;
},
{
horizontal = 1;
place = (609,140);
type = Stem;
},
{
place = (33,136);
type = Stem;
},
{
place = (206,145);
type = Stem;
},
{
place = (373,131);
type = Stem;
}
);
layerId = "4476E8FB-E1E7-4AA1-B35B-6BE7AD43F443";
shapes = (
{
closed = 1;
nodes = (
(170,330,l),
(175,437,o),
(218,507,o),
(276,507,c),
(335,508,o),
(373,437,o),
(373,330,c)
);
},
{
closed = 1;
nodes = (
(33,97,o),
(130,-12,o),
(269,-12,cs),
(379,-12,o),
(479,56,o),
(513,161,c),
(504,164,l),
(468,111,o),
(405,77,o),
(342,77,cs),
(237,77,o),
(168,170,o),
(169,310,c),
(169,315,l),
(505,315,l),
(504,330,l),
(500,444,o),
(412,522,o),
(287,522,cs),
(139,522,o),
(33,414,o),
(33,255,cs)
);
},
{
closed = 1;
nodes = (
(206,641,o),
(239,609,o),
(278,609,cs),
(317,609,o),
(351,641,o),
(351,679,cs),
(351,718,o),
(317,749,o),
(278,749,cs),
(239,749,o),
(206,718,o),
(206,679,cs)
);
}
);
width = 537;
}
);
leftKerningGroup = J;
unicode = 279;
},
